<svg id="Layer_1" data-name="Layer 1" xmlns="http://www.w3.org/2000/svg" xmlns:xlink="http://www.w3.org/1999/xlink" viewBox="0 0 387.73 303.22"><defs><linearGradient id="linear-gradient" x1="190.11" y1="179.81" x2="183.72" y2="141.89" gradientUnits="userSpaceOnUse"><stop offset="0" stop-color="#fff" stop-opacity="0"/><stop offset="0.84" stop-color="#fff" stop-opacity="0.84"/><stop offset="0.97" stop-color="#fff"/></linearGradient><linearGradient id="linear-gradient-2" x1="236.04" y1="208.25" x2="259.17" y2="229.91" xlink:href="#linear-gradient"/><linearGradient id="linear-gradient-3" x1="203.83" y1="202.45" x2="248.56" y2="138.15" gradientUnits="userSpaceOnUse"><stop offset="0" stop-color="#ecc4d7"/><stop offset="0.42" stop-color="#efd4d1"/><stop offset="1" stop-color="#f2eac9"/></linearGradient><linearGradient id="linear-gradient-4" x1="214.39" y1="207.72" x2="357.38" y2="207.72" gradientUnits="userSpaceOnUse"><stop offset="0" stop-opacity="0"/><stop offset="0.91" stop-opacity="0.8"/><stop offset="1"/></linearGradient><linearGradient id="linear-gradient-5" x1="143.82" y1="191.82" x2="227.44" y2="191.82" xlink:href="#linear-gradient-3"/><linearGradient id="linear-gradient-6" x1="169.65" y1="202.94" x2="189.17" y2="210.64" xlink:href="#linear-gradient"/><linearGradient id="linear-gradient-7" x1="181.1" y1="173.89" x2="200.62" y2="181.58" xlink:href="#linear-gradient"/><linearGradient id="linear-gradient-8" x1="198.94" y1="165.95" x2="210.67" y2="165.95" xlink:href="#linear-gradient-3"/><linearGradient id="linear-gradient-9" x1="156.47" y1="148.31" x2="156.47" y2="148.03" xlink:href="#linear-gradient-4"/><linearGradient id="linear-gradient-10" x1="159.71" y1="155.54" x2="136.63" y2="251.83" xlink:href="#linear-gradient-4"/><linearGradient id="linear-gradient-11" x1="176.24" y1="201.97" x2="168.73" y2="244.02" xlink:href="#linear-gradient-4"/><linearGradient id="linear-gradient-12" x1="264.7" y1="230.31" x2="279.34" y2="185.82" xlink:href="#linear-gradient"/><linearGradient id="linear-gradient-13" x1="312.25" y1="162.63" x2="318.02" y2="142.64" xlink:href="#linear-gradient"/><linearGradient id="linear-gradient-14" x1="227.56" y1="214.88" x2="233.33" y2="194.89" xlink:href="#linear-gradient"/><linearGradient id="linear-gradient-15" x1="346.32" y1="171.25" x2="352.09" y2="151.26" xlink:href="#linear-gradient"/><linearGradient id="linear-gradient-16" x1="362.37" y1="129.11" x2="366.57" y2="114.59" xlink:href="#linear-gradient"/><linearGradient id="linear-gradient-17" x1="159" y1="199.3" x2="164.77" y2="179.3" xlink:href="#linear-gradient"/><linearGradient id="linear-gradient-18" x1="85.42" y1="139.16" x2="91.19" y2="119.17" xlink:href="#linear-gradient"/><linearGradient id="linear-gradient-19" x1="333.58" y1="153.83" x2="335.87" y2="145.89" xlink:href="#linear-gradient"/><linearGradient id="linear-gradient-20" x1="177.29" y1="194.81" x2="179.26" y2="187.98" xlink:href="#linear-gradient"/><linearGradient id="linear-gradient-21" x1="361.33" y1="142.99" x2="363.3" y2="136.16" xlink:href="#linear-gradient"/><linearGradient id="linear-gradient-22" x1="246.85" y1="305.17" x2="301.29" y2="193.67" xlink:href="#linear-gradient"/><linearGradient id="linear-gradient-23" x1="126.75" y1="234.53" x2="98.6" y2="290.28" xlink:href="#linear-gradient"/><linearGradient id="linear-gradient-24" x1="191.2" y1="80.56" x2="161.91" y2="217.21" xlink:href="#linear-gradient-3"/></defs><title>63. Swim</title><path d="M26.8,172.11S54.05,59.9,150.35,51.45,333.14,58.15,387.45,168,242.29,375.34,185.23,348.08,26.8,172.11,26.8,172.11Z" transform="translate(-22.02 -49.48)" fill="#2c81db" opacity="0.15"/><path d="M358.23,253.44c-8.45,15.65-20.4,29.13-33,41.71-13.82,13.85-28.8,27-46.49,35.35-34.44,16.28-74.63,12.66-112.38,7.49-23.88-3.27-48.56-7.34-68.59-20.75-9.6-6.42-17.75-14.76-25.56-23.28q-14.83-16.2-28.38-33.54c-5.17-6.63-10.28-13.54-13.76-21.13a50.83,50.83,0,0,1-3-8.41c-2.89-11-1-24,7.55-31.64,4.17-3.72,9.55-5.89,13.68-9.66C54,184.34,56.67,176.67,60.67,170c12-19.87,37.88-30.12,60.18-23.81,11.12,3.15,20.86,9.79,31.07,15.2s21.75,9.77,33.12,7.74c11.52-2.06,21.79-8.73,33.2-11.51,10.91-2.66,20.39-1.16,31.46.6,32.9,5.2,68.45-.3,98.17,14.76,5.59,2.83,10.94,6.45,14.65,11.5s5.58,11.34,6.47,17.59C371.47,219.71,366.68,237.79,358.23,253.44Z" transform="translate(-22.02 -49.48)" fill="#2c81db" opacity="0.44"/><path d="M358.23,263.4c-8.45,15.65-20.4,29.13-33,41.71-13.82,13.85-28.8,27-46.49,35.35-34.44,16.28-74.63,12.66-112.38,7.49-23.88-3.27-48.56-7.34-68.59-20.75-9.6-6.42-17.75-14.76-25.56-23.28q-14.83-16.2-28.38-33.54c-5.17-6.63-10.28-13.54-13.76-21.13a50.83,50.83,0,0,1-3-8.41c-2.89-11-1-24,7.55-31.64,4.17-3.72,9.55-5.89,13.68-9.66C54,194.3,56.67,186.63,60.67,180c12-19.87,37.88-30.12,60.18-23.81,11.12,3.15,20.86,9.79,31.07,15.2s21.75,9.77,33.12,7.74c11.52-2.06,21.79-8.73,33.2-11.51,10.91-2.66,20.39-1.16,31.46.6,32.9,5.2,68.45-.3,98.17,14.76,5.59,2.83,10.94,6.45,14.65,11.5s5.58,11.34,6.47,17.59C371.47,229.67,366.68,247.75,358.23,263.4Z" transform="translate(-22.02 -49.48)" opacity="0.44" fill="url(#linear-gradient)"/><path d="M398.79,262.45c-6.6,5-15.33,6.06-23.6,6.65-9.26.66-18.51,1-27.78,1.08a238.28,238.28,0,0,1-22.15,25c-13.82,13.85-28.8,27-46.49,35.35a204.73,204.73,0,0,1-59.57,17.58c-15.42-3.17-30.36-7.94-43.36-16.64-9.6-6.43-17.75-14.77-25.55-23.29Q135.44,292,121.91,274.62c-2.11-2.71-4.21-5.46-6.2-8.28-4.6-6.57-8.58-13.54-10.6-21.26a38.76,38.76,0,0,1-1.21-8c-.42-8.85,2.24-17.84,8.75-23.66,4.17-3.72,9.56-5.89,13.68-9.67,5.72-5.23,8.39-12.9,12.39-19.54a46.56,46.56,0,0,1,3.08-4.51c12.93-16.87,36.55-25.11,57.1-19.3,11.12,3.15,20.86,9.78,31.07,15.2a93.33,93.33,0,0,0,9.38,4.4c7.64,3,15.73,4.76,23.74,3.33,11.51-2,21.79-8.73,33.19-11.51,10.92-2.66,20.4-1.15,31.46.6,23,3.64,47.29,2.05,70,5.9a35.87,35.87,0,0,1,3.79,16.12v18.81l.36.3c5.65,5,7.6,13,7.85,20.57C410.07,244.65,407.15,256.07,398.79,262.45Z" transform="translate(-22.02 -49.48)" opacity="0.44" fill="url(#linear-gradient-2)"/><path d="M401.51,194.46v52l-123.36-3.88-73.65-2.32-91-2.87-9.6-.3-77.1-2.43V172.11c1.9-4,11.73,10.66,42,5.58s57.71,1.08,57.71,1.08,5.75.44,15.29.95c21.1,1.13,60.73,2.59,97.55.3,20.36-1.27,39.86-3.67,54.9-7.91a477.94,477.94,0,0,1,66.64-13.37,36,36,0,0,1,40.62,35.72Z" transform="translate(-22.02 -49.48)" fill="#2c81db" opacity="0.19" style="isolation:isolate"/><path d="M401.51,187.6v72.67H148.25l72.46-28.62,11-12.81-17.57-2.5,3.62-36.82s8.85,8,13.7,3.68a.89.89,0,0,0,.21-.26l.06-.09c3.41-6.21-22.76-56-52.85-71.34-30.28-15.41-52.07-28.67-52.74-29.08h0S96,87,94.46,86.19s-3.52-1.54,0-3.79,15.47-3.94,14.49-7.88-31.09-10.2-40.37-8.09S61,63.26,66,60.73,94.71,54,112.46,58.84C126.1,62.56,133,65.37,154.2,75.59c19.85,9.57,62.11,31.87,95.22,61.26s89.24,31.49,89.24,31.49l46.42,7.6,10.33,3.31A8.76,8.76,0,0,1,401.51,187.6Z" transform="translate(-22.02 -49.48)" fill="url(#linear-gradient-3)"/><path d="M233,199c1.1,1.74,2.14,3.64,3.91,4.69,3.66,2.18,8.2-.27,12.06-2.09,9.18-4.33,19.59-5.05,29.72-5.69a222,222,0,0,1,24.6-.64,112.27,112.27,0,0,1,36.38,7.92c5.68,2.28,11.7,5.09,17.66,3.69.16,2.76-2.44,4.88-5,5.92-4.87,2-10.3,1.8-15.56,1.67A548.78,548.78,0,0,0,259.49,218c-5.73.67-11.56,1.46-16.8,3.87s-10.21,6.36-15.79,5.38l3.47-5.6a3.31,3.31,0,0,0,.59-1.38c.17-1.62-1.84-2.49-3.45-2.72-2.61-.37-5.28-.45-7.76-1.32s-4.82-2.78-5.28-5.37c-.66-3.78,2.71-7,3.55-10.76.52-2.32,0-4.74,0-7.12C218,180.32,230.64,195.22,233,199Z" transform="translate(-22.02 -49.48)" opacity="0.36" fill="url(#linear-gradient-4)" style="isolation:isolate"/><path d="M358.23,253.44a135.07,135.07,0,0,1-10.82,16.74,238.28,238.28,0,0,1-22.15,25c-13.82,13.85-28.8,27-46.49,35.35a204.73,204.73,0,0,1-59.57,17.58,196.22,196.22,0,0,1-52.92.13c-23.88-3.27-48.45-17.56-68.48-31-9.6-6.42-17.75-14.76-25.56-23.28q-14.83-16.2-28.38-33.54c-5.17-6.63-10.28-13.54-13.76-21.13l0,0c24.12,23.71,55.5,29.38,85.59,27A189,189,0,0,0,138,263.22c27.94-5.53,52.68-16.2,66.51-23,7.37-3.61,11.64-6.09,11.64-6.09l62,8.41Z" transform="translate(-22.02 -49.48)" fill="#2c81db"/><path d="M227.25,208a17.79,17.79,0,0,1-1.16,4.79c-7.27,18.11-43.71,14.67-65.45,8.58-8.66-2.43-15-5.28-16.21-7.35-.93-1.57-.77-5,.29-9.38,4.14-17.15,22.1-49.44,43.65-47.17C188.37,157.48,230.63,175.94,227.25,208Z" transform="translate(-22.02 -49.48)" fill="url(#linear-gradient-5)"/><path d="M174.72,196c-4.87,4.67-7.2,11.23-8.25,15.32a5.93,5.93,0,0,0,3.4,6.94c7.49,3.14,13.21-7.92,14.89-13.44C186.74,198.35,182.29,188.74,174.72,196Zm8.81,8.3c-1.44,4.74-6.35,14.23-12.78,11.53a5.08,5.08,0,0,1-2.91-6c.89-3.51,2.89-9.13,7.07-13.15C181.41,190.5,185.23,198.75,183.53,204.33Z" transform="translate(-22.02 -49.48)" fill="#fff"/><path d="M183.53,204.33c-1.44,4.74-6.35,14.23-12.78,11.53a5.08,5.08,0,0,1-2.91-6c.89-3.51,2.89-9.13,7.07-13.15C181.41,190.5,185.23,198.75,183.53,204.33Z" transform="translate(-22.02 -49.48)"/><path d="M199,171c-.59-10.5-10.39-6.49-13.37-.38-2.53,5.19-5.87,17.18,1.75,20a5.93,5.93,0,0,0,7.22-2.77C196.58,184.08,199.33,177.7,199,171Zm-.9,4c-.38,4.93-3.14,15.26-10,14a5.08,5.08,0,0,1-4.13-5.19c.12-3.62.86-9.55,4.07-14.37C193,161.92,198.51,169.15,198.06,175Z" transform="translate(-22.02 -49.48)" fill="#fff"/><path d="M198.06,175c-.38,4.93-3.14,15.26-10,14a5.08,5.08,0,0,1-4.13-5.19c.12-3.62.86-9.55,4.07-14.37C193,161.92,198.51,169.15,198.06,175Z" transform="translate(-22.02 -49.48)"/><path d="M183.53,204.33c-1.44,4.74-6.35,14.23-12.78,11.53a5.08,5.08,0,0,1-2.91-6c.89-3.51,2.89-9.13,7.07-13.15C181.41,190.5,185.23,198.75,183.53,204.33Z" transform="translate(-22.02 -49.48)" fill="url(#linear-gradient-6)"/><path d="M198.06,175c-.38,4.93-3.14,15.26-10,14a5.08,5.08,0,0,1-4.13-5.19c.12-3.62.86-9.55,4.07-14.37C193,161.92,198.51,169.15,198.06,175Z" transform="translate(-22.02 -49.48)" fill="url(#linear-gradient-7)"/><path d="M199,163s-.54-3.35,2.1-3.24,9.87,4.68,9.57,12.31C210.66,172.11,200.17,164.27,199,163Z" transform="translate(-22.02 -49.48)" fill="url(#linear-gradient-8)"/><path d="M126.51,196.82s-10.14-27.42,16-39.34,45.89,0,45.89,0-21.15,16.35-24.63,29a44.93,44.93,0,0,1-3.72,9.25,25.73,25.73,0,0,0,.56,25.53l.06.11S135.57,217.19,126.51,196.82Z" transform="translate(-22.02 -49.48)" fill="#2c81db"/><path d="M126.51,196.82s-10.14-27.42,16-39.34,45.89,0,45.89,0-21.15,16.35-24.63,29a44.93,44.93,0,0,1-3.72,9.25,25.73,25.73,0,0,0,.56,25.53l.06.11S135.57,217.19,126.51,196.82Z" transform="translate(-22.02 -49.48)" opacity="0.36" fill="url(#linear-gradient-9)" style="isolation:isolate"/><path d="M188.37,157.48s-21.15,16.35-24.63,29a44.93,44.93,0,0,1-3.72,9.25,26.09,26.09,0,0,0-3,9.81,25.46,25.46,0,0,0,3.55,15.72l.06.11s-25.07-4.19-34.13-24.56c0,0-.32-.88-.71-2.38-1.76-6.93-4.76-27.17,16.68-37C168.59,145.56,188.37,157.48,188.37,157.48Z" transform="translate(-22.02 -49.48)" opacity="0.36" fill="url(#linear-gradient-10)" style="isolation:isolate"/><path d="M226.09,212.8c-7.27,18.11-43.71,14.67-65.45,8.58,0,0-25.07-4.19-34.13-24.56,0,0-.32-.88-.71-2.38l.27-.44a1.28,1.28,0,0,1,2.16-.4c2.79,1.76,4.72,4.59,7.3,6.65a28.29,28.29,0,0,0,9.19,4.4l1.7.54c3.47,1.08,7.52,2.09,10.61.36a5.58,5.58,0,0,0,.73-.46,10.3,10.3,0,0,0,1,3.6,3.51,3.51,0,0,0,3,2c1.35,0,3.22-.85,3.71.41a2.6,2.6,0,0,1,0,1.21,5.22,5.22,0,0,0,7.42,5.3,19.75,19.75,0,0,0,3.49-2.72c1.16-.92,2.71-1.62,4.1-1.1a8.84,8.84,0,0,0,7.28,4.8c.07-.21.39-.24.62-.21,6.57.73,13.19,1.44,19.76.78a34.85,34.85,0,0,0,14.38-4.43C223.56,214.06,225.3,212.42,226.09,212.8Z" transform="translate(-22.02 -49.48)" opacity="0.36" fill="url(#linear-gradient-11)" style="isolation:isolate"/><path d="M202.67,231.69c26.05-5.69,47.33-25.24,73.25-31.47a75.81,75.81,0,0,1,37.26.5c7.41,2,14.47,5.1,21.88,7.09a84.62,84.62,0,0,0,31.1,2.12c12.3-1.36,26.45-4.57,35.71,3.64,5.65,5,7.6,13,7.85,20.57.35,10.51-2.57,21.93-10.93,28.31-6.6,5-15.33,6.06-23.6,6.65-59.36,4.22-118.9-5-178.39-3.65-17.67.39-35.48,1.71-52.93-1.08-8.22-1.31-16.61-3.7-22.84-9.23s-9.66-14.87-6.28-22.47a10.78,10.78,0,0,1,4-4.87c2.88-1.79,6.51-1.63,9.89-1.36C152.76,228.38,178.56,237,202.67,231.69Z" transform="translate(-22.02 -49.48)" fill="#2c81db" opacity="0.7"/><path d="M398.79,262.45c-6.6,5-15.33,6.06-23.6,6.65-9.26.66-18.51,1-27.78,1.08-50.15.53-100.4-5.85-150.61-4.73-17.67.39-35.48,1.71-52.93-1.08-2-.31-3.93-.68-5.88-1.15-6.22-1.48-12.22-3.87-17-8.08-5-4.42-8.17-11.28-7.53-17.74a15.56,15.56,0,0,1,1.25-4.73,10.78,10.78,0,0,1,4-4.87c2.88-1.79,6.51-1.63,9.89-1.36,24.13,1.94,49.93,10.52,74,5.25,26.05-5.69,47.33-25.24,73.25-31.47a75.81,75.81,0,0,1,37.26.5c7.41,2,14.47,5.1,21.88,7.09a84.62,84.62,0,0,0,31.1,2.12c12.14-1.34,26.09-4.49,35.35,3.34l.36.3c5.65,5,7.6,13,7.85,20.57C410.07,244.65,407.15,256.07,398.79,262.45Z" transform="translate(-22.02 -49.48)" fill="url(#linear-gradient-12)"/><circle cx="316.46" cy="148.03" r="7.79" fill="url(#linear-gradient-13)"/><circle cx="231.77" cy="200.28" r="7.79" fill="url(#linear-gradient-14)"/><circle cx="350.54" cy="156.65" r="7.79" fill="url(#linear-gradient-15)"/><circle cx="365.44" cy="118.5" r="5.66" fill="url(#linear-gradient-16)"/><circle cx="163.21" cy="184.69" r="7.79" fill="url(#linear-gradient-17)"/><circle cx="89.63" cy="124.56" r="7.79" fill="url(#linear-gradient-18)"/><circle cx="335.25" cy="148.03" r="3.1" fill="url(#linear-gradient-19)"/><circle cx="178.73" cy="189.83" r="2.66" fill="url(#linear-gradient-20)"/><circle cx="362.77" cy="138" r="2.66" fill="url(#linear-gradient-21)"/><path d="M227.92,242.58c20.37-4.45,37-19.74,57.3-24.62a59.43,59.43,0,0,1,29.15.39c5.8,1.56,11.32,4,17.12,5.55a66,66,0,0,0,24.33,1.66c9.62-1.06,20.69-3.57,27.93,2.85,4.42,3.92,5.95,10.19,6.15,16.09.27,8.22-2,17.16-8.55,22.14-5.16,3.94-12,4.75-18.47,5.21-46.44,3.3-93-3.9-139.56-2.86-13.82.31-27.75,1.34-41.41-.84-6.43-1-13-2.89-17.86-7.22s-7.56-11.63-4.92-17.58a8.47,8.47,0,0,1,3.13-3.81c2.25-1.4,5.09-1.27,7.73-1.06C188.87,240,209.05,246.7,227.92,242.58Z" transform="translate(-22.02 -49.48)" fill="url(#linear-gradient-22)"/><path d="M104.79,209.87c-2.57-4-4.49-8.39-7.23-12.26C91.42,189,80.07,183.33,70,186.53,57.11,190.59,51.56,206.09,40,213c-4.28,2.56-9.34,3.92-13,7.33-6.13,5.74-6.23,15.86-2.39,23.33s10.73,12.82,17.59,17.66a330.94,330.94,0,0,0,34,21c8.63,4.65,17.53,9,25.17,15.11,9.25,7.44,16.48,17.44,26.77,23.36,12.62,7.26,28,7.37,42.54,7,7.77-.17,16.9-1.18,20.78-7.9,4.11-7.11-.4-16.21-6.22-22-7.85-7.78-17.93-12.81-27.07-19s-17.86-14.34-20.5-25.07c-1.19-4.85-1.07-10-2.48-14.75C130.81,224.21,112.9,222.5,104.79,209.87Z" transform="translate(-22.02 -49.48)" fill="url(#linear-gradient-23)"/><path d="M231.74,182.85c3.41-6.21-22.76-56-52.85-71.34-30.28-15.41-52.07-28.67-52.74-29.08h0s1.41-2.81,13.05,2.82,58.54,28.9,58.54,28.9S233,156.94,235.66,166C238,173.87,233,181.2,231.74,182.85Z" transform="translate(-22.02 -49.48)" fill="url(#linear-gradient-24)"/></svg>