<svg id="Layer_1" data-name="Layer 1" xmlns="http://www.w3.org/2000/svg" xmlns:xlink="http://www.w3.org/1999/xlink" viewBox="0 0 788.51 533.32"><defs><linearGradient id="linear-gradient" x1="400.81" y1="370.36" x2="387.57" y2="413.44" gradientUnits="userSpaceOnUse"><stop offset="0" stop-opacity="0"/><stop offset="0.91" stop-opacity="0.8"/><stop offset="1"/></linearGradient><linearGradient id="linear-gradient-2" x1="427.86" y1="423.93" x2="454.31" y2="423.93" gradientTransform="matrix(1, 0, 0, -1, -18.96, 516.62)" gradientUnits="userSpaceOnUse"><stop offset="0" stop-color="#ecc4d7"/><stop offset="0.42" stop-color="#efd4d1"/><stop offset="1" stop-color="#f2eac9"/></linearGradient><linearGradient id="linear-gradient-3" x1="422.44" y1="110.45" x2="396.34" y2="49.82" xlink:href="#linear-gradient"/><linearGradient id="linear-gradient-4" x1="374.25" y1="225.24" x2="268.39" y2="234.81" xlink:href="#linear-gradient"/><linearGradient id="linear-gradient-5" x1="382.14" y1="427.43" x2="431.2" y2="427.43" xlink:href="#linear-gradient-2"/><linearGradient id="linear-gradient-6" x1="429.71" y1="420.39" x2="434.88" y2="410.22" xlink:href="#linear-gradient-2"/><linearGradient id="linear-gradient-7" x1="358.88" y1="210.7" x2="385.76" y2="210.7" xlink:href="#linear-gradient-2"/><linearGradient id="linear-gradient-8" x1="377.66" y1="113.02" x2="379.16" y2="238.4" xlink:href="#linear-gradient"/><linearGradient id="linear-gradient-9" x1="389.64" y1="105.03" x2="413.86" y2="207.23" gradientUnits="userSpaceOnUse"><stop offset="0" stop-opacity="0"/><stop offset="0.87" stop-opacity="0.74"/><stop offset="0.91" stop-opacity="0.8"/><stop offset="1"/></linearGradient><linearGradient id="linear-gradient-10" x1="389.49" y1="119.17" x2="395.13" y2="204.2" xlink:href="#linear-gradient"/><linearGradient id="linear-gradient-11" x1="443.58" y1="325.67" x2="402.56" y2="181.21" gradientTransform="matrix(1, 0, 0, -1, -18.96, 516.62)" xlink:href="#linear-gradient"/><linearGradient id="linear-gradient-12" x1="449.23" y1="152.57" x2="410.94" y2="213.76" xlink:href="#linear-gradient"/><linearGradient id="linear-gradient-13" x1="443.98" y1="148.99" x2="459.37" y2="50.63" xlink:href="#linear-gradient"/><linearGradient id="linear-gradient-14" x1="616.11" y1="336.15" x2="763.65" y2="470.17" xlink:href="#linear-gradient"/><linearGradient id="linear-gradient-15" x1="657.79" y1="322.86" x2="809.27" y2="379.17" xlink:href="#linear-gradient"/></defs><title>10. Busy</title><g opacity="0.18"><path d="M768.55,444.62A107.8,107.8,0,0,1,766,460.08a.27.27,0,0,1,0,.19C754,509,707.08,535.42,617.62,533c-152-4.17-349.85-49.76-466.47-27C91.7,517.62,49.58,494,25.32,460.27l-.14-.19h0a130.68,130.68,0,0,1-9.56-15.46C.23,415.26-3.3,381.77,5.33,357.75c20.83-58,64.56-81.72,70.81-147.94s-13.53-96.49,64.55-167c0,0,82.78-67.16,170.77-21.38,73.47,38.23,119,35.26,149,24.21h.11C479,38.89,491.46,29.07,501,23.9,526,10.3,646.74-42.32,698.8,72.49c42.54,93.83,7.21,117.36,23.55,194.1.48,2.25,1,4.54,1.58,6.89.42,1.75.88,3.53,1.36,5.34h0c1.37,5.15,3,10.53,4.83,16.18,3.27,9.94,7.35,20.7,12.4,32.43.06.13.12.27.17.4a384,384,0,0,1,19.59,56.11A206.9,206.9,0,0,1,769,427.13,134.34,134.34,0,0,1,768.55,444.62Z" transform="translate(0 0.01)" fill="#2c81db" opacity="0.22" style="isolation:isolate"/></g><g opacity="0.18"><path d="M768.55,444.62A107.8,107.8,0,0,1,766,460.08a.27.27,0,0,1,0,.19C754,509,707.08,535.42,617.62,533c-152-4.17-349.85-49.76-466.47-27C91.7,517.62,49.58,494,25.32,460.27l-.14-.19h0a130.68,130.68,0,0,1-9.56-15.46C.23,415.26-3.3,381.77,5.33,357.75c20.83-58,64.56-81.72,70.81-147.94s-13.53-96.49,64.55-167c0,0,82.78-67.16,170.77-21.38,73.47,38.23,119,35.26,149,24.21h.11C479,38.89,491.46,29.07,501,23.9,526,10.3,646.74-42.32,698.8,72.49c42.54,93.83,7.21,117.36,23.55,194.1.48,2.25,1,4.54,1.58,6.89.42,1.75.88,3.53,1.36,5.34h0c1.37,5.15,3,10.53,4.83,16.18,3.27,9.94,7.35,20.7,12.4,32.43.06.13.12.27.17.4a384,384,0,0,1,19.59,56.11A206.9,206.9,0,0,1,769,427.13,134.34,134.34,0,0,1,768.55,444.62Z" transform="translate(0 0.01)" fill="#2c81db" opacity="0.22" style="isolation:isolate"/></g><g opacity="0.18"><path d="M767.83,444.62a107,107,0,0,1-2.55,15.51v.19c-12,48.75-58.91,75.15-148.37,72.7-152-4.17-349.85-49.76-466.47-27C91,517.62,48.86,494,24.6,460.27l-.14-.19h0a130.68,130.68,0,0,1-9.56-15.46C-.49,415.26-4,381.77,4.61,357.75c20.83-58,64.56-81.72,70.81-147.94S61.89,113.32,140,42.85c0,0,82.78-67.16,170.77-21.38,73.47,38.23,119,35.26,149,24.21h.11c18.38-6.79,30.89-16.61,40.39-21.78C525.23,10.27,646-42.38,698,72.46c42.54,93.83,7.21,117.36,23.55,194.1.48,2.25,1,4.54,1.58,6.89.42,1.75.88,3.53,1.36,5.34h0c1.37,5.15,3,10.53,4.83,16.18,3.27,9.94,7.35,20.7,12.4,32.43.06.13.12.27.17.4a384,384,0,0,1,19.59,56.11,206.9,206.9,0,0,1,6.69,43.19A133.08,133.08,0,0,1,767.83,444.62Z" transform="translate(0 0.01)" fill="#2c81db" opacity="0.22" style="isolation:isolate"/></g><path d="M607,273.45s11.94-15,32.58-18.77,80.15-3,80.15-3l2.63,14.86Z" transform="translate(0 0.01)" fill="#2c81db"/><path d="M768.55,444.62A107.8,107.8,0,0,1,766,460.08a.27.27,0,0,1,0,.19H25.32l-.14-.19h0a130.68,130.68,0,0,1-9.56-15.46Z" transform="translate(0 0.01)" fill="#2c81db" opacity="0.27" style="isolation:isolate"/><rect x="553.79" y="378.21" width="49.22" height="71.19" rx="12.66" fill="#3f3d56"/><path d="M765.72,460.27c-11.92,48.87-58.84,75.34-148.41,72.89-152-4.17-349.86-49.76-466.48-27C91.31,517.83,49.14,494.05,24.9,460.27Z" transform="translate(0 0.01)" fill="#2c81db" opacity="0.27" style="isolation:isolate"/><polygon points="131.45 460.28 53.74 479.24 107.8 478.68 182.22 460.4 131.45 460.28" fill="#fff"/><polygon points="252.71 460.28 175 479.24 229.06 478.68 303.48 460.4 252.71 460.28" fill="#fff"/><polygon points="373.97 460.28 296.26 479.24 350.32 478.68 424.74 460.4 373.97 460.28" fill="#fff"/><polygon points="495.23 460.28 417.52 479.24 471.57 478.68 545.99 460.4 495.23 460.28" fill="#fff"/><polygon points="616.49 460.28 538.77 479.24 592.83 478.68 667.25 460.4 616.49 460.28" fill="#fff"/><polygon points="737.74 460.28 660.03 479.24 714.09 478.68 788.51 460.4 737.74 460.28" fill="#fff"/><path d="M612.87,460.27c-18.77,6.66-38.13,11.85-57.4,17-21.28,5.7-42.77,11.42-64.79,12.3a149.3,149.3,0,0,1-39.53-3.73c-4.25-1-8.52-2.15-12.88-2.12-7.84.08-15,4-22.33,6.9-20,7.85-42.08,7.72-63.55,7.49l-91.67-1c-16.45-.18-34.66-1-46.45-12.52-1.62-1.57-3.18-3.58-3-5.85.31-4.05,5.43-5.51,9.47-5.94,23.52-2.51,47.13-4.58,70.58-7.68,9.3-1.23,18.49-3,27.65-4.85Z" transform="translate(0 0.01)" fill="#000405" opacity="0.05" style="isolation:isolate"/><polygon points="423.52 274.16 396.69 371.82 340.86 449.39 323.36 437.54 362.16 361.49 355.65 284.77 410.66 261.18 423.52 274.16" fill="#25233a"/><path d="M469.85,439.93l-19.58,11.86s-20-68.09-33.92-88.57C384,315.62,357.57,284,357.57,284L404,261.46l.58-.29L413.77,282l37,64.17,4.68,20.61Z" transform="translate(0 0.01)" fill="#3f3d56"/><polygon points="312.57 365.34 307.7 406.37 387.6 415.93 404.34 413.88 397.22 340.02 393.06 335.31 312.57 365.34" fill="#3f3d56"/><polygon points="388.37 414.31 392.95 350.07 396.93 342.11 402.06 412.17 388.37 414.31" fill="url(#linear-gradient)"/><path d="M340.92,314.09s-6.78,4-7.12,15.4h5.12s.34-8.37,4.27-9.22Z" transform="translate(0 0.01)" fill="#3f3d56"/><path d="M428,96.43,435.4,105l-8.92,8.26L420,107.19l-4.61-1.08a7.68,7.68,0,0,1-5.85-6.28c-.12-.73-.27-1.45-.46-2.16-1-3.79,3-26.31,5.5-25.53,5.72,1.83,7.65,15.15,9.36,16.17S428,96.43,428,96.43Z" transform="translate(0 0.01)" fill="url(#linear-gradient-2)"/><path d="M422,99.31c-1.65,1-7.18,3.75-7.18,3.75a4.06,4.06,0,0,1-2.79-.22h0a2,2,0,0,1-.73-.81c-.24-.48-2.4-7-2.4-7l-2.77-7.55-5.48-15,9.49-4a3.24,3.24,0,0,1,4.24,1.74l.06.15,8.93,25.18A3.49,3.49,0,0,1,422,99.31Z" transform="translate(0 0.01)" fill="#2c81db"/><path d="M420.82,98.3c-1.11.52-8.74,4.54-8.74,4.54h0a2,2,0,0,1-.73-.81c-.24-.48-2.4-7-2.4-7l-2.77-7.55-2.35-10.1L412,69l9.68,27.39A2,2,0,0,1,420.82,98.3Z" transform="translate(0 0.01)" fill="url(#linear-gradient-3)"/><path d="M424.66,284.23l-13.32-23.06L396,287.81s-25.53-.24-41.08-3.37l-2-.43c-6-1.4-10.09-3.31-9.66-5.93.4-2.4,2-9.7,3.13-19.46a159.63,159.63,0,0,0,.78-31.82c-.72-8.39-4.41-16.9-7.19-24.61A53.4,53.4,0,0,1,336.89,191c-1.06-8.58-2.07-15.17-2.9-18-1.2-4.13-1.54-10-1.37-16.11.31-12.11,2.58-25.23,3.94-28s13.48-8.29,20.91-11.42c3.33-1.43,5.7-2.36,5.7-2.36h29.72l25.62,14.35s5,31.26,5.7,37.76c.66,6.34-7.56,33.17-8.26,40.3C414.23,225.3,424.66,284.23,424.66,284.23Z" transform="translate(0 0.01)" fill="#2c81db"/><path d="M373.44,217.44,357.57,284h-4.72c-6-1.4-10.09-3.31-9.66-5.93.77-4.61,6-27.74,3.92-51.28-1.11-12.77-9-25.67-10.25-35.78L356,169.62Z" transform="translate(0 0.01)" fill="url(#linear-gradient-4)"/><path d="M363.17,115.13l35.7,58.07s-1.54-43-3.76-50.55S363.17,115.13,363.17,115.13Z" transform="translate(0 0.01)" fill="#fff"/><path d="M371,95s-4.68,18.86-7.86,20.15A24.86,24.86,0,0,0,379,125.21c3.64.7,18.33,2,16.11-2.56a19.1,19.1,0,0,1-2.22-7.52v-7.51s12,3.75,13.16-1.54,7.17-14.58,6-37.12-35.75-16.63-40.54-13S363.23,81.37,371,95Z" transform="translate(0 0.01)" fill="url(#linear-gradient-5)"/><path d="M382.57,43.16a37,37,0,0,1,8.41-.58A35.33,35.33,0,0,1,404,45c4.09,1.77,7.74,4.94,9.26,9.14a25.64,25.64,0,0,1,1.16,6.67,7.77,7.77,0,0,1-.13,3,2.65,2.65,0,0,1-2.08,1.93c-1.56.16-3-1.56-4.47-1.09-.95.29-1.43,1.33-2.22,1.93-1.65,1.25-4,.27-5.82-.67s-4.32-1.74-5.7-.24c-1.14,1.17-1.21,3.47-2.8,3.84A3.12,3.12,0,0,1,390,69.4c-2.94-.57-6.39-1.18-8.57.86a9,9,0,0,0-2.13,4.44q-.74,2.74-1.46,5.47l-2.9-3.07a2.4,2.4,0,0,0-.88-.67,2,2,0,0,0-2,.93,6.08,6.08,0,0,0,1.52,8.46,6.59,6.59,0,0,0,.76.45,2.65,2.65,0,0,1,1.11.65,1.92,1.92,0,0,1,.32.89c.55,3.21-.6,6.49-2.3,9.26a4.78,4.78,0,0,1-2.49,2.32c-1.12.32-2.57-.47-2.48-1.62l-2.12.76a43.61,43.61,0,0,1-2-9.25c-1.16-8.28-2.32-16.56-2.78-24.9a21.9,21.9,0,0,1,.54-7.65,8.25,8.25,0,0,1,4.9-5.56c1.55-.51,2.62-.58,3.81-1.63A31.12,31.12,0,0,1,374,46.71,24.09,24.09,0,0,1,382.57,43.16Z" transform="translate(0 0.01)" fill="#091240"/><path d="M466.46,176.06c-4.45,0-42.25-8.82-42.25-8.82l-3.45-22.86-2.25-14.9s13.84,8,16.75,11.1,7.68,2,7.68,2l-19.81-26.26L435.35,105l4.17-3.88L457.11,122s11.62,16.06,16.23,26.81a19.07,19.07,0,0,1,1.4,5.81h0C475.65,164.62,470.15,176.06,466.46,176.06Z" transform="translate(0 0.01)" fill="#2c81db"/><path d="M409,97.67s2-4.79,3-5,1.54,4.74.69,5.93-.13,5.08.21,5.43S408.41,101.94,409,97.67Z" transform="translate(0 0.01)" fill="url(#linear-gradient-6)"/><path d="M354.88,284.44l1.12,3.37-16.13,6.27-2.32.91s-28.18-56.88-29.72-64.05,10.25-71.23,28.7-102a49.88,49.88,0,0,1,4.83,3c6.46,4.41,17.4,13.62,20.05,26.77l-21.5,43.5-7.36,14.91,13.77,41.5Z" transform="translate(0 0.01)" fill="#2c81db"/><path d="M353.75,288.69s11.81,10.91,12.67,13.3,0,8.71,0,8.71H364.2l-.51,6.83s-1,4.79-3.42,4.62a24.82,24.82,0,0,0-6.52,1s-8.34-.68-10.56-2.9-3.42-12.63-3.25-15.53,0-11.44,0-11.44Z" transform="translate(0 0.01)" fill="url(#linear-gradient-7)"/><path d="M366.42,310.7s4.21-.34,6.49,9.22,1.82,13,1.82,13h-6.15s-1.47-15.39-4.77-17l.39-5.23Z" transform="translate(0 0.01)" fill="#3f3d56"/><path d="M397.22,340l-3.63,26.55a6.66,6.66,0,0,1-7.22,5.73l-73.8-7a6.63,6.63,0,0,1-6.05-7.17c0-.13,0-.27.05-.4l3.48-24.24a6.65,6.65,0,0,1,7-5.69l74,4.68a6.66,6.66,0,0,1,6.23,7.05C397.26,339.67,397.24,339.84,397.22,340Z" transform="translate(0 0.01)" fill="#3f3d56"/><path d="M457.8,461.52,453,450.09l15-9.1,6.36,14.9s21.09.68,30.65,9.9l4.1,7.86H458Z" transform="translate(0 0.01)" fill="#3f3d56"/><path d="M318,449.22l7.71-9.9,11.68,7.59-4.92,10.41,7.57,14.51s5.59-.23,11.79,5,4.11,6.6,4.11,6.6H325.31L307.7,457.32S314,449.62,318,449.22Z" transform="translate(0 0.01)" fill="#3f3d56"/><path d="M366.35,110s-8.64,0-9.15,5.11l2.73,19,10.42,4.27L368.3,149l30.57,24.25-35.7-58.07A19.42,19.42,0,0,0,366.35,110Z" transform="translate(0 0.01)" fill="#2c81db"/><path d="M398.27,116.67l-5.38-4.61a19.74,19.74,0,0,0,.76,6.92c1.06,2.8,6.08,45.68,5.22,54.22L405,142.62l-5.29-9,2.05-6.49Z" transform="translate(0 0.01)" fill="#2c81db"/><polygon points="386.57 125.96 384.18 132.28 388.79 137.18 387.7 155.08 398.87 173.22 398.07 155.21 391.53 136.5 392.85 131.03 390 125.89 386.57 125.96" fill="#2c81db"/><path d="M366.35,110s-8.64,0-9.15,5.11l2.73,19,10.42,4.27L368.3,149l30.57,24.25-35.7-58.07A19.42,19.42,0,0,0,366.35,110Z" transform="translate(0 0.01)" fill="url(#linear-gradient-8)"/><path d="M398.27,116.67l-5.38-4.61a19.74,19.74,0,0,0,.76,6.92c1.06,2.8,6.08,45.68,5.22,54.22L405,142.62l-5.29-9,2.05-6.49Z" transform="translate(0 0.01)" fill="url(#linear-gradient-9)"/><polygon points="386.57 125.96 384.18 132.28 388.79 137.18 387.7 155.08 398.87 173.22 398.07 155.21 391.53 136.5 392.85 131.03 390 125.89 386.57 125.96" fill="url(#linear-gradient-10)"/><path d="M401.78,178l9.33,14.46.23,68.72,13.32,23.06s-13-57.76-8.71-76.69,2.56-22,2.56-22Z" transform="translate(0 0.01)" fill="url(#linear-gradient-11)"/><path d="M313.62,226.8c2.77,10.78,29.57,65.4,29.57,65.4l-3.32,1.88-2.32.91s-28.18-56.88-29.72-64.05,10.25-71.23,28.7-102c1.41-2.82,13.54-8.33,20.94-11.47l.63,5.55-16.74,8.88s-3.89,10.72-8.77,25C323.8,182.62,311.82,219.87,313.62,226.8Z" transform="translate(0 0.01)" fill="#fff" opacity="0.24" style="isolation:isolate"/><path d="M466.46,176.06c-4.45,0-42.25-8.82-42.25-8.82l-3.45-22.86V144l38.58,17.22s14.78,3.4,15.4-6.6C475.65,164.62,470.15,176.06,466.46,176.06Z" transform="translate(0 0.01)" fill="url(#linear-gradient-12)"/><path d="M442.94,142.62s10.33,18,16.45,18.59a52,52,0,0,0,8.37.31l2.1-12L435.35,105l-12.22,11.34Z" transform="translate(0 0.01)" fill="url(#linear-gradient-13)"/><path d="M469.85,439.93l-5.08,2.95s-19.61-90.77-22-96S402,277.25,402,277.25l2-15.79.58-.29L413.77,282l37,64.17,4.68,20.61Z" transform="translate(0 0.01)" fill="#fff" opacity="0.24" style="isolation:isolate"/><path d="M397.22,340l-3.63,26.55a6.66,6.66,0,0,1-7.22,5.73l-73.8-7a6.7,6.7,0,0,1-5.06-3.15h3.29l66.77,6s9.49.9,11.71-5.61,5.15-28.9,5.15-28.9A6.66,6.66,0,0,1,397.22,340Z" transform="translate(0 0.01)" fill="#fff" opacity="0.24" style="isolation:isolate"/><polygon points="386.37 372.29 381.64 408.35 307.7 406.37 387.6 415.93 391.49 370.57 386.37 372.29" fill="#fff" opacity="0.24" style="isolation:isolate"/><path d="M769,427.12l-193.23-2.75s-6.76-2.82-8.45-8.45-1.69-51.81,0-60.64S583,332.91,583,332.91s13.51-34.12,16.87-48.9,24.68-17.45,24.68-17.45h97.73c.84,3.93,1.81,8,2.94,12.23h0c1.37,5.15,3,10.53,4.83,16.18,3.27,9.94,7.35,20.7,12.4,32.43.06.13.12.27.17.4q5.57,12.93,10,25.16,1.62,4.49,3.08,8.88,3.81,11.37,6.53,22.07a231.26,231.26,0,0,1,5.54,28.71Q768.72,420.11,769,427.12Z" transform="translate(0 0.01)" fill="#2c81db"/><path d="M661.14,119c-4.35-.79-8.84-.91-13-2.26q3.18,4.74,6.37,9.47a56.6,56.6,0,0,0,6.45,8.42c3.53,3.59,8.18,6.27,13.21,6.62a14.63,14.63,0,0,0,10-3c4.28-3.45,1.82-5.52-1.58-8.6A43.64,43.64,0,0,0,661.14,119Z" transform="translate(0 0.01)" fill="#2c81db"/><path d="M615.46,94.49a36,36,0,0,1-2.34,3.86l3.79-.84a19.94,19.94,0,0,0,3.47-1,7.14,7.14,0,0,0,3.74-3.36,5,5,0,0,0,.3-3.55c-.56-1.79-1.52-1.27-2.93-.58A15,15,0,0,0,615.46,94.49Z" transform="translate(0 0.01)" fill="#2c81db"/><path d="M142.87,145.85a49.92,49.92,0,0,1-6.2-1.08l3,4.5a27.51,27.51,0,0,0,3.06,4,10.15,10.15,0,0,0,6.31,3.15,7,7,0,0,0,4.77-1.44c2-1.64.86-2.62-.75-4.09A20.72,20.72,0,0,0,142.87,145.85Z" transform="translate(0 0.01)" fill="#2c81db"/><path d="M115.83,232.91a35.9,35.9,0,0,1-2.34,3.85l3.79-.84a19.94,19.94,0,0,0,3.47-1,7.17,7.17,0,0,0,3.75-3.36,5,5,0,0,0,.29-3.55c-.56-1.79-1.52-1.27-2.92-.58A14.92,14.92,0,0,0,115.83,232.91Z" transform="translate(0 0.01)" fill="#2c81db"/><path d="M742.7,327.82H607a7.07,7.07,0,0,1-7-7.07,7,7,0,0,1,.26-1.88l8-28.64a22.92,22.92,0,0,1,22.09-16.78H724c.42,1.75.88,3.53,1.36,5.34h0c1.37,5.15,3,10.53,4.83,16.18,3.27,9.94,7.35,20.7,12.4,32.43A1.45,1.45,0,0,0,742.7,327.82Z" transform="translate(0 0.01)" fill="#3f3d56"/><path d="M767.81,412.62a10.72,10.72,0,0,1-5.69,1.63H594.92a10.71,10.71,0,0,1-10.72-10.63v-31a10.72,10.72,0,0,1,10.71-10.73H755.76q3.81,11.37,6.53,22.07A230.78,230.78,0,0,1,767.81,412.62Z" transform="translate(0 0.01)" fill="url(#linear-gradient-14)"/><path d="M752.68,353H667.25C654,336.77,607,327.82,607,327.82H742.7Q748.26,340.75,752.68,353Z" transform="translate(0 0.01)" fill="url(#linear-gradient-15)"/><rect x="592.08" y="372.32" width="35.04" height="35.04" rx="10.68" fill="#fff"/><path d="M754.94,382.13H652.78a3.26,3.26,0,0,1-3.26-3.26h0a3.26,3.26,0,0,1,3.26-3.26H754.94a3.26,3.26,0,0,1,3.26,3.26h0a3.26,3.26,0,0,1-3.26,3.26Z" transform="translate(0 0.01)" fill="#2c81db"/><rect x="649.52" y="384.83" width="108.68" height="6.53" rx="3.26" fill="#2c81db"/><path d="M754.94,400.54H652.78a3.26,3.26,0,0,1-3.26-3.26h0a3.26,3.26,0,0,1,3.26-3.26H754.94a3.26,3.26,0,0,1,3.26,3.26h0a3.26,3.26,0,0,1-3.26,3.26Z" transform="translate(0 0.01)" fill="#2c81db"/><path d="M679.84,251.93l4.2-11.67a10.21,10.21,0,0,1,9.62-6.79h24.23l1.87,18.23Z" transform="translate(0 0.01)" fill="#fff"/><polygon points="708.27 233.48 716.72 251.95 719.72 251.72 717.85 233.48 708.27 233.48" fill="#222a72" opacity="0.16" style="isolation:isolate"/></svg>