<svg id="Layer_1" data-name="Layer 1"
    xmlns="http://www.w3.org/2000/svg"
    xmlns:xlink="http://www.w3.org/1999/xlink" viewBox="0 0 459.3 367.32">
    <defs>
        <linearGradient id="linear-gradient" x1="101.98" y1="220.24" x2="190.22" y2="220.24" gradientUnits="userSpaceOnUse">
            <stop offset="0" stop-opacity="0"/>
            <stop offset="0.99"/>
        </linearGradient>
        <linearGradient id="linear-gradient-2" x1="168.97" y1="290.76" x2="231.79" y2="290.76" xlink:href="#linear-gradient"/>
        <linearGradient id="linear-gradient-3" x1="271.85" y1="69.17" x2="204.88" y2="153.15" xlink:href="#linear-gradient"/>
        <linearGradient id="linear-gradient-4" x1="242.81" y1="129.08" x2="260.67" y2="147.9" xlink:href="#linear-gradient"/>
        <linearGradient id="linear-gradient-5" x1="229.57" y1="101.95" x2="344.78" y2="205.56" xlink:href="#linear-gradient"/>
        <linearGradient id="linear-gradient-6" x1="411.55" y1="92.31" x2="448.71" y2="123.2" xlink:href="#linear-gradient"/>
        <linearGradient id="linear-gradient-7" x1="212.14" y1="181.45" x2="314.31" y2="181.45" xlink:href="#linear-gradient"/>
        <linearGradient id="linear-gradient-8" x1="287.8" y1="108.96" x2="41.77" y2="135.69" xlink:href="#linear-gradient"/>
        <linearGradient id="linear-gradient-9" x1="216.81" y1="72.99" x2="226.77" y2="72.99" gradientUnits="userSpaceOnUse">
            <stop offset="0" stop-color="#e5c5d5"/>
            <stop offset="0.42" stop-color="#ead4d1"/>
            <stop offset="1" stop-color="#f0e9cb"/>
        </linearGradient>
        <linearGradient id="linear-gradient-10" x1="216.32" y1="60.95" x2="235.89" y2="60.95" xlink:href="#linear-gradient-9"/>
        <linearGradient id="linear-gradient-11" x1="216.67" y1="36.52" x2="213.89" y2="66.55" xlink:href="#linear-gradient"/>
        <linearGradient id="linear-gradient-12" x1="280.47" y1="86.4" x2="297.91" y2="86.4" xlink:href="#linear-gradient-9"/>
        <linearGradient id="linear-gradient-13" x1="-1514.82" y1="-432.12" x2="-1497.46" y2="-432.12" gradientTransform="translate(1399.54 1202.26) rotate(28.24)" xlink:href="#linear-gradient-9"/>
        <linearGradient id="linear-gradient-14" x1="317.13" y1="57.03" x2="315.68" y2="134.25" xlink:href="#linear-gradient"/>
        <linearGradient id="linear-gradient-15" x1="314.39" y1="62.4" x2="320.7" y2="69.61" xlink:href="#linear-gradient"/>
        <linearGradient id="linear-gradient-16" x1="304.83" y1="218.55" x2="314.56" y2="218.55" xlink:href="#linear-gradient-9"/>
        <linearGradient id="linear-gradient-17" x1="205.63" y1="284.99" x2="52.15" y2="290.3" gradientUnits="userSpaceOnUse">
            <stop offset="0.02" stop-color="#fff" stop-opacity="0"/>
            <stop offset="0.58" stop-color="#fff" stop-opacity="0.39"/>
            <stop offset="0.68" stop-color="#fff" stop-opacity="0.68"/>
            <stop offset="1" stop-color="#fff"/>
        </linearGradient>
        <linearGradient id="linear-gradient-18" x1="224.82" y1="241.94" x2="89.68" y2="291.65" xlink:href="#linear-gradient-17"/>
        <linearGradient id="linear-gradient-19" x1="247.49" y1="79.03" x2="218.53" y2="148.16" xlink:href="#linear-gradient-17"/>
        <linearGradient id="linear-gradient-20" x1="304.84" y1="156.51" x2="325.11" y2="304.19" xlink:href="#linear-gradient"/>
    </defs>
    <title>Fast Working</title>
    <path d="M369.69,29.35c-10.32-3.75-19.73-9.67-30-13.51-13.94-5.2-29-6.44-43.92-6.42-48.11,0-97.19,13.41-134.79,43.42C146,64.77,132.54,79.46,114.61,86.11c-14.19,5.28-30.87,5.41-42.35,15.28-12.84,11-14.43,30.19-13.28,47.09s3.9,34.75-3.32,50.07c-4.24,9-11.51,16.11-17.47,24.07a94.39,94.39,0,0,0,30,139.16c23.61,13,51.6,15.36,78.57,14.91,24.62-.41,50.37-3.3,70.8-17.05,13.16-8.87,23.5-21.87,37.79-28.77,17.23-8.3,37.33-6.48,56.46-6.6,22.66-.16,45.88-3.52,65.65-14.6s35.6-30.91,37.4-53.49c1.37-17.33-5.28-35.4.53-51.77,2.21-6.23,6.1-11.72,10.27-16.84C441,168.66,461.31,153,471,130.6c5.25-12.12,7-25.47,7.62-38.66.76-16.61-1.48-35.75-15.11-45.29C451.15,38,435.93,42,422,40,404.88,37.51,386,35.25,369.69,29.35Z" transform="translate(-19.46 -9.42)" fill="#2c81db" opacity="0.18" style="isolation:isolate"/>
    <path d="M187.74,201s-44.24-10.85-73.88,13.77,4.18,14.2,15,17.54,27.13,9.6,27.13,9.6S201.1,220.6,187.74,201Z" transform="translate(-19.46 -9.42)" fill="#3e3e54"/>
    <path d="M187.74,201s-44.24-10.85-73.88,13.77,4.18,14.2,15,17.54,27.13,9.6,27.13,9.6S201.1,220.6,187.74,201Z" transform="translate(-19.46 -9.42)" fill="url(#linear-gradient)"/>
    <path d="M172.24,271.24s27.83-18.36,45.08-12.8l14.47,4.45s-8.9,56.22-58.44,61.23c0,0-10.57,1.11,1.12-18.37S172.24,271.24,172.24,271.24Z" transform="translate(-19.46 -9.42)" fill="#3e3e54"/>
    <path d="M172.24,271.24s27.83-18.36,45.08-12.8l14.47,4.45s-8.9,56.22-58.44,61.23c0,0-10.57,1.11,1.12-18.37S172.24,271.24,172.24,271.24Z" transform="translate(-19.46 -9.42)" fill="url(#linear-gradient-2)"/>
    <path d="M249.75,88.06a22.12,22.12,0,0,0,6.35,2.22c3.27.43,6.52-.61,9.69-1.5A113.58,113.58,0,0,1,277,86.25c2.08-.35,4.51-.54,6,1s1.19,4.2-.11,5.91-3.31,2.69-5.25,3.62l-11.38,5.43a35.83,35.83,0,0,1-6.08,2.46c-8.67,2.34-17.67-2-25.22-6.83-2.91-1.88-6.06-4.36-6.18-7.82a11.43,11.43,0,0,1,.84-4A9.09,9.09,0,0,1,232,81.85C235.44,78.88,246.28,86.43,249.75,88.06Z" transform="translate(-19.46 -9.42)" fill="#2c81db"/>
    <path d="M249.51,88.18a22.12,22.12,0,0,0,6.35,2.22c3.27.43,6.52-.61,9.69-1.5a110.77,110.77,0,0,1,11.25-2.52c2.07-.36,4.51-.55,6,1s1.19,4.19-.11,5.9-3.31,2.69-5.25,3.62l-11.38,5.43a35.83,35.83,0,0,1-6.08,2.46c-8.67,2.34-17.67-2-25.22-6.83-2.91-1.87-6.06-4.36-6.18-7.82a11.11,11.11,0,0,1,.84-4A9.12,9.12,0,0,1,231.72,82C235.2,79,246,86.56,249.51,88.18Z" transform="translate(-19.46 -9.42)" fill="url(#linear-gradient-3)"/>
    <path d="M272.37,130.29c-3.23,5-7.38,9.41-11.5,13.74s-8.24,8.59-13.72,10.62c-2.7,1-5.9,1.34-8.36-.18-2.67-1.64-3.77-5.15-3.27-8.25a16.61,16.61,0,0,1,4.43-8.17,44.44,44.44,0,0,1,5.66-5.81c2.26-1.72,4.66-1.63,7.61-1.84A144,144,0,0,1,272.37,130.29Z" transform="translate(-19.46 -9.42)" fill="#3e3e54"/>
    <path d="M272.37,130.29c-3.23,5-7.38,9.41-11.5,13.74s-8.24,8.59-13.72,10.62c-2.7,1-5.9,1.34-8.36-.18-2.67-1.64-3.77-5.15-3.27-8.25a16.61,16.61,0,0,1,4.43-8.17,44.44,44.44,0,0,1,5.66-5.81c2.26-1.72,4.66-1.63,7.61-1.84A144,144,0,0,1,272.37,130.29Z" transform="translate(-19.46 -9.42)" fill="url(#linear-gradient-4)"/>
    <path d="M442.48,85.5a68.2,68.2,0,0,1-1.58,7.17,163.82,163.82,0,0,1-14.62,35.51c-13.92,25.53-39.42,59-85.66,90-72.6,48.86-136.32,57-159.83,58.23-6.22.35-9.63.22-9.63.22l-21.29-33s24-35.73,67.32-73.2h0a394.33,394.33,0,0,1,64.71-45.76,368,368,0,0,1,42.76-20.58,287.73,287.73,0,0,1,62.66-17.73C422.13,80.94,442.48,85.5,442.48,85.5Z" transform="translate(-19.46 -9.42)" fill="#2c81db"/>
    <path d="M271.85,139.12c-1,1.85,2.11,7.75,3.81,9s3.78,2,5,3.74a2.63,2.63,0,0,1,.53,2.19c-.32,1.12-1.6,1.62-2.71,2l-29.84,9.18a4.8,4.8,0,0,0-2.22,1.13c-1.2,1.28-.6,3.52.77,4.59a8,8,0,0,0,5,1.24c9.65,0,20.25-4,28.33,1.24a24.26,24.26,0,0,1,5.89,6,83,83,0,0,1,12.9,25.07c.87,2.78,1.59,5.81.59,8.55a26.28,26.28,0,0,1-11.68-9.39c-3.62-5.28-5.48-12.06-10.75-15.68-3.85-2.65-8.83-3-13.49-2.61s-9.25,1.56-13.92,1.62c-10.4.13-20-5-29.16-10-1.91-1-4.08-2.49-4.12-4.67a3.62,3.62,0,0,1,.42-1.72h0a394.33,394.33,0,0,1,64.71-45.76,368,368,0,0,1,42.76-20.58C328.63,109.89,272.28,138.35,271.85,139.12Z" transform="translate(-19.46 -9.42)" fill="url(#linear-gradient-5)"/>
    <path d="M442.11,85.86s-2.47,17.5-16.2,42.68a131.42,131.42,0,0,1-13-4.84c-17.42-7.46-24.6-31.85-25.92-36.91C421.76,81.31,442.11,85.86,442.11,85.86Z" transform="translate(-19.46 -9.42)" fill="url(#linear-gradient-6)"/>
    <circle cx="339.79" cy="124.24" r="16.6" fill="#3e3e54" opacity="0.31"/>
    <circle cx="295.96" cy="149.7" r="16.6" fill="#3e3e54" opacity="0.31"/>
    <circle cx="247.96" cy="182.26" r="16.6" fill="#3e3e54" opacity="0.31"/>
    <polygon points="134.03 223.27 161.86 267.79 146.83 273.36 124.01 234.96 134.03 223.27" fill="#3e3e54"/>
    <path d="M235,179.59c13.15,3.18,26.87-.25,40.14-2.9a8,8,0,0,1,4.18-.06c1.57.55,2.62,2,3.54,3.39a115.68,115.68,0,0,1,11.39,22.19c1.8,4.69,3.49,9.79,7.49,12.83s11.14,2.36,12.59-2.45c-6.83-19.21-15.24-37.81-23.64-56.39-.76-1.68-1.6-3.46-3.16-4.45a9.6,9.6,0,0,0-4.43-1.11l-47.36-4.09c-10.64-.92-26.64-2.33-23.07,12.47C215.13,169.34,225,177.17,235,179.59Z" transform="translate(-19.46 -9.42)" fill="#3e3e54"/>
    <path d="M235,179.59c13.15,3.18,26.87-.25,40.14-2.9a8,8,0,0,1,4.18-.06c1.57.55,2.62,2,3.54,3.39a115.68,115.68,0,0,1,11.39,22.19c1.8,4.69,3.49,9.79,7.49,12.83s11.14,2.36,12.59-2.45c-6.83-19.21-15.24-37.81-23.64-56.39-.76-1.68-1.6-3.46-3.16-4.45a9.6,9.6,0,0,0-4.43-1.11l-47.36-4.09c-10.64-.92-26.64-2.33-23.07,12.47C215.13,169.34,225,177.17,235,179.59Z" transform="translate(-19.46 -9.42)" fill="url(#linear-gradient-7)"/>
    <path d="M246.88,138.65c0,3.23,0,6.57-1.45,9.47-1.85,3.8-5.84,6.19-10,7.16a27.12,27.12,0,0,1-4,.59,65.18,65.18,0,0,1-8.61-.19c-5.49-.36-11.72-1.11-15-5.53-2.3-3.11-2.5-7.25-2.59-11.12-.24-10.58-.29-21.16-.37-31.74,0-6.05-2.45-14.21-1.59-20a13.36,13.36,0,0,1,8.37-10.82c8.11-3.47,19.89-.92,25.64,5.69,4.61,5.28,6.39,12.43,7.47,19.36C246.72,113.75,246.87,126.23,246.88,138.65Z" transform="translate(-19.46 -9.42)" fill="#2c81db"/>
    <path d="M228.84,118.49q.78,12,.84,24a42.8,42.8,0,0,0,.32,6.6c.27,1.67,1.34,3.21,1.53,4.79a6.57,6.57,0,0,1-.06,2,65.18,65.18,0,0,1-8.61-.19c-5.49-.36-11.72-1.11-15-5.53-2.3-3.11-2.5-7.25-2.59-11.12-.24-10.58-.29-21.16-.37-31.74,0-6.05-2.45-14.21-1.59-20a13.36,13.36,0,0,1,8.37-10.82,11.33,11.33,0,0,1,1.86.8c3.51,1.86,6.16,5,8.58,8.16a25.78,25.78,0,0,1,3.2,5.11A26.61,26.61,0,0,1,227,98c.62,5.25,1.12,10.52,1.53,15.8.22,2.82-.53,4.6,2.51,5.14a58.58,58.58,0,0,0,7.82.83c2.67.12,5.83-.19,7.24-2.46a5.18,5.18,0,0,0-.45-5.59,9.91,9.91,0,0,0-4.83-3.3c-1.86-.68-3.82-1.06-5.7-1.69a14,14,0,0,1-5.17-2.89,8,8,0,0,1-2.66-5.19" transform="translate(-19.46 -9.42)" fill="url(#linear-gradient-8)"/>
    <path d="M216.86,74.79a9.56,9.56,0,0,0,.12,2.88c.59,2.35,2.83,3.89,5.05,4.86,1.37.6,3.2,1,4.19-.15.77-.89.58-2.23.34-3.39l-1.32-6.31a21.09,21.09,0,0,0-1.15-4.13c-.58-1.35-4.41-6.85-6.35-5.45-.81.58-.47,4.54-.52,5.53Z" transform="translate(-19.46 -9.42)" fill="url(#linear-gradient-9)"/>
    <path d="M217.06,63.28a16,16,0,0,0,3.46,7.07,10.41,10.41,0,0,0,6.89,3.58,4.73,4.73,0,0,0,2.82-.55,6.46,6.46,0,0,0,2.21-3.25c2.27-5.51,4.57-11.57,2.85-17.29a7,7,0,0,0-3.1-4.29,7.71,7.71,0,0,0-5.26-.29c-3,.68-7.5,2.24-9.44,4.8S216.4,60.47,217.06,63.28Z" transform="translate(-19.46 -9.42)" fill="url(#linear-gradient-10)"/>
    <path d="M228.07,38.45a13.69,13.69,0,0,0-13.65,1.41c-2.52,1.89-4.32,4.61-6.89,6.42-2.42,1.71-5.35,2.49-8.06,3.69-.33.14-.7.35-.76.7-.1.54.53.89.78,1.38.38.75-.23,1.61-.8,2.24l-3.26,3.56a2.36,2.36,0,0,0-.77,1.34c-.11,1.37,1.83,1.76,3.2,1.64l4.52-.4a25.68,25.68,0,0,0-6.78,6.69c1,1.06,2.85.56,4.08-.25s2.4-2,3.86-1.92c-2.19,3.53,4.67,3.39,6.72,3.34a12.81,12.81,0,0,0,5-1.36,5.93,5.93,0,0,0,2-1.29,2.44,2.44,0,0,0,.7-2.19,6.28,6.28,0,0,0-.43-1,4.68,4.68,0,0,1,.06-4c.1-.19.23-.4.45-.43a.72.72,0,0,1,.49.17l1.51,1a7.7,7.7,0,0,1,7.32-8c3.12-.17,8.83,1.37,8.08-3.72C234.84,43.65,231.48,40,228.07,38.45Z" transform="translate(-19.46 -9.42)" fill="#3e3e54"/>
    <path d="M233.07,51.14A3.36,3.36,0,0,0,233,45a8.67,8.67,0,0,0-4.7-1,18,18,0,0,0-7.94,1.65c-3.4,1.7-5.86,4.83-9,7a28.33,28.33,0,0,1-8.65,3.61,9.23,9.23,0,0,0-3.9,1.64c-.18.17-.36.4-.28.63a.74.74,0,0,0,.24.26,3.22,3.22,0,0,0,2.66.45c.52-.14,1-.42,1.48-.6a9.55,9.55,0,0,1,4.57,0,14.78,14.78,0,0,0,6.35-.17,28.06,28.06,0,0,0,5-2.5,4.19,4.19,0,0,1,2-.42,8.09,8.09,0,0,0-.77,3.59l-1.51-1A.72.72,0,0,0,218,58c-.21,0-.35.24-.45.43a4.72,4.72,0,0,0-.06,4,5.44,5.44,0,0,1,.42,1,2.38,2.38,0,0,1-.68,2.19,6.49,6.49,0,0,1-2,1.3,13,13,0,0,1-5,1.35c-2,0-8.89.19-6.71-3.34-1.46,0-2.7,1.17-3.86,1.92s-3,1.3-4.08.25a25.53,25.53,0,0,1,6.78-6.69l-4.52.4c-1.38.12-3.31-.27-3.2-1.64a2.4,2.4,0,0,1,.76-1.34l3.27-3.56c.57-.63,1.18-1.49.8-2.24-.25-.49-.88-.85-.78-1.38.06-.36.43-.56.76-.71,2.7-1.19,5.64-2,8.06-3.67,2.58-1.81,4.38-4.55,6.89-6.42a13.65,13.65,0,0,1,13.65-1.42c3.4,1.59,6.77,5.2,7.33,9C235.75,49.9,234.66,50.82,233.07,51.14Z" transform="translate(-19.46 -9.42)" fill="url(#linear-gradient-11)"/>
    <path d="M289.59,81.6c2.83-.65,6.13,0,7.92,2.3a1.63,1.63,0,0,1,.4.92.58.58,0,0,1-.53.65h-2.09a21.7,21.7,0,0,0-3.92,3.08,13.5,13.5,0,0,1-5.95,2.79c-2.9.57-6.5-1.4-4.25-4.55C282.93,84.32,286.69,82.27,289.59,81.6Z" transform="translate(-19.46 -9.42)" fill="url(#linear-gradient-12)"/>
    <path d="M284.57,107.37a3.3,3.3,0,0,1,1.81,2.35.92.92,0,0,1-.09.49c-.27.46-.94.35-1.47.26-3.45-.62-6.73,2.07-10.24,2a6.2,6.2,0,0,1-4.26-1.85c-1-1.07-2-3.09-1.44-4.59.59-1.72,2.59-1.75,4.15-1.8A20.06,20.06,0,0,1,284.57,107.37Z" transform="translate(-19.46 -9.42)" fill="url(#linear-gradient-13)"/>
    <path d="M307.4,69.88,321,59.59s3.34-1.12,4.46.28-.14,44.06-.14,44.06l-16.84,7.93Z" transform="translate(-19.46 -9.42)" fill="#2c81db"/>
    <path d="M307.6,70l13.63-10.29s3.34-1.12,4.46.28-.34,44-.34,44l-16.64,8Z" transform="translate(-19.46 -9.42)" fill="url(#linear-gradient-14)"/>
    <path d="M311.63,69.8,325.69,60s-2.51-1.81-4.46-.28S307.6,70,307.6,70Z" transform="translate(-19.46 -9.42)" fill="url(#linear-gradient-15)"/>
    <path d="M306.88,221.46a2.34,2.34,0,0,0,.47.73,2.09,2.09,0,0,0,.87.43,5.85,5.85,0,0,0,4.86-.8,3.41,3.41,0,0,0,1.31-1.55,4.89,4.89,0,0,0-.19-3l-.83-2.88a.22.22,0,0,0-.05-.11c-.07,0-.16,0-.23,0-2.41,1.44-5.25,0-7.55,1C303.6,216.22,306.17,220,306.88,221.46Z" transform="translate(-19.46 -9.42)" fill="url(#linear-gradient-16)"/>
    <path d="M309.68,221.26a16.24,16.24,0,0,0-2.41.33,2.38,2.38,0,0,0-1.7,1.58,3.26,3.26,0,0,0,.57,2.15c.58,1.07,1.16,2.14,1.78,3.19a4,4,0,0,0,1.53,1.7,3.55,3.55,0,0,0,2.12.16,25.94,25.94,0,0,0,6.15-2q6-2.53,11.91-5.41c.65-.32,1.37-.73,1.5-1.44a1.55,1.55,0,0,0-.49-1.35,4,4,0,0,0-1.28-.76,30.21,30.21,0,0,0-8.76-1.93c-1.06-.11-2.84-.61-3.83-.13s-1.94,1.66-3,2.3A10.47,10.47,0,0,1,309.68,221.26Z" transform="translate(-19.46 -9.42)" fill="#3e3e54"/>
    <path d="M269.19,111.81a14.75,14.75,0,0,1-5.7,2L252.64,116a26.78,26.78,0,0,1-7.29.8,25.06,25.06,0,0,1-6.5-1.61c-8.42-3-21.77-6.53-28.23-13.07-4.89-5-3.69-14.9,2.63-17.38a8.66,8.66,0,0,1,3.78-.56c5.36.34,9,5.27,13.12,8.74,8.84,7.54,21.18,8.85,32.8,9.71l.24,0,.78,0c3,.22,6.7,1,7.52,3.87C272,108.53,270.86,110.64,269.19,111.81Z" transform="translate(-19.46 -9.42)" fill="#2c81db"/>
    <path d="M279.07,128.24,308.71,112l2.92-42.16s-4.5-1.86-4.87,2.41-3.52,36.36-3.52,36.36l-25.6,13.54S273.83,126,279.07,128.24Z" transform="translate(-19.46 -9.42)" fill="#2c81db"/>
    <path d="M165.59,280.89a61.48,61.48,0,0,1-32.61,25l5.1-10.94c-6.4,7.92-12.85,15.88-20.43,22.69s-16.43,12.46-26.29,15c-1-1.45.07-3.39,1.13-4.8a208.31,208.31,0,0,1,23.29-26.11c-19.53,11.37-39.14,22.78-60.15,31.1a237.54,237.54,0,0,1,48-49.49l-12.88,3.32a189.35,189.35,0,0,1,53.86-43.26C153,254.89,159.69,268,165.59,280.89Z" transform="translate(-19.46 -9.42)" fill="#2c81db"/>
    <path d="M165.59,280.89a61.48,61.48,0,0,1-32.61,25l5.1-10.94c-6.4,7.92-12.85,15.88-20.43,22.69s-16.43,12.46-26.29,15c-1-1.45.07-3.39,1.13-4.8a208.31,208.31,0,0,1,23.29-26.11c-19.53,11.37-39.14,22.78-60.15,31.1a237.54,237.54,0,0,1,48-49.49l-12.88,3.32a189.35,189.35,0,0,1,53.86-43.26C153,254.89,159.69,268,165.59,280.89Z" transform="translate(-19.46 -9.42)" fill="url(#linear-gradient-17)"/>
    <path d="M125,270.13c-.47.65-.94,1.52-.53,2.21a2.18,2.18,0,0,0,1.25.77l3.85,1.27a114,114,0,0,0-13.66,14.3c-.69.86-1.36,2.17-.57,2.94a2.07,2.07,0,0,0,1.33.47c5.35.48,10.34-2.48,14.9-5.32a22.9,22.9,0,0,1-4.22,8.26c5.16-1,9.83-3.67,14-6.78s8.1-6.67,12.4-9.68l-1.42,3.7a24.25,24.25,0,0,0,6.68-6.56,3,3,0,0,0,.41-3.5,57.52,57.52,0,0,0-9.09-16.07,8.34,8.34,0,0,0-2.5-2.31c-3.14-1.65-9.69,3.72-12.21,5.57A48.27,48.27,0,0,0,125,270.13Z" transform="translate(-19.46 -9.42)" fill="#2c81db"/>
    <path d="M125,270.13c-.47.65-.94,1.52-.53,2.21a2.18,2.18,0,0,0,1.25.77l3.85,1.27a114,114,0,0,0-13.66,14.3c-.69.86-1.36,2.17-.57,2.94a2.07,2.07,0,0,0,1.33.47c5.35.48,10.34-2.48,14.9-5.32a22.9,22.9,0,0,1-4.22,8.26c5.16-1,9.83-3.67,14-6.78s8.1-6.67,12.4-9.68l-1.42,3.7a24.25,24.25,0,0,0,6.68-6.56,3,3,0,0,0,.41-3.5,57.52,57.52,0,0,0-9.09-16.07,8.34,8.34,0,0,0-2.5-2.31c-3.14-1.65-9.69,3.72-12.21,5.57A48.27,48.27,0,0,0,125,270.13Z" transform="translate(-19.46 -9.42)" fill="url(#linear-gradient-18)"/>
    <path d="M267.4,106.45a4.17,4.17,0,0,1-1.89.27c-6.68,0-13.41-.1-20-1.27s-13.09-3.51-18.29-7.7c-3.67-3-6.57-6.71-10.25-9.63-1-.83-3.6-1.87-3.73-3.38a8.66,8.66,0,0,1,3.78-.56c5.36.34,9,5.27,13.12,8.74,8.84,7.54,21.18,8.85,32.8,9.71l.24,0a10.44,10.44,0,0,1,4.19,1.27,1.75,1.75,0,0,1,.87.95A1.43,1.43,0,0,1,267.4,106.45Z" transform="translate(-19.46 -9.42)" fill="url(#linear-gradient-19)"/>
    <path d="M442.12,85.85l-1.23,6.82a162.62,162.62,0,0,1-14.61,35.51c-13.93,25.53-39.42,58.95-85.65,90-72.61,48.86-136.33,57-159.84,58.24l-8-11.11c183.88-54.29,227.32-141.17,232.38-141.89s20.28-37.64,20.28-37.64Z" transform="translate(-19.46 -9.42)" fill="url(#linear-gradient-20)"/>
    <path d="M234.82,49.13a3.7,3.7,0,0,1-1.75,2,11.16,11.16,0,0,1-2,1l-7.85,3.16a6.69,6.69,0,0,1-2.48.34,4.19,4.19,0,0,0-2,.42,28.06,28.06,0,0,1-5,2.5,14.78,14.78,0,0,1-6.35.17,9.55,9.55,0,0,0-4.57,0c-.5.18-1,.46-1.48.6a3.22,3.22,0,0,1-2.66-.45.74.74,0,0,1-.24-.26c-.08-.23.1-.46.28-.63a9.23,9.23,0,0,1,3.9-1.64,28.33,28.33,0,0,0,8.65-3.61c3.16-2.13,5.62-5.26,9-7a18,18,0,0,1,7.94-1.65,8.67,8.67,0,0,1,4.7,1A3.71,3.71,0,0,1,234.82,49.13Z" transform="translate(-19.46 -9.42)" fill="none"/>
</svg>