<svg id="Layer_1" data-name="Layer 1" xmlns="http://www.w3.org/2000/svg" xmlns:xlink="http://www.w3.org/1999/xlink" width="810.09" height="539.16" viewBox="0 0 810.09 539.16">
  <defs>
    <linearGradient id="linear-gradient" x1="428.16" y1="303.14" x2="421.4" y2="44.11" gradientTransform="matrix(1, 0, 0, -1, 0, 542)" gradientUnits="userSpaceOnUse">
      <stop offset="0"/>
      <stop offset="0.99" stop-opacity="0"/>
    </linearGradient>
    <linearGradient id="linear-gradient-2" x1="759.55" y1="460.62" x2="712.97" y2="460.62" gradientTransform="translate(-1.96 -258.12)" xlink:href="#linear-gradient"/>
    <linearGradient id="linear-gradient-3" x1="809.61" y1="473.09" x2="754.59" y2="451.56" gradientTransform="translate(-1.96 -258.12)" xlink:href="#linear-gradient"/>
    <linearGradient id="linear-gradient-4" x1="800.99" y1="522.81" x2="777.55" y2="484.05" gradientTransform="translate(-1.96 -258.12)" xlink:href="#linear-gradient"/>
    <linearGradient id="linear-gradient-5" x1="711.3" y1="600.55" x2="792.59" y2="600.55" gradientTransform="translate(0 -226)" xlink:href="#linear-gradient"/>
    <linearGradient id="linear-gradient-6" x1="396.26" y1="750.17" x2="392.47" y2="429.18" gradientTransform="translate(0 -226)" xlink:href="#linear-gradient"/>
    <linearGradient id="linear-gradient-7" x1="380.41" y1="786.59" x2="397.43" y2="398.49" gradientTransform="translate(0 -226)" xlink:href="#linear-gradient"/>
    <linearGradient id="linear-gradient-8" x1="563.25" y1="436.76" x2="396.01" y2="181.66" gradientTransform="matrix(1, 0, 0, -1, 0, 542)" gradientUnits="userSpaceOnUse">
      <stop offset="0"/>
      <stop offset="0.49" stop-opacity="0.51"/>
      <stop offset="0.99" stop-opacity="0"/>
    </linearGradient>
    <linearGradient id="linear-gradient-9" x1="268.96" y1="646.42" x2="262.2" y2="206.06" xlink:href="#linear-gradient"/>
    <linearGradient id="linear-gradient-10" x1="454.11" y1="-9.34" x2="536.89" y2="412.15" xlink:href="#linear-gradient"/>
    <linearGradient id="linear-gradient-11" x1="176.41" y1="540.98" x2="355.7" y2="540.98" gradientTransform="translate(-1.96 -258.12)" gradientUnits="userSpaceOnUse">
      <stop offset="0" stop-color="#97eafd"/>
      <stop offset="0" stop-color="#a8eefd"/>
      <stop offset="1" stop-color="#e7faff"/>
    </linearGradient>
    <linearGradient id="linear-gradient-12" x1="392.3" y1="488.07" x2="392.3" y2="744.48" gradientTransform="translate(-1.96 -258.12)" xlink:href="#linear-gradient"/>
    <linearGradient id="linear-gradient-13" x1="392.3" y1="564.92" x2="392.3" y2="671.08" gradientTransform="translate(-1.96 -258.12)" xlink:href="#linear-gradient"/>
    <linearGradient id="linear-gradient-14" x1="489.04" y1="399.38" x2="487.35" y2="26.87" xlink:href="#linear-gradient-8"/>
    <linearGradient id="linear-gradient-15" x1="266.68" y1="370.82" x2="264.34" y2="62.21" gradientTransform="matrix(1, 0, 0, -1, 0, 542)" gradientUnits="userSpaceOnUse">
      <stop offset="0"/>
      <stop offset="0.12" stop-opacity="0.51"/>
      <stop offset="0.86" stop-opacity="0.23"/>
      <stop offset="0.99" stop-opacity="0"/>
    </linearGradient>
    <linearGradient id="linear-gradient-16" x1="91.85" y1="400.8" x2="100.69" y2="643.43" gradientTransform="translate(0 -226)" xlink:href="#linear-gradient"/>
    <linearGradient id="linear-gradient-17" x1="683.64" y1="459.55" x2="682.37" y2="620.04" gradientTransform="translate(0 -226)" xlink:href="#linear-gradient"/>
    <linearGradient id="linear-gradient-18" x1="272.68" y1="413.87" x2="271.32" y2="472.33" gradientTransform="translate(-1.96 -258.12)" gradientUnits="userSpaceOnUse">
      <stop offset="0" stop-color="#ecc4d7"/>
      <stop offset="0.42" stop-color="#efd4d1"/>
      <stop offset="1" stop-color="#f2eac9"/>
    </linearGradient>
    <linearGradient id="linear-gradient-19" x1="256.32" y1="489.53" x2="284.36" y2="489.53" xlink:href="#linear-gradient-18"/>
    <linearGradient id="linear-gradient-20" x1="508.36" y1="394.86" x2="506.55" y2="457.39" xlink:href="#linear-gradient-18"/>
    <linearGradient id="linear-gradient-21" x1="491.74" y1="475.1" x2="519.77" y2="475.1" xlink:href="#linear-gradient-18"/>
    <linearGradient id="linear-gradient-22" x1="201.79" y1="577.53" x2="226.84" y2="577.53" gradientTransform="translate(-1.96 -258.12)" xlink:href="#linear-gradient"/>
    <linearGradient id="linear-gradient-23" x1="206.67" y1="570.61" x2="251.8" y2="570.61" xlink:href="#linear-gradient-18"/>
    <linearGradient id="linear-gradient-24" x1="324.41" y1="239.83" x2="300.95" y2="210.74" xlink:href="#linear-gradient"/>
    <linearGradient id="linear-gradient-25" x1="279.83" y1="564.83" x2="324.96" y2="564.83" xlink:href="#linear-gradient-18"/>
    <linearGradient id="linear-gradient-26" x1="259.97" y1="243.11" x2="271.43" y2="195.43" xlink:href="#linear-gradient"/>
    <linearGradient id="linear-gradient-27" x1="264.7" y1="237.95" x2="266.02" y2="205.67" xlink:href="#linear-gradient"/>
    <linearGradient id="linear-gradient-28" x1="221.38" y1="667.55" x2="225.17" y2="493.15" gradientTransform="translate(-1.96 -258.12)" xlink:href="#linear-gradient"/>
    <linearGradient id="linear-gradient-29" x1="313.58" y1="669.55" x2="317.37" y2="495.16" gradientTransform="translate(-1.96 -258.12)" xlink:href="#linear-gradient"/>
    <linearGradient id="linear-gradient-30" x1="199.8" y1="720.53" x2="224.46" y2="720.53" xlink:href="#linear-gradient-18"/>
    <linearGradient id="linear-gradient-31" x1="311.5" y1="726.33" x2="336.58" y2="726.33" xlink:href="#linear-gradient-18"/>
    <linearGradient id="linear-gradient-32" x1="233.34" y1="750.9" x2="189.02" y2="732.8" gradientTransform="translate(-1.96 -258.12)" xlink:href="#linear-gradient"/>
    <linearGradient id="linear-gradient-33" x1="302.23" y1="751.49" x2="356.5" y2="740.64" gradientTransform="translate(-1.96 -258.12)" xlink:href="#linear-gradient"/>
    <linearGradient id="linear-gradient-34" x1="536.87" y1="731.3" x2="560.57" y2="731.3" xlink:href="#linear-gradient-18"/>
    <linearGradient id="linear-gradient-35" x1="412" y1="709.17" x2="435.71" y2="709.17" xlink:href="#linear-gradient-18"/>
    <linearGradient id="linear-gradient-36" x1="529.8" y1="765" x2="583.91" y2="732.22" gradientTransform="translate(-1.96 -258.12)" xlink:href="#linear-gradient"/>
    <linearGradient id="linear-gradient-37" x1="386.53" y1="716.35" x2="448.96" y2="738.73" gradientTransform="translate(-1.96 -258.12)" xlink:href="#linear-gradient"/>
    <linearGradient id="linear-gradient-38" x1="728.07" y1="565.12" x2="767.13" y2="502.2" gradientTransform="translate(0 -226)" xlink:href="#linear-gradient"/>
    <linearGradient id="linear-gradient-39" x1="508.38" y1="266.37" x2="409.27" y2="325.78" gradientTransform="matrix(1, 0, 0, 1, 0, 0)" xlink:href="#linear-gradient"/>
    <linearGradient id="linear-gradient-40" x1="423.36" y1="307.5" x2="467.92" y2="307.5" gradientTransform="matrix(1, 0, 0, 1, 0, 0)" xlink:href="#linear-gradient"/>
    <linearGradient id="linear-gradient-41" x1="465.44" y1="573.93" x2="502.9" y2="573.93" xlink:href="#linear-gradient-18"/>
    <linearGradient id="linear-gradient-42" x1="420.11" y1="545.77" x2="433.3" y2="545.77" xlink:href="#linear-gradient-18"/>
    <linearGradient id="linear-gradient-43" x1="430.14" y1="323.57" x2="424.19" y2="275.26" xlink:href="#linear-gradient"/>
    <linearGradient id="linear-gradient-44" x1="448.23" y1="314.19" x2="446.29" y2="298.46" xlink:href="#linear-gradient"/>
    <linearGradient id="linear-gradient-45" x1="429.18" y1="535.99" x2="452.69" y2="535.99" xlink:href="#linear-gradient-18"/>
    <linearGradient id="linear-gradient-46" x1="438.02" y1="546.02" x2="448.1" y2="545.06" gradientTransform="translate(-1.96 -258.12)" xlink:href="#linear-gradient"/>
    <linearGradient id="linear-gradient-47" x1="440.85" y1="539.41" x2="450.94" y2="538.45" gradientTransform="translate(-1.96 -258.12)" xlink:href="#linear-gradient"/>
    <linearGradient id="linear-gradient-48" x1="446.8" y1="541.02" x2="456.88" y2="540.06" gradientTransform="translate(-1.96 -258.12)" xlink:href="#linear-gradient"/>
    <linearGradient id="linear-gradient-49" x1="445.01" y1="546.02" x2="455.09" y2="545.06" gradientTransform="translate(-1.96 -258.12)" xlink:href="#linear-gradient"/>
  </defs>
  <title>2. Games Time</title>
  <path d="M42.5,204.35c20.41-25.71,47.12-46.33,64.73-74,9.21-14.47,15.81-30.68,26.39-44.14,17.8-22.54,45.92-35.47,74.42-38.85s57.49,2.07,84.75,11.14c9.5,3.16,19,6.8,28.94,7.9,18.39,2,36.52-4.69,53.64-11.72C448.45,24.62,526.06-14.21,602.65,5.24c55.89,14.19,99.25,57,139.69,98.14,24.45,24.85,49.66,50.92,60.69,84,9.91,29.71,7.3,61.94,4.59,93.14L796.28,411a26.38,26.38,0,0,1-1.79,8.77c-2.72,5.89-9.28,8.87-15.42,11-34.86,11.88-72.61,10.91-109.43,9.81l-557.51-16.7c-23.78-.71-77.23,5.51-97.63-8.64,0,0-9.78-39-12.29-55.91C-5.86,305.16,8.3,247.43,42.5,204.35Z" transform="translate(0 0)" fill="#2c81db" opacity="0.18" style="isolation: isolate"/>
  <path d="M802.76,412.25A126.91,126.91,0,0,1,675.85,539.16H141.4A126.91,126.91,0,0,1,14.5,412.25Z" transform="translate(0 0)" fill="#2c81db" opacity="0.59" style="isolation: isolate"/>
  <path d="M802.23,412.25c-1,6.05-7.79,12.52-14.08,15.82A509.62,509.62,0,0,1,732,453.26c-16.65,6.28-33.93,11.75-51.72,12.12-13.58.29-27-2.4-40.43-4.59-138.84-22.61-281.49,8.75-421.32-6.65-4.45-.49-11.1,1.48-9.57,5.69-1.06-2.93-48.32-1.37-53.69-1.52-15.81-.45-32.09.17-47.8-1.9-22.87-3-46.95-28.14-62.44-43.83,0,0,32.74.92,47.89-.33Z" transform="translate(0 0)" fill="url(#linear-gradient)"/>
  <path d="M707.59,251.37c-2.58-4.24-5.15-9.76-2.3-13.81,2.16-3.07,6.65-3.84,8.68-7-10.33-1-16-12.47-18.19-22.61A114.32,114.32,0,0,1,713,120c.9-1.3,2-2.71,3.63-2.75,1.93,0,3.19,1.93,4,3.65a498,498,0,0,1,22.6,52.52c.59,1.63,1.16,3.5.36,5a6.43,6.43,0,0,1-2.91,2.37l-11.25,5.89L746.7,186c1.15,7.91,2.31,15.9,1.7,23.87-.37,4.77-3,10.79-7.78,10.07,3.91.13,5.42,5.07,5.87,9l6,52c.2,1.75.32,3.74-.89,5-1,1.09-2.72,1.22-4.23,1.29-10.32.46-15.41,2.26-21.59-6C719.12,272.37,715.47,259.25,707.59,251.37Z" transform="translate(0 0)" fill="#2c81db"/>
  <path d="M707.59,251.37c-2.58-4.24-5.15-9.76-2.3-13.81,2.16-3.07,6.65-3.84,8.68-7-10.33-1-16-12.47-18.19-22.61A114.32,114.32,0,0,1,713,120c.9-1.3,2-2.71,3.63-2.75,1.93,0,3.19,1.93,4,3.65a498,498,0,0,1,22.6,52.52c.59,1.63,1.16,3.5.36,5a6.43,6.43,0,0,1-2.91,2.37l-11.25,5.89L746.7,186c1.15,7.91,2.31,15.9,1.7,23.87-.37,4.77-3,10.79-7.78,10.07,3.91.13,5.42,5.07,5.87,9l6,52c.2,1.75.32,3.74-.89,5-1,1.09-2.72,1.22-4.23,1.29-10.32.46-15.41,2.26-21.59-6C719.12,272.37,715.47,259.25,707.59,251.37Z" transform="translate(0 0)" fill="url(#linear-gradient-2)"/>
  <path d="M796.89,109.46c6.21,17.17,6.32,35.9,5.5,54.14-.26,6-.67,12.16-3.3,17.56s-8,9.86-14,9.58l11.33,6c-6.74,17-13.55,34.31-15.53,52.52-.74,6.78-.81,13.67-2.54,20.26a41.41,41.41,0,0,1-12.6,20.36c-3.51,3.09-8,5.68-12.64,4.85-7.11-1.28-10.27-9.54-11.92-16.58-3.87-16.61-8.62-35.79-7.91-52.95.58-14.08,6.88-29.36,12.31-42.25a214.39,214.39,0,0,1,22.22-40.13C770.38,139.13,797.34,110.71,796.89,109.46Z" transform="translate(0 0)" fill="#2c81db"/>
  <path d="M796.89,109.46c6.21,17.17,6.32,35.9,5.5,54.14-.26,6-.67,12.16-3.3,17.56s-8,9.86-14,9.58l11.33,6c-6.74,17-13.55,34.31-15.53,52.52-.74,6.78-.81,13.67-2.54,20.26a41.41,41.41,0,0,1-12.6,20.36c-3.51,3.09-8,5.68-12.64,4.85-7.11-1.28-10.27-9.54-11.92-16.58-3.87-16.61-8.62-35.79-7.91-52.95.58-14.08,6.88-29.36,12.31-42.25a214.39,214.39,0,0,1,22.22-40.13C770.38,139.13,797.34,110.71,796.89,109.46Z" transform="translate(0 0)" fill="url(#linear-gradient-3)"/>
  <path d="M790.67,221.94c13.37-13.21-5.81-33.84,12.85-36.07-12.63,20,9.87,53.54-12.79,60.38.63,4.94-4.78,8.15-9,10.74a47.52,47.52,0,0,0-21.41,29.95c1.33-6,.5-9.48,3.52-15.46,2.62-5.17,4-10.16,5.92-15.87A85.89,85.89,0,0,1,790.67,221.94Z" transform="translate(0 0)" fill="#2c81db"/>
  <path d="M790.67,221.94c13.37-13.21-5.81-33.84,12.85-36.07-12.63,20,9.87,53.54-12.79,60.38.63,4.94-4.78,8.15-9,10.74a47.52,47.52,0,0,0-21.41,29.95c1.33-6,.5-9.48,3.52-15.46,2.62-5.17,4-10.16,5.92-15.87A85.89,85.89,0,0,1,790.67,221.94Z" transform="translate(0 0)" fill="url(#linear-gradient-4)"/>
  <path d="M711.3,308.58h81.29v99.94a32,32,0,0,1-32,32H743.33a32,32,0,0,1-32-32V308.58Z" transform="translate(0 0)" fill="#2c81db"/>
  <path d="M711.3,308.58h81.29v99.94a32,32,0,0,1-32,32H743.33a32,32,0,0,1-32-32V308.58Z" transform="translate(0 0)" fill="url(#linear-gradient-5)"/>
  <rect x="104.79" y="173.9" width="578.03" height="285.21" rx="62.72" fill="#2c81db"/>
  <rect x="104.79" y="173.9" width="578.03" height="285.21" rx="62.72" fill="url(#linear-gradient-6)"/>
  <rect x="128.44" y="195.13" width="523.7" height="280.38" rx="59.19" fill="url(#linear-gradient-7)"/>
  <path d="M372.68,272.66c-.82,5.58,4.08,10.25,8.78,13.36a91.42,91.42,0,0,0,26.71,12c2.06.55,4.29,1.11,5.67,2.75,2.88,3.43-.06,8.81-3.85,11.2s-8.51,3.53-11.41,6.95c-4.17,4.91-3.53,13.36-9.06,16.67a15.2,15.2,0,0,1-5.09,1.6l-19.59,3.69A1245.05,1245.05,0,0,0,489.6,342.1q-4.82-15.41-9.61-30.81c-4.44-14.23-9.4-29.27-20.84-38.82-6-5-13.28-8.07-20.6-10.7-10.5-3.78-32.51-13.66-43.7-10.42C388.94,253.08,373.6,266.43,372.68,272.66Z" transform="translate(0 0)" fill="url(#linear-gradient-8)"/>
  <path d="M220.82,176.1a10.47,10.47,0,0,0-2.91,11.45c.8,2.07,2.31,4.15,1.72,6.29-.52,1.89-2.49,2.95-4.23,3.86-23.08,12-38.57,34.47-53.11,56.05-3.76,5.58-7.64,11.51-8.06,18.22-.62,9.9,6.39,18.58,13.77,25.19s15.87,12.68,20,21.72,1.2,22.18-8.38,24.74c-1.88.5-3.9.57-5.63,1.47s-3,3.08-2.1,4.79c.85,1.54,2.93,1.79,4.7,1.84q85.42,2.71,170.91,2.71c3.93,0,8-.05,11.5-1.92a7.55,7.55,0,0,0,3.52-3.58c2.35-5.59-5-10.75-5.36-16.81-.42-6.37,6.47-10.35,10.38-15.4,5.73-7.4,5-18.23.8-26.6s-11.15-14.94-17.73-21.6a332,332,0,0,1-48-61.77c-1.45-2.41-2.93-5.15-2.33-7.91s3-4.66,3.21-7.34a7.55,7.55,0,0,0-1.58-4.84c-6.88-10.14-21.54-9.86-33.79-9.6a207.32,207.32,0,0,1-27.63-1.28C234.41,175.09,226,171.65,220.82,176.1Z" transform="translate(0 0)" fill="url(#linear-gradient-9)"/>
  <path d="M485,178.05a220.49,220.49,0,0,1,23-.81c7.45.1,30.34-3.59,39.93-3.34,7,.19-12.74,21.88-9,27.84,6,9.56,17.63,13.65,27,20a60.26,60.26,0,0,1,23.3,30.84c3.25,9.88,3.87,20.42,4.32,30.81.31,7.16.5,14.63-2.51,21.13-3.19,6.88-9.93,12.8-9.23,20.35.27,2.9,1.65,5.56,2.32,8.4s.37,6.26-2,8a9.1,9.1,0,0,1-3.52,1.38c-24.86,5.82-50.79,2-76.25.09-24.74-1.86-49.58-1.91-74.4-2a227.88,227.88,0,0,0,14.76-32.54c1-2.83,2-5.78,1.82-8.78-.27-4.11-2.68-7.73-4.86-11.23-7.83-12.53-13.7-26.75-13.84-41.52-.15-15.78,6.87-30.65,20.24-39.25,5.6-3.6,10.47-7.66,15.79-11.58,3-2.24,26.77,7.71,29.56,5.17S482.13,178.29,485,178.05Z" transform="translate(0 0)" fill="url(#linear-gradient-10)"/>
  <path d="M355.48,287.43c-.19.62-.41,1.23-.67,1.87-5.53,13.93-26.95,33.58-26.95,33.58l-.74,19.63c-21.31,12.37-121,2.37-121,2.37s-4.86-15.65-5.93-16.18-21.59-20.35-29-30.72a19,19,0,0,1-2.43-4.12c-2.83-7.64,10.85-24.51,26.3-61.09S244,201.3,244,201.3s63.73-1.22,78.73,8.43S359.66,273.48,355.48,287.43Z" transform="translate(0 0)" fill="#2c81db"/>
  <path d="M351,296.41c-5.19,8.09-13.19,16.65-18.31,21.79a17.62,17.62,0,0,0-5.1,11.8h0a17.56,17.56,0,0,1-14.84,16.73c-26.09,4-73.15,1-94.94-.81a17.65,17.65,0,0,1-15.16-11.68c-1-2.91-2-5.33-2.41-5.53-.69-.35-12.26-11.4-21.22-21.32a17.64,17.64,0,0,1-2.61-19.93c4.91-9.48,11.6-22.07,18.65-38.77,14-33.25,43-32,48.11-31.55.63.06,1.24.08,1.87.08,8.44-.11,63.8-.48,77.65,8.43,10.53,6.77,24.48,35.42,30.42,56.74A17.4,17.4,0,0,1,351,296.41Z" transform="translate(0 0)" opacity="0.4" fill="url(#linear-gradient-11)" style="isolation: isolate"/>
  <path d="M582.07,294.34c-.54-7.55-19.29-56.23-32.37-64.13-9.14-5.52-41.23-22.05-59.75-31.52a41,41,0,0,0-28.51-3.3c-17.4,4.29-45.88,11.9-63.19,19.67-26.21,11.82-20.35,24.65-19.83,31.13s54.81,40.75,54.81,40.75l6.19,28.5,5.32-.13,52.12-1.22,7.69,13.41,1.71,3s6.42-1.7,15.3-4l5.34-1.39c16.21-4.21,37.22-9.56,44.47-11C583.77,311.68,582.61,301.89,582.07,294.34Zm-131.88-28.6-19.66-18.07-5.88-6.86,19.47-4c2-.25,4-.45,6.07-.63Zm81.72,10.91a29.28,29.28,0,0,0,1.47-5.68l.47-3.05h0l1.34-8.74,12.69,29.89-2,.49h0l-16.17,4a143.51,143.51,0,0,1,2.2-16.91Z" transform="translate(0 0)" fill="#fff"/>
  <path d="M567.65,287.12c-.28,4.51-3.58,8.39-7.45,10.66s-8.43,3.19-12.87,4.07c-2.65.53-5.42,1.07-8.05.44s-5.12-2.76-5.24-5.47a52.91,52.91,0,0,0,13-4.75,6.17,6.17,0,0,0,3.2-2.9c.49-1.26-2.6.41-4.25.38l2-.49-12.69-29.89-1.34,8.74h0c-.77,3-1.41,5.9-1.94,8.73a144.05,144.05,0,0,0-2.17,16.93c-.58,8-.65,16.17-.72,25.77A7.85,7.85,0,0,1,528,324a4.38,4.38,0,0,1-1.06,1,10.54,10.54,0,0,1-5.34,1.39h-.18l-16.83,1L477.86,329c-6.82.41-13.89.8-20.26-1.69a24.17,24.17,0,0,1-14.82-18.68c-1.51-10.5,4-20.52,7.91-30.4a102.19,102.19,0,0,0,6.9-42.69q-3.69.18-7.36.5c-2,.18-4.05.38-6.07.63a193.3,193.3,0,0,0-20,3.4l.51.6,5.88,6.86,14.61,17c-20,6.37-44-6.17-50.24-26.23a12.26,12.26,0,0,1-.69-5.13c.7-5.13,6.37-7.75,11.25-9.46l42.86-15c14.77-5.14,28.37-8.4,43-1.92,12.68,5.61,47.42,25.81,56.48,37.36,5,6.41,5.65,21.82,11.74,28C563.65,276.45,568,281.33,567.65,287.12Z" transform="translate(0 0)" fill="#2c81db" opacity="0.1" style="isolation: isolate"/>
  <path d="M695.94,397v30.53A54.45,54.45,0,0,1,641.51,482H139.18a54.44,54.44,0,0,1-54.44-54.44h0V397a54.41,54.41,0,0,1,54.37-54.43h502.4a54.41,54.41,0,0,1,54.43,54.37Z" transform="translate(0 0)" fill="#2c81db"/>
  <path d="M695.94,397v30.53A54.45,54.45,0,0,1,641.51,482H139.18a54.44,54.44,0,0,1-54.44-54.44h0V397a54.41,54.41,0,0,1,54.37-54.43h502.4a54.41,54.41,0,0,1,54.43,54.37Z" transform="translate(0 0)" fill="url(#linear-gradient-12)"/>
  <path d="M686.66,366.56a54.39,54.39,0,0,1-45.15,24H139.18a54.43,54.43,0,0,1-45.16-24,54.41,54.41,0,0,1,45.16-24H641.51A54.35,54.35,0,0,1,686.66,366.56Z" transform="translate(0 0)" fill="#2c81db"/>
  <path d="M686.66,366.56a54.39,54.39,0,0,1-45.15,24H139.18a54.43,54.43,0,0,1-45.16-24,54.41,54.41,0,0,1,45.16-24H641.51A54.35,54.35,0,0,1,686.66,366.56Z" transform="translate(0 0)" fill="url(#linear-gradient-13)"/>
  <path d="M431.35,404.33c-3.56,20.38-7,41.84-.15,61.35,1,2.93,2.93,6.23,6,6.29,2.27,0,4.14-1.76,5.48-3.59,8.27-11.25,7-26.56,6.6-40.51-.62-23.45,3.72-49.42,21.88-64.28,7.06-5.77,17.37-9.33,25.23-4.72,8.62,5.06,9.87,16.79,10.15,26.78q.69,24.12,1.37,48.26c.37,13.25,1,27.43,9,38.08,5.07,6.84,15,11.55,22.07,6.79,4.83-3.26,6.37-9.58,7.24-15.33a173.85,173.85,0,0,0-11.32-92.13c-4.77-11.49-11.31-23-22.07-29.25-5.84-3.38-12.56-5-19.26-5.79a92,92,0,0,0-51.81,9c-11.13,5.57-4.25,12.06-3.73,20.88C438.7,377.93,433.38,392.7,431.35,404.33Z" transform="translate(0 0)" fill="url(#linear-gradient-14)"/>
  <path d="M240.57,478.45c1.52-2.46,1.48-5.54,1.42-8.43a392.15,392.15,0,0,1,5-70.3c1.41-8.67,3.23-17.59,8.31-24.75s14.26-12.09,22.74-9.74c2.32.66,4.64,2,5.56,4.22a10.87,10.87,0,0,1,.57,4q.46,44-.62,88c-.14,5.66-.16,11.79,3.24,16.31,5.69,7.58,17.36,6.43,26.3,3.31,3.14-1.1,6.36-2.44,8.5-5,2.58-3.1,3.1-7.37,3.48-11.38a775.47,775.47,0,0,0,2.85-103.82c-.1-2.53-.24-5.15-1.43-7.38-2.48-4.63-8.39-5.93-13.58-6.74-20.94-3.25-42.17-6.52-63.25-4.36-4.9.51-9.94,1.36-14,4.07-3.87,2.55-6.57,6.5-9.06,10.4C215,375.07,205.32,395,202.2,416.37c-2.53,17.31-.5,35.93,7.81,51.51C214.17,475.88,232.83,490.88,240.57,478.45Z" transform="translate(0 0)" fill="url(#linear-gradient-15)"/>
  <rect x="67.07" y="306.07" width="61.37" height="61.37" rx="22.93" fill="#2c81db"/>
  <rect x="652.14" y="306.07" width="61.37" height="61.37" rx="22.93" fill="#2c81db"/>
  <rect x="67.07" y="306.07" width="61.37" height="61.37" rx="22.93" fill="url(#linear-gradient-16)"/>
  <rect x="652.14" y="306.07" width="61.37" height="61.37" rx="22.93" fill="url(#linear-gradient-17)"/>
  <path d="M240.7,178.61s.43,43.42,23.52,46.64,32.58-22.67,35.34-42.15-21.26-51-45.43-34.82C238.84,158.48,240.7,178.61,240.7,178.61Z" transform="translate(0 0)" fill="url(#linear-gradient-18)"/>
  <path d="M242.53,195.14c-1.65-9.67-3.26-20.15-.23-29.48,1.81-5.58,5.11-11.49,10.81-12.92,7.62-1.91,14.29,5,21.55,8s16.53,2.41,21.82,8.27c2.42,2.67,3.53,6.25,4.56,9.71a33.81,33.81,0,0,0-2.72-23.05,7.54,7.54,0,0,0,5.29,2.09c.1-5.89-3-11.41-6.86-15.84-8.47-9.69-21.77-15.54-34.44-13.28-16.31,2.9-19.54,15.29-25.66,27.75C230.42,169.09,233.8,180.61,242.53,195.14Z" transform="translate(0 0)" fill="#333335"/>
  <path d="M254.36,220.58s1,23.46,13.35,21.56,14.69-21.56,14.69-21.56A25.54,25.54,0,0,1,254.36,220.58Z" transform="translate(0 0)" fill="url(#linear-gradient-19)"/>
  <path d="M476.12,164.18s.42,43.42,23.52,46.64,32.57-22.67,35.34-42.15-21.27-51-45.44-34.82C474.26,144.05,476.12,164.18,476.12,164.18Z" transform="translate(0 0)" fill="url(#linear-gradient-20)"/>
  <path d="M489.78,206.15s1,23.46,13.35,21.56,14.68-21.56,14.68-21.56A25.48,25.48,0,0,1,489.78,206.15Z" transform="translate(0 0)" fill="url(#linear-gradient-21)"/>
  <path d="M216.58,308.09s-19.78,12.09-16.35,20.59,21.71-7.05,22.51-9.56S229.71,305.18,216.58,308.09Z" transform="translate(0 0)" fill="url(#linear-gradient-22)"/>
  <path d="M231.81,327.65s-10.14,2.32-15.23-2.48a45,45,0,0,0-11.87-7.63l14-13s13.44-7.26,20.68-7.92,10.45,3,10.45,3-6.43,7.69-10.45,6.45-9,3.79-9,3.79-2,10.21,1.49,11,10.67,5.1,10.67,5.1S247,330.13,231.81,327.65Z" transform="translate(0 0)" fill="url(#linear-gradient-23)"/>
  <path d="M311.11,302.29s19.78,12.1,16.34,20.59-21.7-7-22.5-9.55S298,299.39,311.11,302.29Z" transform="translate(0 0)" fill="url(#linear-gradient-24)"/>
  <path d="M295.88,321.88s10.13,2.32,15.23-2.48A45.4,45.4,0,0,1,323,311.76l-14-13s-13.44-7.26-20.68-7.92-10.45,3-10.45,3,6.43,7.69,10.45,6.45,9,3.79,9,3.79,2,10.21-1.49,11-10.67,5.1-10.67,5.1S280.65,324.34,295.88,321.88Z" transform="translate(0 0)" fill="url(#linear-gradient-25)"/>
  <path d="M244.45,304.56s3.75,2.48,12.32,1.51,19.71-3,21.11-4.65a17.54,17.54,0,0,1,4.52-3.26s10-2.89,15,5.91S293.32,316,293.32,316s-4.38,7.36-15.41,7.14-35.4,2.85-35.4,2.85-17-7.07-15.22-11.9S232.12,303.05,244.45,304.56Z" transform="translate(0 0)" fill="url(#linear-gradient-26)"/>
  <path d="M239.29,312.5s-9.47,4.5-6,10.15,14.2,2.75,14.2,2.75,24.8-2.7,30.42-2.26,19.19-4.41,19.84-10.64-3.17-10.4-15.32-5.79-19.26,8-28.27,6.6A66.12,66.12,0,0,0,239.29,312.5Z" transform="translate(0 0)" fill="url(#linear-gradient-27)"/>
  <path d="M218.68,304.56l-14-22.93s17.66-26.75,19.36-32.19,15.34,47.2,15.34,47.2S220.78,301,218.68,304.56Z" transform="translate(0 0)" fill="url(#linear-gradient-28)"/>
  <path d="M311.11,302.29l14-27.43L313,249.05l-9.4,47S309.71,296.28,311.11,302.29Z" transform="translate(0 0)" fill="url(#linear-gradient-29)"/>
  <path d="M189.78,335s9-14.51,42-7.32,58.77,8.67,66,3.51S309,320,327.44,322.88c19.83,3.11,18.39,13.78,23.21,30.68C356,372.3,339,457.14,339,457.14H309.56s.67-103.21-14.74-106.22c-9.85-1.93-29.7-2.13-40.46-2.31-6.34-.11-15.46,8.78-17.73,14.7-6.62,17.3-18.19,54.64-10.06,87.51l-28.73,2.55S167.57,393.88,189.78,335Z" transform="translate(0 0)" fill="#333335"/>
  <path d="M197.84,453.37l3.87,19.33s11.32,3.54,17-3.37S222,451.22,222,451.22Z" transform="translate(0 0)" fill="url(#linear-gradient-30)"/>
  <path d="M191,475.31l8.66-12.9s2.92,12.32,22.38-.75l.47-5.44s.93-.85,2.93,2.89S229,475.88,229,475.88s-1.21,8.44-5.23,11.05c-2.77,1.8-15.44,11.38-23,17.13a16.54,16.54,0,0,1-15.14,2.57c-4.09-1.36-4.8.13-4.86-3.85C180.68,494.41,183.92,481.88,191,475.31Z" transform="translate(0 0)" fill="#2c81db"/>
  <path d="M334.62,457.14,331.85,471a10.19,10.19,0,0,1-11.91,8.11l-.31-.06a11.34,11.34,0,0,1-6.28-3.81c-5.65-6.92-3.35-18.11-3.35-18.11Z" transform="translate(0 0)" fill="url(#linear-gradient-31)"/>
  <path d="M332.38,468.33s-2.92,12.32-22.38-.75l-.46-5.44s-.93-.86-2.94,2.89-3.6,16.85-3.6,16.85,1.21,8.44,5.23,11c3.29,2.14,33.49,31.93,45.19,16.53a9.44,9.44,0,0,0,2.07-5.76C355.61,495.25,332.38,468.33,332.38,468.33Z" transform="translate(0 0)" fill="#2c81db"/>
  <path d="M191,475.31l8.66-12.9s2.92,12.32,22.38-.75l.47-5.44s.93-.85,2.93,2.89S229,475.88,229,475.88s-1.21,8.44-5.23,11.05c-2.77,1.8-15.44,11.38-23,17.13a16.54,16.54,0,0,1-15.14,2.57c-4.09-1.36-4.8.13-4.86-3.85C180.68,494.41,183.92,481.88,191,475.31Z" transform="translate(0 0)" fill="url(#linear-gradient-32)"/>
  <path d="M332.38,468.33s-2.92,12.32-22.38-.75l-.46-5.44s-.93-.86-2.94,2.89-3.6,16.85-3.6,16.85,1.21,8.44,5.23,11c3.29,2.14,33.49,31.93,45.19,16.53a9.44,9.44,0,0,0,2.07-5.76C355.61,495.25,332.38,468.33,332.38,468.33Z" transform="translate(0 0)" fill="url(#linear-gradient-33)"/>
  <path d="M558.61,462.71,556,475.82a9.63,9.63,0,0,1-11.25,7.67l-.3-.06a10.77,10.77,0,0,1-5.93-3.6c-5.35-6.54-3.17-17.12-3.17-17.12Z" transform="translate(0 0)" fill="url(#linear-gradient-34)"/>
  <path d="M556.49,473.29s-2.76,11.64-21.15-.71l-.44-5.14s-.88-.81-2.77,2.73-3.41,15.88-3.41,15.88,1.14,8,4.94,10.45c3.11,2,31.65,30.17,42.7,15.62a8.86,8.86,0,0,0,2-5.44C578.44,498.73,556.49,473.29,556.49,473.29Z" transform="translate(0 0)" fill="#2c81db"/>
  <path d="M410,440.58l2.63,13.11a9.62,9.62,0,0,0,11.24,7.66l.3-.06a10.74,10.74,0,0,0,5.93-3.6c5.35-6.54,3.17-17.11,3.17-17.11Z" transform="translate(0 0)" fill="url(#linear-gradient-35)"/>
  <path d="M412.17,451.16s2.76,11.64,21.15-.72l.44-5.14s.88-.81,2.77,2.73,3.41,15.85,3.41,15.85-1.14,8-4.93,10.44c-3.12,2-31.66,30.18-42.71,15.63a8.92,8.92,0,0,1-2-5.44C390.22,476.59,412.17,451.16,412.17,451.16Z" transform="translate(0 0)" fill="#2c81db"/>
  <path d="M556.49,473.29s-2.76,11.64-21.15-.71l-.44-5.14s-.88-.81-2.77,2.73-3.41,15.88-3.41,15.88,1.14,8,4.94,10.45c3.11,2,31.65,30.17,42.7,15.62a8.86,8.86,0,0,0,2-5.44C578.44,498.73,556.49,473.29,556.49,473.29Z" transform="translate(0 0)" fill="url(#linear-gradient-36)"/>
  <path d="M412.17,451.16s2.76,11.64,21.15-.72l.44-5.14s.88-.81,2.77,2.73,3.41,15.85,3.41,15.85-1.14,8-4.93,10.44c-3.12,2-31.66,30.18-42.71,15.63a8.92,8.92,0,0,1-2-5.44C390.22,476.59,412.17,451.16,412.17,451.16Z" transform="translate(0 0)" fill="url(#linear-gradient-37)"/>
  <rect x="706.14" y="285.7" width="92.44" height="27.61" fill="#2c81db"/>
  <rect x="706.44" y="285.7" width="92.44" height="27.61" fill="url(#linear-gradient-38)"/>
  <path d="M450.73,315s-40.05-12.28-47.12,18S408,444.43,408,444.43h23l4.4-6.43s4.65-67.3,6-71.43,15.71-24,28.36-24,43.19-8,53.91,27.93,10.26,94.57,10.26,94.57l26.68-2.64s6.94-75.68,3-99.35-8.92-41.6-17.78-46.55S450.73,315,450.73,315Z" transform="translate(0 0)" fill="#333335"/>
  <path d="M478.84,316.5s-5.33,3.51-10.92,7-11.44,6.88-12.53,6.77c-2.2-.23-5.09-.34-8.08-9.88s-9.28-11.33-9.48-12.28-13.05-11.92-13.58-13.76c-.38-1.28-2.21-5.28.83-9.58a18.29,18.29,0,0,1,6.94-5.41,266.59,266.59,0,0,1,26.51-11,6,6,0,0,1,2.42,4.57c.27,3.21-4.89,11.4-5.56,14.49s5.09,11.87,5.09,11.87,4.23,2.17,6.1,2.1,21.2-5.18,23.19-4.77S502.29,302.77,478.84,316.5Z" transform="translate(0 0)" fill="#2c81db"/>
  <path d="M478.84,316.5s-5.33,3.51-10.92,7-11.44,6.88-12.53,6.77c-2.2-.23-5.09-.34-8.08-9.88s-9.28-11.33-9.48-12.28-13.05-11.92-13.58-13.76c-.38-1.28-2.21-5.28.83-9.58a18.29,18.29,0,0,1,6.94-5.41,266.59,266.59,0,0,1,26.51-11,6,6,0,0,1,2.42,4.57c.27,3.21-4.89,11.4-5.56,14.49s5.09,11.87,5.09,11.87,4.23,2.17,6.1,2.1,21.2-5.18,23.19-4.77S502.29,302.77,478.84,316.5Z" transform="translate(0 0)" fill="url(#linear-gradient-39)"/>
  <path d="M467.92,323.48c-5.58,3.46-11.44,6.88-12.53,6.77-2.2-.23-5.09-.34-8.08-9.88S438,309,437.83,308.09s-13.05-11.92-13.58-13.76c-.38-1.28-2.21-5.28.83-9.58a4.67,4.67,0,0,1,1.08.95s1.66,7.95,7.07,10.36,17.5,19,17.5,19-.43,7.94,3.8,9.36S467.92,323.48,467.92,323.48Z" transform="translate(0 0)" fill="url(#linear-gradient-40)"/>
  <path d="M500.94,321.2s-16.9,10.68-24.19,8.85a99.77,99.77,0,0,1-13.27-4.32l15.36-9.22s-1-6.64-7.23-8.42-1-7.34,4.62-6.67,10.74.86,10.74.86l4.48.83Z" transform="translate(0 0)" fill="url(#linear-gradient-41)"/>
  <path d="M418.31,287.51A12,12,0,0,0,422.64,299a4.57,4.57,0,0,0,2.12,1,2.11,2.11,0,0,0,2-.9c.73-1.26-.42-2.71-1.25-3.89-2.75-3.9,1.07-11.77,4.47-15.13a5.36,5.36,0,0,0,1.12-1.3,2.62,2.62,0,0,0-1.44-3.41l-.13-.05c-1.44-.39-5.95,3.16-6.86,4.07A15.21,15.21,0,0,0,418.31,287.51Z" transform="translate(0 0)" fill="url(#linear-gradient-42)"/>
  <path d="M465.43,151.31c.3-3.45,2-6.91,1-10.23-.52-1.8-1.77-3.3-2.46-5-1.9-4.87,1-10.29,4.47-14.19,7.39-8.27,17.55-13.41,27.26-18.75,2.86-1.57,5.77-3.2,9-3.76s6.85.18,8.95,2.67a12.85,12.85,0,0,0,2.33,2.71c1.7,1.12,3.94.48,6,.42a10,10,0,0,1,8.76,4.83c1.66,2.81,2,6.54,4.64,8.48,1.64,1.21,3.87,1.43,5.48,2.68a10.41,10.41,0,0,1,2.66,3.86q2,4.13,4,8.24c3.46,7.12,7,15.16,4.55,22.69a30.33,30.33,0,0,1-3.72,7q-2.93,4.54-5.86,9.1c-2.28,3.54-5.66,7.57-9.77,6.66q.24-6.69.49-13.38c0-1.13,0-2.5-1-3.05-.82-.45-1.82-.09-2.75,0-4.42.18-5.55-6-8.45-9.34a8.25,8.25,0,0,0-7.24-2.71c-2.34.34-4.61,1.69-6.93,1.23-2.67-.54-4.29-3.23-6.62-4.63-5.6-3.35-12.37,1.59-17,6.19l-4.64,4.63c-.92.92-1.91,2-1.91,3.29C476.61,170.16,464.89,157.62,465.43,151.31Z" transform="translate(0 0)" fill="#333335"/>
  <path d="M424.65,240.81l5.88,6.86-7.17-6.6Z" transform="translate(0 0)" fill="url(#linear-gradient-43)"/>
  <path d="M450.19,235.56v.62c-2,.18-4.05.38-6.07.63Z" transform="translate(0 0)" fill="url(#linear-gradient-44)"/>
  <path d="M531.91,276.65a144.05,144.05,0,0,0-2.17,16.93l-38.29,9.53,23.93-9.52A29.11,29.11,0,0,0,531.91,276.65Z" transform="translate(0 0)" fill="#2c81db" opacity="0.26" style="isolation: isolate"/>
  <path d="M432.23,289.58a1.85,1.85,0,0,0,.83.76,1.61,1.61,0,0,0,1.58-.56c1.92-1.85,1.77-4.89,2.37-7.49a12.2,12.2,0,0,1,4.49-7c2.52-1.93,5.85-2.92,7.67-5.52a14,14,0,0,0,1.44-3c.13-.33.22-.77-.07-1a.89.89,0,0,0-.36-.11,40.5,40.5,0,0,0-16.56,1.44c-2,.61-4.07,1.46-5.28,3.18s-1.3,4.19-.93,6.35a5.43,5.43,0,0,0,1.56,3,3.55,3.55,0,0,1,1,2.62A15.62,15.62,0,0,0,432.23,289.58Z" transform="translate(0 0)" fill="url(#linear-gradient-45)"/>
  <path d="M438.94,286a1.43,1.43,0,0,0-1.17,1.36,1.81,1.81,0,0,0,1,1.57,2.46,2.46,0,0,0,1.9.08,1,1,0,0,0,.45-.27,1.16,1.16,0,0,0,.25-.8,2.13,2.13,0,0,0-.79-1.69,1.53,1.53,0,0,0-1.8,0" transform="translate(0 0)" fill="url(#linear-gradient-46)"/>
  <path d="M441.77,279.39a1.43,1.43,0,0,0-1.17,1.36,1.81,1.81,0,0,0,1,1.57,2.5,2.5,0,0,0,1.9.08,1.19,1.19,0,0,0,.46-.27,1.11,1.11,0,0,0,.24-.8,2.12,2.12,0,0,0-.79-1.69,1.53,1.53,0,0,0-1.8,0" transform="translate(0 0)" fill="url(#linear-gradient-47)"/>
  <path d="M447.72,281a1.43,1.43,0,0,0-1.17,1.36,1.81,1.81,0,0,0,1,1.57,2.5,2.5,0,0,0,1.9.08,1,1,0,0,0,.45-.27,1.16,1.16,0,0,0,.25-.8,2.13,2.13,0,0,0-.79-1.69,1.53,1.53,0,0,0-1.8,0" transform="translate(0 0)" fill="url(#linear-gradient-48)"/>
  <path d="M445.93,286a1.39,1.39,0,0,0-1.17,1.36,1.79,1.79,0,0,0,1,1.57,2.46,2.46,0,0,0,1.9.08,1,1,0,0,0,.71-1.07,2.16,2.16,0,0,0-.8-1.69,1.49,1.49,0,0,0-1.79,0" transform="translate(0 0)" fill="url(#linear-gradient-49)"/>
  <path d="M437.34,306c-20.3,12.38-35.8,54.86-43.54,77.33-3,8.67-5.19,18.65-7.31,28.9-3.38,16.38-6.57,33.44-12.36,46.9-14.21,33-35.46,44.76-44,80h-6.79a110,110,0,0,0-16.09-45.86c-15.29-25-42.88-52.89-54.2-81a81.24,81.24,0,0,1-2.76-8c-6.88-24.23-5.31-94.5,18.31-94.5-20.89,8-18.27,49-18.8,73.24a68.64,68.64,0,0,0,6,29.24c5.68,13.23,14.65,25.27,23.3,38.81,14.48,22.69,34.88,38.22,49.15,76.17l32.6-51.37c4.5-7.09,9-14.22,12.17-22,5-12.44,7.83-27.47,10.78-41.61,1.08-5.23,2.18-10.33,3.41-15.14,7.79-30.44,17.84-54,38.64-82.24C429,310.49,435.79,300.82,437.34,306Z" transform="translate(0 0)" fill="#fff"/>
</svg>
