<svg id="Layer_1" data-name="Layer 1" xmlns="http://www.w3.org/2000/svg" xmlns:xlink="http://www.w3.org/1999/xlink" viewBox="0 0 441.75 378.59"><defs><linearGradient id="linear-gradient" x1="209.16" y1="248.53" x2="289.06" y2="248.53" gradientUnits="userSpaceOnUse"><stop offset="0" stop-opacity="0"/><stop offset="0.99"/></linearGradient><linearGradient id="linear-gradient-2" x1="171.7" y1="157.71" x2="301.38" y2="79.9" xlink:href="#linear-gradient"/><linearGradient id="linear-gradient-3" x1="166.45" y1="202.92" x2="268.04" y2="27.82" xlink:href="#linear-gradient"/><linearGradient id="linear-gradient-4" x1="346.22" y1="90.69" x2="174.75" y2="138.24" xlink:href="#linear-gradient"/><linearGradient id="linear-gradient-5" x1="302.51" y1="123.4" x2="307.15" y2="104.27" gradientUnits="userSpaceOnUse"><stop offset="0" stop-opacity="0"/><stop offset="0.72" stop-opacity="0.51"/><stop offset="0.99"/></linearGradient><linearGradient id="linear-gradient-6" x1="212.37" y1="134.32" x2="525.52" y2="193.35" xlink:href="#linear-gradient"/><linearGradient id="linear-gradient-7" x1="367.81" y1="63.36" x2="390.42" y2="63.36" gradientUnits="userSpaceOnUse"><stop offset="0" stop-color="#e5c5d5"/><stop offset="0.42" stop-color="#ead4d1"/><stop offset="1" stop-color="#f0e9cb"/></linearGradient><linearGradient id="linear-gradient-8" x1="275.17" y1="98.31" x2="298.8" y2="113.2" xlink:href="#linear-gradient"/><linearGradient id="linear-gradient-9" x1="254.58" y1="126.27" x2="250.94" y2="232.66" xlink:href="#linear-gradient"/><linearGradient id="linear-gradient-10" x1="216.67" y1="185.72" x2="230.66" y2="185.72" xlink:href="#linear-gradient-7"/><linearGradient id="linear-gradient-11" x1="174.04" y1="185.63" x2="240.71" y2="245.2" xlink:href="#linear-gradient"/><linearGradient id="linear-gradient-12" x1="288.83" y1="94.84" x2="322.49" y2="94.84" xlink:href="#linear-gradient-7"/><linearGradient id="linear-gradient-13" x1="164.32" y1="121.14" x2="155.99" y2="97.78" gradientUnits="userSpaceOnUse"><stop offset="0.02" stop-color="#fff" stop-opacity="0"/><stop offset="1" stop-color="#fff"/></linearGradient></defs><title>Hero of Employe</title><path d="M279.31,364c18.63-10.28,35-24.37,53.71-34.41a144.66,144.66,0,0,1,77.3-16.7c7.45.49,15.2,1.52,22.19-1.12,6.27-2.38,11.12-7.45,15.25-12.73,23.42-29.89,29.92-72.21,16.55-107.76-4.84-12.88-12.12-25-14.15-38.66-4.67-31.36,19.45-61.47,15.68-92.95C463.24,38,447,19.43,427.08,10.59S384.1,1.8,363,7.1c-23.05,5.77-44.24,17.42-67.08,24-43.21,12.38-89.44,5.85-134,11.48S68.72,72.7,59.9,116.78c-5.33,26.62,5.2,54.8-1.58,81.09-5.71,22.11-23,40.08-27.5,62.48-12,60.18,55.83,77.08,94.08,99.28C171.69,386.78,231.25,390.53,279.31,364Z" transform="translate(-29.42 -3.47)" fill="#2c81db" opacity="0.18" style="isolation:isolate"/><path d="M288.59,244c.47,4.33.92,8.81-.38,13-2.3,7.36-9.45,12-16.33,15.46C258,279.44,243,284.29,228.53,290c-4.86,1.93-10.3,4.65-11.46,9.74-.52,2.28-.07,4.73-.88,6.91s-3.9,3.78-5.42,2a4.64,4.64,0,0,1-.8-2.84l-.63-11.64c-.21-3.89-.42-7.86.56-11.64s3.33-7.4,6.92-8.92c1.21-.5,2.51-.76,3.74-1.24,4.56-1.77,7.35-6.27,10.1-10.33,6.47-9.53,15-18.42,26-21.66a46.13,46.13,0,0,1-6.06-36.35c1.61-6.26,4.87-12.49,10.48-15.7a14,14,0,0,1,14.16.17c5,3.23,5.73,9.07,7.05,14.47C285.62,216.44,287.11,230.24,288.59,244Z" transform="translate(-29.42 -3.47)" fill="#3e3e54"/><path d="M288.59,244.52c.47,4.34.92,8.81-.38,13-2.3,7.36-9.45,12-16.33,15.47C258,280,243,284.83,228.53,290.57c-4.86,1.92-10.3,4.64-11.46,9.74-.52,2.27-.07,4.73-.88,6.91s-3.9,3.77-5.42,2a4.64,4.64,0,0,1-.8-2.84l-.63-11.64c-.21-3.9-.42-7.86.56-11.64s3.33-7.4,6.92-8.92c1.21-.51,2.51-.76,3.74-1.24,4.56-1.78,7.35-6.28,10.1-10.33,6.47-9.53,15-18.42,26-21.66a46.16,46.16,0,0,1-6.06-36.36c1.61-6.26,4.87-12.48,10.48-15.69a14,14,0,0,1,14.16.17c5,3.23,5.73,9.07,7.05,14.47C285.62,217,287.11,230.79,288.59,244.52Z" transform="translate(-29.42 -3.47)" fill="url(#linear-gradient)"/><path d="M263.44,190.1a56.19,56.19,0,0,1-6.22,25.73c-2.13,4.13-4.79,8.07-6,12.53-8.23,29.45-41.62,45.8-66.54,64.43-10.12,7.56-21.23,15.24-25.76,26.84-.61,1.58-1.23,3.36-2.77,4.15-2.21,1.12-5-.71-5.79-3s-.1-4.79.57-7.13l3.56-12.47a9.73,9.73,0,0,1,1.78-3.92,13.93,13.93,0,0,1,3.59-2.43c9.18-5.34,12.07-16.61,16.85-25.89a59.81,59.81,0,0,1,24.41-24.87c2.76-1.51,5.72-2.86,7.84-5.15s3.3-5.6,4.35-8.67a319.08,319.08,0,0,1,12.09-30.12c1.81-3.93,12.27-22,15.33-25.15C248.58,166.93,255.84,181.81,263.44,190.1Z" transform="translate(-29.42 -3.47)" fill="#3e3e54"/><path d="M301.45,113.7c0,1.27-.09,2.58-.09,3.9,0,4.23-.4,8.89-3.4,11.87-2.29,2.27-5.61,3.06-8.67,4.06-22.16,7.24-36.32,28.63-55.94,41.21-4.16,2.66-9,5-13.81,4.45a11.22,11.22,0,0,1-1.73-.32c-3.16-.82-5.81-2.93-8.83-4.14-6-2.39-12.75-1.06-18.79,1.1s-11.89,5.1-18.25,6-13.62-.8-17.17-6.15c-1.92-2.92-2.5-6.51-4-9.66-5.48-11.37-21.24-14.16-28.2-24.62-.12-.18-.25-.37-.36-.56a19,19,0,0,1-2.28-5.44,14.17,14.17,0,0,1-.34-1.57,21.11,21.11,0,0,1,1.15-11.31l.18-.47A23,23,0,0,1,135,109.41c8.69-2.73,18.07-.33,27.18-.5,9.54-.18,19.09-3.21,28.48-1.57,7.32,1.27,14,5.29,20.7,8.59,5.57,2.73,11.2,5,17.34,4.8,5.46-.15,10.67-2.27,15.58-4.69,9-4.42,17.55-9.94,27-13.42,7.07-2.61,14.92-4,22.41-2.67C301.63,101.41,301.64,107,301.45,113.7Z" transform="translate(-29.42 -3.47)" fill="#2c81db"/><path d="M287.76,123.91c-2.09,2.46-5.32,3.55-8.29,4.81-13.27,5.65-16.25,22.61-26.13,33.38-6.09,6.63-25.73,14.64-26,12.5-.41-2.95-5,3.54-7.77,4.59a11.22,11.22,0,0,1-1.73-.32c-3.16-.82-5.81-2.93-8.83-4.14-6-2.39-12.75-1.06-18.79,1.1s-11.89,5.1-18.25,6-13.62-.8-17.17-6.15c-1.92-2.92-2.5-6.51-4-9.66-3.64-7.57-11.84-11.33-19-16.09a31.56,31.56,0,0,1-9.23-8.53c-.12-.18-.25-.37-.36-.56a19,19,0,0,1-2.28-5.44,23,23,0,0,1,8.12-5.65c8.42-3.49,18-1.91,27-2.88,9.49-1,18.74-4.84,28.24-4,13.52,1.16,25.58,11.6,39,10.05,5.44-.63,10.44-3.2,15.12-6,8.61-5.18,16.62-11.42,25.71-15.71,6.81-3.2,14.51-5.3,22.1-4.59a11,11,0,0,1,4.59,1.34c.08,1.26.13,2.57.25,3.88C290.49,116,290.49,120.68,287.76,123.91Z" transform="translate(-29.42 -3.47)" fill="url(#linear-gradient-2)"/><path d="M261,152.72c-6.09,6.63-23.84,18.35-30.88,23.77-2.36,1.83-7.79,1.65-10.57,2.7a11.22,11.22,0,0,1-1.73-.32c-3.16-.82-5.81-2.93-8.83-4.14-6-2.39-12.75-1.06-18.79,1.1s-11.89,5.1-18.25,6-13.62-.8-17.17-6.15c-1.92-2.92-2.5-6.51-4-9.66-3.64-7.57-11.84-11.33-19-16.09a3.92,3.92,0,0,1,4.25-.38c7.06,4.82,16.61,3.22,24.66.35s16.09-6.86,24.61-6.3c9.6.62,17.9,6.94,27.29,9.12a32.6,32.6,0,0,0,20.5-2c3.51-1.56,19.06-16.39,22.16-14.13,1.14.83,13-6.28,13.39-4.92C268.94,132.72,261,151.66,261,152.72Z" transform="translate(-29.42 -3.47)" fill="url(#linear-gradient-3)"/><path d="M372.94,65.51a4.35,4.35,0,0,1,.8,4.74,12.93,12.93,0,0,1-3,4.08C360.33,85,346.2,94.81,335.81,105.47c-5.44,5.59-6.68,6.67-12.44,11.94-3.77,3.45-7.69,6.79-10.82,10.83-2.85,3.7-5.41,13.26-7.51,17.43l-10.53,21c-3.6,7.16-7.22,14.36-12,20.79a9.5,9.5,0,0,1-3.31,3.15,10.78,10.78,0,0,1-4.16.76c-7.36.42-14.9,1.64-22-.39s-13.59-8.69-12.37-16a22,22,0,0,1,3-7l12.73-22.45c3.84-6.76,7.67-13.52,11.64-20.21,3.11-5.23,6.39-10.52,11.08-14.4,4.14-3.43,9.15-5.58,14.09-7.69,10.47-4.48,21-8.45,30.68-14.45A240.85,240.85,0,0,1,354.6,72.62Q363.62,68.69,372.94,65.51Z" transform="translate(-29.42 -3.47)" fill="#fff"/><path d="M321.81,104.05c1.3-1.23,1.51-3.19,2.32-4.78,1.15-2.26,3.44-3.65,5.58-5A101.25,101.25,0,0,0,352,74.85c-9.23,2.35-17.32,7.78-25.2,13.12l-13.15,8.9c-5.22,3.54-10.52,7.14-14.54,12a2.72,2.72,0,0,0-.69,1.28c-.17,1.21,1.14,2,2.11,2.76,4.12,3.21,7.17,5.12,9.26-.84.87-2.49,1.81-4,4.28-5.28S319.84,105.91,321.81,104.05Z" transform="translate(-29.42 -3.47)" fill="url(#linear-gradient-4)"/><path d="M301,121.8a14.85,14.85,0,0,1,3.71,1.92,8.58,8.58,0,0,0,1.74,1,2.49,2.49,0,0,0,1.95,0,.72.72,0,0,0,.31-.29.81.81,0,0,0,0-.55,40.47,40.47,0,0,0-3-6.84,2.48,2.48,0,0,0-.54-.73,2.41,2.41,0,0,0-1.26-.4A15.14,15.14,0,0,0,300,116a3.6,3.6,0,0,0-2,.89,3.41,3.41,0,0,0-.77,1.64,7.57,7.57,0,0,0-.21,3.17c.62,0,1.29-.27,1.95-.27A7.36,7.36,0,0,1,301,121.8Z" transform="translate(-29.42 -3.47)" fill="url(#linear-gradient-5)"/><path d="M284.94,112a20.81,20.81,0,0,0-1.55,8,12.39,12.39,0,0,0,.77,5.9.83.83,0,0,0,.27.37,1,1,0,0,0,.67.06,10.07,10.07,0,0,1,3.75.2.42.42,0,0,1,.22.11.44.44,0,0,1,.11.25l.46,2.38c1.76,9-1.39,19.18-8.72,24.71a42.15,42.15,0,0,1-7.89,4.17c-4.82,2.23-9.54,5-13.09,8.91s-5.85,9.3-5.18,14.58a55.25,55.25,0,0,0,17.39-13.83c3.41-4.09,6.27-8.72,10.38-12.1,2.43-2,5.27-3.53,7.36-5.89,4-4.5,4.49-11,4.79-17,.41-8.4.23-18.17-6.36-23.38C287.65,109.85,285.3,111.23,284.94,112Z" transform="translate(-29.42 -3.47)" fill="url(#linear-gradient-6)"/><path d="M382.1,54.7c1.84-.6,4-.84,5.58.27a6.05,6.05,0,0,1,2,2.83c1,2.58,1.12,5.77-.64,7.92a11.1,11.1,0,0,1-4.22,2.76,49.65,49.65,0,0,1-10.22,3.78c-2.14.46-5.4.57-6.53-1.82-1-2.12,1.12-4.46,2.28-6.07C373.36,60.23,377.13,56.35,382.1,54.7Z" transform="translate(-29.42 -3.47)" fill="url(#linear-gradient-7)"/><path d="M234.72,131.59c-5.75,3.2-11.64,6.81-14.94,12.49-3.08,5.3-3.49,11.72-3.38,17.85A88.86,88.86,0,0,0,218.83,182c.18.73.48,1.56,1.19,1.79a2.18,2.18,0,0,0,1.54-.29,17.48,17.48,0,0,0,9.21-11.34c.43-1.75.59-3.55.91-5.31a58.65,58.65,0,0,1,3.69-11.36,15.13,15.13,0,0,1,2.48-4.55,14.65,14.65,0,0,1,4.07-2.86q12.45-6.81,25.14-13.2a44.8,44.8,0,0,0,8.87-5.35,14.5,14.5,0,0,0,5.32-8.66c.51-3.39,3.07-11-1.31-10.72s-13.36,4.1-17.31,5.82C252.85,120.27,244,126.4,234.72,131.59Z" transform="translate(-29.42 -3.47)" fill="#fff"/><path d="M282.15,116.26c-.29,1.71-.73,3.45-.9,4.66a14.54,14.54,0,0,1-5.32,8.65,44.8,44.8,0,0,1-8.87,5.35q-12.67,6.39-25.14,13.2a14.8,14.8,0,0,0-4.07,2.86,14.59,14.59,0,0,0-2.48,4.55,58.88,58.88,0,0,0-3.69,11.36c-.32,1.76-.48,3.56-.92,5.31a17.61,17.61,0,0,1-9.2,11.34,2.11,2.11,0,0,1-1.54.28c-.71-.22-1-1.06-1.18-1.78a88.94,88.94,0,0,1-2.44-20.11c-.12-6.14.3-12.54,3.38-17.85,3.31-5.69,9.2-9.3,14.93-12.49,9.32-5.19,18.14-11.32,27.92-15.58,4-1.71,13-5.51,17.31-5.83C282.77,110,282.71,113.1,282.15,116.26Z" transform="translate(-29.42 -3.47)" fill="#fff"/><path d="M275.77,111.51a52.4,52.4,0,0,0,7.48,6.17,14.52,14.52,0,0,0,9.19,2.51c.57-.07,1.25-.27,1.39-.83s-.4-1.09-.86-1.46c-2.5-2-4.53-4.93-4.55-8.14,0-1.54.41-3.19-.35-4.53-1-1.67-3.24-1.93-5.17-1.84a37,37,0,0,0-5.75.72c-1.6.33-14.5,6.06-12.88,6.46C264.54,110.64,270.76,106.88,275.77,111.51Z" transform="translate(-29.42 -3.47)" fill="#2c81db"/><path d="M276.25,107.19a6.54,6.54,0,0,1-1.75-.88,1.73,1.73,0,0,1-.7-1.71,2.07,2.07,0,0,1,.57-.91c1.92-2,4.8-2.77,7.54-3.29,3.95-.75,8.3-1.15,11.76.89.44.26.91.67.83,1.18a1.3,1.3,0,0,1-.47.71c-1.45,1.36-3.18,2.34-4.7,3.61s-2.21,3.33-3.66,4.6C282.94,113.78,278.94,108.28,276.25,107.19Z" transform="translate(-29.42 -3.47)" fill="url(#linear-gradient-8)"/><path d="M282.15,116.26c-.29,1.71-.73,3.45-.9,4.66a14.54,14.54,0,0,1-5.32,8.65,44.8,44.8,0,0,1-8.87,5.35q-12.67,6.39-25.14,13.2a14.8,14.8,0,0,0-4.07,2.86,14.59,14.59,0,0,0-2.48,4.55,58.88,58.88,0,0,0-3.69,11.36c-.32,1.76-.48,3.56-.92,5.31a17.13,17.13,0,0,1-3.62,7,98.7,98.7,0,0,1-1-13.09c-.11-6.13.3-12.55,3.38-17.85,3.3-5.68,9.19-9.29,14.94-12.5,9.32-5.18,18.13-11.31,27.91-15.56C274.58,119.19,278.44,117.55,282.15,116.26Z" transform="translate(-29.42 -3.47)" fill="url(#linear-gradient-9)"/><path d="M208.9,194.22a14.88,14.88,0,0,1,11.47-5.74,13.18,13.18,0,0,1,6.09.57,8.14,8.14,0,0,1,5,7.49,4.88,4.88,0,0,1-1,3.06,2.79,2.79,0,0,1-2.92,1,1,1,0,0,1-.69-.62,1.11,1.11,0,0,1,0-.54,8.23,8.23,0,0,0-.31-4.59,4.84,4.84,0,0,0-3.35-3,12.69,12.69,0,0,0-4.11.35c-2,.61-5.43,2-6.6,3.69s-1.26,4.57-3.05,5.84c-1.21.85-3.15,1.43-4-.42S207.74,195.53,208.9,194.22Z" transform="translate(-29.42 -3.47)" fill="#3e3e54"/><path d="M308.82,119.57c.1.44.14,1-.22,1.25a1.07,1.07,0,0,1-1.08,0c-1.68-.77-2.86-2.52-4.67-2.91a20.6,20.6,0,0,0-3.33,0c-1.11-.06-2.38-.74-2.41-1.85,0-.87.7-1.55,1.36-2.12,1.18-1,2.26-2.13,3.4-3.18,1.42-1.3,1.69-1.34,2.87.26A24.25,24.25,0,0,1,308.82,119.57Z" transform="translate(-29.42 -3.47)" fill="#fff"/><path d="M291.8,118.87a.9.9,0,0,0-.4.29.79.79,0,0,0-.08.46,6.4,6.4,0,0,0,1.36,3.42c.73,1,1.59,1.92,2.26,3a6.45,6.45,0,0,0,3.62-5.53,3.35,3.35,0,0,0-.78-2.47C296.26,116.44,293.33,118.13,291.8,118.87Z" transform="translate(-29.42 -3.47)" fill="#2c81db"/><path d="M292.48,137.38a15.88,15.88,0,0,1-4.2,9.37,17.72,17.72,0,0,1-6.33,3.78c-4.83,1.85-10,2.63-15,3.83s-10.1,2.89-14.06,6.23c-5.31,4.49-8,11.38-9.52,18.15l8.91-1a3.8,3.8,0,0,0,1.52-.39,3.87,3.87,0,0,0,1.23-1.48c3.19-5.45,7.27-10.51,12.55-14,4.89-3.2,10.59-4.91,15.82-7.5s10.31-6.48,12.05-12.06a24.06,24.06,0,0,0,.88-6.55c.08-2.93,0-5.87-.17-8.8a13.05,13.05,0,0,0-1.36-5.8c-1.18,2.52-2.63,4.64-2.36,7.44A40.35,40.35,0,0,1,292.48,137.38Z" transform="translate(-29.42 -3.47)" fill="#2c81db"/><path d="M222,177.7a7.57,7.57,0,0,0-2.77,3.64c-1.47,3.11-3,6.48-2.44,9.88a4.8,4.8,0,0,0,1.07,2.47,4.27,4.27,0,0,0,3.58,1.14,11,11,0,0,0,3.66-1.27c2.18-1.09,4.46-2.51,5.26-4.81.68-2,.1-4.14-.47-6.15-.38-1.31-1-5.16-2.27-5.86C226.58,176.2,223,177.15,222,177.7Z" transform="translate(-29.42 -3.47)" fill="url(#linear-gradient-10)"/><path d="M243.82,196.69a5.4,5.4,0,0,1,2.26.28,4.19,4.19,0,0,1,1.65,1.48,12.33,12.33,0,0,1,2,8,36.89,36.89,0,0,1-1.8,8.2l-6,20a13,13,0,0,1-2.64,5.44c-2.27,2.36-5.89,2.64-9.16,2.72-13.62.35-27.25-.25-40.85-1a30.14,30.14,0,0,1-9.5-1.58c-1.8-.72-3.58-2-4.1-3.82a7.2,7.2,0,0,1-.09-2.7,65.82,65.82,0,0,1,1.62-8.21c1.52-6.27,3.06-12.6,5.82-18.44a14.07,14.07,0,0,1,3.57-5.08,11.88,11.88,0,0,1,3.29-1.82c5.7-2.19,11.78-.79,17.71-1.36q11.66-1.12,23.34-1.65Q237.35,196.8,243.82,196.69Z" transform="translate(-29.42 -3.47)" fill="#3e3e54"/><path d="M242.36,196.87a5.52,5.52,0,0,1,2.26.28,4.22,4.22,0,0,1,1.66,1.48,12.4,12.4,0,0,1,2,8,36.91,36.91,0,0,1-1.81,8.2l-6,20a13,13,0,0,1-2.64,5.44c-2.27,2.36-5.89,2.64-9.16,2.73-13.62.34-27.24-.26-40.85-1a30.14,30.14,0,0,1-9.5-1.58c-1.79-.72-3.58-2-4.1-3.82a7.2,7.2,0,0,1-.08-2.7,66.15,66.15,0,0,1,1.61-8.21c1.52-6.27,3.06-12.6,5.82-18.44a14.15,14.15,0,0,1,3.57-5.08,11.6,11.6,0,0,1,3.29-1.81c5.7-2.2,11.78-.8,17.72-1.37q11.64-1.12,23.33-1.65Q235.89,197,242.36,196.87Z" transform="translate(-29.42 -3.47)" fill="url(#linear-gradient-11)"/><path d="M298.87,95.44a3.32,3.32,0,0,0,.71-1.2,3.25,3.25,0,0,0,0-1.28c-.44-2.71-1.33-5.39-1.15-8.14a11.66,11.66,0,0,1,3.76-7.67A14.21,14.21,0,0,1,310,73.61a8.5,8.5,0,0,1,5.51.88c2.22,1.37,3.24,4,3.83,6.56s.95,5.22,2.38,7.39c.39.59.89,1.27.68,2a3.3,3.3,0,0,1-.52.83c-1.52,2.22.29,5.62-1.26,7.82a4.38,4.38,0,0,1-1.47,1.23c-2.46,1.34-5.45,1.15-8.12,2a15.25,15.25,0,0,0-6.54,4.61c-1.8,2-3.28,4.29-4.91,6.44a6,6,0,0,1-6.22,2.84,3,3,0,0,1-3.51-2.43,15,15,0,0,1-1.06-4.64c-.08-3.15,1.78-4.23,3.68-6.3Q295.81,99.22,298.87,95.44Z" transform="translate(-29.42 -3.47)" fill="url(#linear-gradient-12)"/><path d="M313.27,68.94a10.69,10.69,0,0,0-6.8-.91,12,12,0,0,0-4,1.14c-3.54,1.82-5.33,5.93-8.67,8.09-1.21.79-2.63,1.32-3.58,2.4a4.36,4.36,0,0,0-1,3.84,3.92,3.92,0,0,1,.26,1.64,3.92,3.92,0,0,1-1,1.55,4.51,4.51,0,0,0-.16,5.25c1.38,2,4.11,2.51,5.73,4.27.83.9,1.5,2.18,2.72,2.33a3.24,3.24,0,0,0,2.26-.93c1.67-1.32,3.21-3.11,3.34-5.24,0-.73-.09-1.47,0-2.2a2.15,2.15,0,0,1,1.05-1.82,2.2,2.2,0,0,1,2.31.59c.62.57,1.06,1.31,1.67,1.89a.27.27,0,0,0,.18.1.26.26,0,0,0,.18-.09,2.56,2.56,0,0,0,.4-2.65,10.28,10.28,0,0,1-.78-2.72,4.36,4.36,0,0,1,1.66-3.2c.93-.82,2-1.44,3-2.25,1.56-1.34,3.54-3.81,4-5.87S315,69.94,313.27,68.94Z" transform="translate(-29.42 -3.47)" fill="#3e3e54"/><path d="M293.26,114.64c.76.74,1.71,1.77,1.17,2.69s-1.65.67-2.58.58a5.29,5.29,0,0,0-4.08,1.14c-1.43,1.34-1.72,3.72-3.42,4.71a44.23,44.23,0,0,1,.08-14.7,10.63,10.63,0,0,1,.56-2.15,11.4,11.4,0,0,1,2.32-3.18,4.22,4.22,0,0,1,4.57-.33s-2.24,3.32-2.11,4.36A11.87,11.87,0,0,0,293.26,114.64Z" transform="translate(-29.42 -3.47)" fill="#fff"/><path d="M213,120.13c0,2.5-3.14,3.93-5.6,3.44s-4.5-2.12-6.75-3.2c-7.4-3.54-16.08-.69-24.27-.61-10,.11-19.78-4.07-29.82-3.89A34.92,34.92,0,0,0,127,122.35a9.08,9.08,0,0,0-1.68,1.23c-.27.3-3,5.4-5.74,10.24a21.11,21.11,0,0,1,1.15-11.31l.18-.47A23,23,0,0,1,135,109.41c8.69-2.73,18.07-.33,27.18-.5,9.54-.18,19.09-3.21,28.48-1.57,7.32,1.27,14,5.29,20.7,8.59.36.63.68,1.27,1,1.92A5.44,5.44,0,0,1,213,120.13Z" transform="translate(-29.42 -3.47)" fill="url(#linear-gradient-13)"/></svg>