<svg id="Layer_1" data-name="Layer 1" xmlns="http://www.w3.org/2000/svg" xmlns:xlink="http://www.w3.org/1999/xlink" width="510.81" height="478.8" viewBox="0 0 510.81 478.8">
  <defs>
    <linearGradient id="linear-gradient" x1="380.12" y1="402.43" x2="137.99" y2="159.16" gradientUnits="userSpaceOnUse">
      <stop offset="0.01"/>
      <stop offset="0.13" stop-opacity="0.69"/>
      <stop offset="1" stop-opacity="0"/>
    </linearGradient>
    <linearGradient id="linear-gradient-2" x1="356.16" y1="403.88" x2="176.89" y2="223.76" xlink:href="#linear-gradient"/>
    <linearGradient id="linear-gradient-3" x1="276.8" y1="256.45" x2="306.74" y2="256.45" gradientTransform="matrix(1, 0, 0, -1, 0, 490)" gradientUnits="userSpaceOnUse">
      <stop offset="0" stop-color="#ecc4d7"/>
      <stop offset="0.42" stop-color="#efd4d1"/>
      <stop offset="1" stop-color="#f2eac9"/>
    </linearGradient>
    <linearGradient id="linear-gradient-4" x1="228.33" y1="196.6" x2="266.27" y2="196.6" xlink:href="#linear-gradient-3"/>
    <linearGradient id="linear-gradient-5" x1="261.32" y1="398.19" x2="251.37" y2="392.11" xlink:href="#linear-gradient-3"/>
    <linearGradient id="linear-gradient-6" x1="265.89" y1="418.75" x2="271.62" y2="400.71" xlink:href="#linear-gradient-3"/>
    <linearGradient id="linear-gradient-7" x1="64.91" y1="418.77" x2="535.15" y2="418.77" xlink:href="#linear-gradient"/>
    <linearGradient id="linear-gradient-8" x1="227.89" y1="395.76" x2="487.45" y2="395.76" xlink:href="#linear-gradient"/>
    <linearGradient id="linear-gradient-9" x1="259.95" y1="172.53" x2="104.26" y2="79.8" xlink:href="#linear-gradient"/>
    <linearGradient id="linear-gradient-10" x1="227" y1="149.15" x2="171.22" y2="145.64" xlink:href="#linear-gradient"/>
    <linearGradient id="linear-gradient-11" x1="143.85" y1="145.61" x2="202.81" y2="159.63" xlink:href="#linear-gradient"/>
    <linearGradient id="linear-gradient-12" x1="159.01" y1="185.82" x2="204.81" y2="169.79" xlink:href="#linear-gradient"/>
    <linearGradient id="linear-gradient-13" x1="191.53" y1="102.11" x2="252.49" y2="186.53" xlink:href="#linear-gradient"/>
    <linearGradient id="linear-gradient-14" x1="172.85" y1="179.8" x2="184.81" y2="179.8" xlink:href="#linear-gradient"/>
    <linearGradient id="linear-gradient-15" x1="193.78" y1="181.41" x2="227.63" y2="173.81" gradientUnits="userSpaceOnUse">
      <stop offset="0.01"/>
      <stop offset="0.42" stop-opacity="0"/>
    </linearGradient>
    <linearGradient id="linear-gradient-16" x1="223.94" y1="174.1" x2="184.73" y2="195" xlink:href="#linear-gradient"/>
    <linearGradient id="linear-gradient-17" x1="185.95" y1="167.39" x2="200.87" y2="167.39" xlink:href="#linear-gradient"/>
    <linearGradient id="linear-gradient-18" x1="223.57" y1="139.63" x2="247.07" y2="139.63" xlink:href="#linear-gradient"/>
    <linearGradient id="linear-gradient-19" x1="236.35" y1="124.16" x2="235.96" y2="194.94" xlink:href="#linear-gradient"/>
    <linearGradient id="linear-gradient-20" x1="307.47" y1="124.34" x2="261.67" y2="127.49" xlink:href="#linear-gradient"/>
    <linearGradient id="linear-gradient-21" x1="223.37" y1="176.35" x2="309.69" y2="157.97" xlink:href="#linear-gradient"/>
    <linearGradient id="linear-gradient-22" x1="251.2" y1="110.02" x2="236.22" y2="102.96" xlink:href="#linear-gradient"/>
    <linearGradient id="linear-gradient-23" x1="227.54" y1="112.8" x2="275.62" y2="109.36" xlink:href="#linear-gradient"/>
    <linearGradient id="linear-gradient-24" x1="218.04" y1="117.69" x2="136.19" y2="97.09" xlink:href="#linear-gradient"/>
    <linearGradient id="linear-gradient-25" x1="196" y1="149.43" x2="223.33" y2="182.92" gradientUnits="userSpaceOnUse">
      <stop offset="0.01"/>
      <stop offset="1" stop-opacity="0"/>
    </linearGradient>
    <linearGradient id="linear-gradient-26" x1="159.75" y1="158" x2="179.59" y2="182.04" xlink:href="#linear-gradient-25"/>
    <linearGradient id="linear-gradient-27" x1="207.11" y1="323.28" x2="205.39" y2="613.48" xlink:href="#linear-gradient"/>
    <linearGradient id="linear-gradient-28" x1="217.24" y1="356.28" x2="248.96" y2="356.28" xlink:href="#linear-gradient"/>
    <linearGradient id="linear-gradient-29" x1="271.27" y1="277.01" x2="313.89" y2="277.01" xlink:href="#linear-gradient"/>
  </defs>
  <title>Hiking Traveller</title>
  <path d="M535.15,358.09q-1.1,2.16-2.25,4.29c-7,13-15.45,25.82-27.64,34.26-16.57,11.48-86.72,76.91-106.85,78.13-93.61,5.8-113.45,9.66-207.16,4.88-23-1.17-97.18-52.63-126.34-80.27A94.83,94.83,0,0,1,56.07,390C37.37,366.45,81,326.6,92.26,306.58c31.92-56.72.71-131.23,25.51-191.41,17.28-42,58.55-68.71,99.11-89.14,30.29-15.25,64.45-28.77,97.38-20.54C356,16,382,58.05,395.58,98.91c6.71,20,11.59,40.86,21.65,59.56s26.22,35.28,47,39.55c8.74,1.83,17.79,1.32,26.63,2.64,32.33,5,56.62,35.37,62.21,67.59C558.35,298.89,549.33,330.35,535.15,358.09Z" transform="translate(-43.76 -3)" fill="#2c81db" opacity="0.07" style="isolation: isolate"/>
  <path d="M270.44,304.41c3.35-1.83,6.81-3.86,8.94-7,2.34-3.56,2.95-8.44,6.51-10.88a15.53,15.53,0,0,1,5.29-1.83l31.71-6.1c7.83-1.52,16-3,23.89-1.52s14.74,6.1,21.34,10.47c13.12,8.64,26.23,17.38,39.34,26,2.54,1.73,5.29,3.45,6.91,6.1a20.82,20.82,0,0,1,2.54,6.6,199.84,199.84,0,0,1,4.68,23.28,16.66,16.66,0,0,1,0,6.71c-.51,2.24-1.93,4.07-3.25,5.9-9.46,13.11-18.91,26.12-28.46,39.23-2.14,3.05-4.68,6.2-8.34,6.91-2,.41-4.17-.1-6.2-.5-24.5-4.88-50.32-1.73-74.3-8.54-9-2.54-17.39-6.41-25.82-10.27s-17.08-7.83-25.62-11.79c-14-6.4-43.3-17.79-28.87-37.2C232.73,324,253.46,313.76,270.44,304.41Z" transform="translate(-43.76 -3)" fill="#2c81db"/>
  <path d="M270.44,304.41c3.35-1.83,6.81-3.86,8.94-7,2.34-3.56,2.95-8.44,6.51-10.88a15.53,15.53,0,0,1,5.29-1.83l31.71-6.1c7.83-1.52,16-3,23.89-1.52s14.74,6.1,21.34,10.47c13.12,8.64,26.23,17.38,39.34,26,2.54,1.73,5.29,3.45,6.91,6.1a20.82,20.82,0,0,1,2.54,6.6,199.84,199.84,0,0,1,4.68,23.28,16.66,16.66,0,0,1,0,6.71c-.51,2.24-1.93,4.07-3.25,5.9-9.46,13.11-18.91,26.12-28.46,39.23-2.14,3.05-4.68,6.2-8.34,6.91-2,.41-4.17-.1-6.2-.5-24.5-4.88-50.32-1.73-74.3-8.54-9-2.54-17.39-6.41-25.82-10.27s-17.08-7.83-25.62-11.79c-14-6.4-43.3-17.79-28.87-37.2C232.73,324,253.46,313.76,270.44,304.41Z" transform="translate(-43.76 -3)" fill="url(#linear-gradient)"/>
  <path d="M239.33,366.31l41.21-8.58,1.15-44.08,32.25-32,4.95,60.63L363,404.09s-68.12-5.15-81.85-16.6S239.33,366.31,239.33,366.31Z" transform="translate(-43.76 -3)" fill="url(#linear-gradient-2)"/>
  <path d="M306.32,203.17c.92,3.35.31,6.91-.51,10.27-3.66,15.65-10.87,30.18-15,45.64-.71,2.64-1.32,5.38-2.95,7.52s-4.57,3.66-7.11,2.74a6.5,6.5,0,0,1-3.77-5.28,22.38,22.38,0,0,1,.51-6.81c1.83-11.29,1.32-23,3.76-34.16,1.53-7,4.48-14,9.25-19.51C295,198.49,303.47,193.11,306.32,203.17Z" transform="translate(-43.76 -3)" fill="url(#linear-gradient-3)"/>
  <path d="M230.59,299.43c-1.83,10.77,1.12,22.26-1.93,32.73a4,4,0,0,0-.2,2.44,3,3,0,0,0,1.73,1.42,19.22,19.22,0,0,0,7.11,1.83,3.46,3.46,0,0,0,2.44-.51,4.82,4.82,0,0,0,1.22-2.13q10.83-34.6,21.65-69.22c1.73-5.59,3.46-11.29,3.66-17.08,0,.1-16.57,2-18.4,3.15-3.76,2.34-3.66,6.71-4.37,10.57C241.27,275.75,232.83,286.52,230.59,299.43Z" transform="translate(-43.76 -3)" fill="url(#linear-gradient-4)"/>
  <path d="M254.89,88a2.64,2.64,0,0,1,.91-.91,2.79,2.79,0,0,1,1.63-.1c2.13.4,3.76,2.13,5.18,3.76A14.33,14.33,0,0,1,266,96.54c0,.2.1.41,0,.51a.79.79,0,0,1-.51.2c-3,.31-10,.92-12.61-.91S253.57,89.83,254.89,88Z" transform="translate(-43.76 -3)" fill="url(#linear-gradient-5)"/>
  <path d="M277.55,93.29c-.61,1.73-1.42,3.56-2.94,4.57-1.93,1.32-4.58,1-6.81.21a14.62,14.62,0,0,1-6.1-4.48,25.83,25.83,0,0,0-2.54-3,24.46,24.46,0,0,1-2-1.52,6,6,0,0,1-1.72-6,4.14,4.14,0,0,1,1.83-2.34,2.45,2.45,0,0,1,2.74.41,26.46,26.46,0,0,1,1.22-7.93,9.1,9.1,0,0,1,2.64-4.47,9.2,9.2,0,0,1,4.37-1.42c4.58-.72,12.71-1.63,12.91,4.67A55.72,55.72,0,0,1,277.55,93.29Z" transform="translate(-43.76 -3)" fill="url(#linear-gradient-6)"/>
  <path d="M255.4,91.56c-6.1-3.35-8.44-11.79-5.8-18.2s9.25-10.77,16.16-11.68a13.54,13.54,0,0,1,5.39.2c-.2.3.31.3.71.3,3.26.61,6.71.21,10,1.12s6.31,3.76,5.9,7.12a3.82,3.82,0,0,0-4.88,2.84,6,6,0,0,1-.3,1.43,1.94,1.94,0,0,1-1.22.91,7.92,7.92,0,0,1-5.9.1c-1.73-.71-3.56-2-5.29-1.32s-2.54,3.36-4.47,3.56c-1,.1-2.23-.41-3.05.3-.51.41-.51,1.22-.61,1.83s-.51,1.43-1.22,1.33c-.4,0-.81-.41-1.12-.72a2.69,2.69,0,0,0-3.65.92,4.48,4.48,0,0,0-.41,4,18.65,18.65,0,0,0,1.83,3.76,3.39,3.39,0,0,1,.4,1.32C257.63,92,256.51,91.46,255.4,91.56Z" transform="translate(-43.76 -3)" fill="#3f3d56"/>
  <path d="M243.4,97.05a5.77,5.77,0,0,1,1.83-2.75,6.34,6.34,0,0,1,3.05-.5c2.13.1,4.17.4,6.3.71a15.32,15.32,0,0,1,3.15.81,21.66,21.66,0,0,1,4.88,3.05,75.12,75.12,0,0,0-9.65,1c-2.75.5-5.39,1.52-8.14,1.93C241.27,101.93,242.49,99.39,243.4,97.05Z" transform="translate(-43.76 -3)" fill="#2c81db"/>
  <path d="M222.66,126.63a87.59,87.59,0,0,0-2.23,10.16c-1.83,10.07-3.66,20-5.49,30.09-.61,3.15-.92,6.81,1.52,8.84,1.33,1.12,3.16,1.43,4.88,1.83a3.2,3.2,0,0,1,1.53.82,4,4,0,0,1,.51,1.62c.5,4.27.91,8.54,1.42,12.81a3,3,0,0,0,.51,1.63,2.74,2.74,0,0,0,2.13.71,121.12,121.12,0,0,0,43.91-6,2.9,2.9,0,0,0,1.33-.81,2.09,2.09,0,0,0,.3-1.12c.31-2.64.71-5.18,1-7.83a14.69,14.69,0,0,0-.1-6.3c-.61-2.13-2.24-3.86-3-5.89a9.4,9.4,0,0,1,.3-7.42c3.25-.41,5.18,4.57,8.54,4.47,1.73-.1,2.95-1.43,4.07-2.75,3.25-4,6.6-7.93,9.86-12a3.78,3.78,0,0,0,1-1.73,3.74,3.74,0,0,0-.3-2.34,9.7,9.7,0,0,0-6.51-5.59c-1.63-.4-3.56-.4-4.88-1.42a6.66,6.66,0,0,1-2.13-3.76c-2.65-8-5.29-16.16-6.81-24.5a19.64,19.64,0,0,0-2-6.81c-1.72-2.95-5.08-4.57-8.43-5.18a31.11,31.11,0,0,0-10.17.51c-3.56.61-8.64.71-11.69,2.54a50.23,50.23,0,0,0-19,25.41Z" transform="translate(-43.76 -3)" fill="#2c81db"/>
  <path d="M274.2,110.26c2.54,1.83,28.56.71,28.56.71L288,139.84s-3.54.22-5.08-1.42S279.88,134.54,274.2,110.26Z" transform="translate(-43.76 -3)" fill="#2c81db"/>
  <path d="M293.51,191.17c3.36.21,6.81.21,9.76,1.83a5.6,5.6,0,0,1,2,1.73c1.22,2.14-.1,4.78-1.42,6.81-3.15,4.88-6.3,9.86-9.45,14.74a6.32,6.32,0,0,1-.71.92,3.74,3.74,0,0,1-2.54.4,124.74,124.74,0,0,0-26.13-.3c-2.64-3.56-5.28-7.22-6.81-11.39s-1.83-9,.31-13a12.32,12.32,0,0,1,14-5.69C279.38,189.24,286,190.87,293.51,191.17Z" transform="translate(-43.76 -3)" fill="#3f3d56"/>
  <path d="M226.83,330.43a23.89,23.89,0,0,1-1,2.85,12.74,12.74,0,0,0-.61,3.45c-.21,1.63-.41,3.26-.61,5a3.13,3.13,0,0,0,.1,1.73c.3.61.91.82,1.52,1.12,2.85,1,6.1.92,9.15.92,1.42,0,3-.21,3.86-1.33a3.83,3.83,0,0,0,.61-1.52c.71-2.64,1.32-5.18,1.83-7.83,0-.2.1-.51-.1-.61a.77.77,0,0,0-.51-.2c-2.54-.2-4.37-1.53-6.6-2.24A29.47,29.47,0,0,0,226.83,330.43Z" transform="translate(-43.76 -3)" fill="#2c81db"/>
  <path d="M217.07,352.39a9.18,9.18,0,0,0-1.11,4.37c.3,2.64,2.84,4.27,5.18,5.59a106.48,106.48,0,0,0,29,10.88,16.27,16.27,0,0,1,3.25.81,25.89,25.89,0,0,0,3.56,1.52c1.22.31,2.85,0,3.35-1.22a3.72,3.72,0,0,0-.4-3.25,44.06,44.06,0,0,0-5.9-9.55,56.89,56.89,0,0,1-4.78-6c-1.21-2-2-4.27-3.25-6.2a12.31,12.31,0,0,0-4-4,11.21,11.21,0,0,0-6.2-1.93c-2.34-.2-4.68-.51-7.12-.71-1.62-.2-4.17-1-5.79-.81-1.83.3-2.24,2.64-3,4.06S217.07,350.56,217.07,352.39Z" transform="translate(-43.76 -3)" fill="#3f3d56"/>
  <path d="M291.68,254.3a2.14,2.14,0,0,1,1.73.61,1.91,1.91,0,0,1,0,1.83q-1.68,5.49-3.35,11a4,4,0,0,1-.71,1.42,3.73,3.73,0,0,1-2,.91,38.39,38.39,0,0,1-9.65.51A7.66,7.66,0,0,1,275,270c-1.83-1-2.23-3.45-2.13-5.49.1-2.74,1.22-9.15,4.17-10.06,1.83-.61,5.08,0,7.11.1C286.6,254.3,289.14,254.3,291.68,254.3Z" transform="translate(-43.76 -3)" fill="#2c81db"/>
  <path d="M295.75,269.75c-1.93-1.32-4-2.44-6-3.56a5.81,5.81,0,0,0-1.83-.71,6.7,6.7,0,0,0-3.05.71c-3.25,1.12-6.91.92-10.36.71a5.05,5.05,0,0,0-1.73.1c-.51.21-1.12.61-1.22,1.12-.31.21-.41-.4-.1-.2s.3.61.2.91a30.28,30.28,0,0,0-.51,14.13c.1.31.1.71.31.92a2,2,0,0,0,1.32.61,82.59,82.59,0,0,0,35.27-.61,17.25,17.25,0,0,0,5.89-2.24c1.53-1,2.85-2.74,2.24-4.47a5.07,5.07,0,0,0-1.63-2A25.62,25.62,0,0,0,295.75,269.75Z" transform="translate(-43.76 -3)" fill="#3f3d56"/>
  <path d="M535.15,358.09q-1.1,2.16-2.25,4.29c-7,13-15.45,25.82-27.64,34.26-16.57,11.48-86.72,76.91-106.85,78.13-93.61,5.8-113.45,9.66-207.16,4.88-23-1.17-97.18-52.63-126.34-80.27l370.4-43.64a213.33,213.33,0,0,1,65.06,32.43C504.63,372.49,519.23,363.72,535.15,358.09Z" transform="translate(-43.76 -3)" fill="#2c81db"/>
  <path d="M535.15,358.09q-1.1,2.16-2.25,4.29c-7,13-15.45,25.82-27.64,34.26-16.57,11.48-86.72,76.91-106.85,78.13-93.61,5.8-113.45,9.66-207.16,4.88-23-1.17-97.18-52.63-126.34-80.27l370.4-43.64a213.33,213.33,0,0,1,65.06,32.43C504.63,372.49,519.23,363.72,535.15,358.09Z" transform="translate(-43.76 -3)" fill="url(#linear-gradient-7)"/>
  <path d="M408.07,367.88c-7.13,8.05-17.59,12.54-28.18,14.4s-21.43,1.35-32.17.81c22.4,7.87,45.3,15.82,69,16.08,8.3.1,16.58-.76,24.87-1.32a352.37,352.37,0,0,1,45.61-.16c1.05,4.08-2.16,8-5.48,10.57-18.61,14.48-45,12.23-67,20.69-5.84,2.25-11.58,5.31-17.83,5.52-8.66.31-16.41-4.82-24-9-22.39-12.47-47.84-18.15-73-23-25.5-4.89-52.55-9.72-72-26.87,3.27-3.17,7.93-4.36,12.37-5.38,44.27-10.2,90.09-16.2,135.5-11.59C386.82,359.73,397.7,363.81,408.07,367.88Z" transform="translate(-43.76 -3)" fill="url(#linear-gradient-8)"/>
  <path d="M247.47,120.22A300.08,300.08,0,0,0,244.93,162c0,4.07.1,8.24-1.22,12.1a25.17,25.17,0,0,1-4.88,8c-13.22,14.84-35.88,16.06-55.6,14a11.43,11.43,0,0,1-5.49-1.53c-2-1.32-3.05-3.66-3.87-5.89-4.57-12.51-5.28-26.13-4.77-39.55.4-10.67,1.62-21.44,5.69-31.41s11.08-18.9,20.84-23.48a34.73,34.73,0,0,1,36.89,5.39c1.22,1.12,2.55,2.34,4.17,2.34,1.43,0,2.75-.92,4-1.63,4.16-2.54,13.52-6.5,13.92-.2.1,2.24-3.56,6.4-4.37,8.54A45.32,45.32,0,0,0,247.47,120.22Z" transform="translate(-43.76 -3)" fill="#2c81db"/>
  <path d="M247.47,120.22A300.08,300.08,0,0,0,244.93,162c0,4.07.1,8.24-1.22,12.1a25.17,25.17,0,0,1-4.88,8c-13.22,14.84-35.88,16.06-55.6,14a11.43,11.43,0,0,1-5.49-1.53c-2-1.32-3.05-3.66-3.87-5.89-4.57-12.51-5.28-26.13-4.77-39.55.4-10.67,1.62-21.44,5.69-31.41s11.08-18.9,20.84-23.48a34.73,34.73,0,0,1,36.89,5.39c1.22,1.12,2.55,2.34,4.17,2.34,1.43,0,2.75-.92,4-1.63,4.16-2.54,13.52-6.5,13.92-.2.1,2.24-3.56,6.4-4.37,8.54A45.32,45.32,0,0,0,247.47,120.22Z" transform="translate(-43.76 -3)" fill="url(#linear-gradient-9)"/>
  <path d="M225.39,174.53c-.23,6.72-3,13.85-8.83,17.17-2.88,1.64-6.21,2.21-9.48,2.76a88.57,88.57,0,0,1-14.85,1.64,19.36,19.36,0,0,1-9.15-1.87c-3.94-2.1-6.42-6.14-8.51-10.08a36.59,36.59,0,0,1-3.32-7.88,41.87,41.87,0,0,1-.87-11c.09-8.27.32-16.58,1.86-24.71a69.55,69.55,0,0,1,2.09-8.21A126.86,126.86,0,0,0,190,131.5c5.77-.7,11.84-2,16.06-6,5.7-5.39,6.5-14.2,11-20.61a27.23,27.23,0,0,1,5.06-5.28c2.34,1.44.66,3-.19,5.89-1.93,6.49-1.73,13.4-1.54,20.1.27,9.69.55,19.41,2.21,29C223.8,161.21,225.62,167.81,225.39,174.53Z" transform="translate(-43.76 -3)" fill="url(#linear-gradient-10)"/>
  <path d="M179.25,164.49c.57,1.19,1.33,2.38,1.26,3.69a2.28,2.28,0,0,1-1.7,2c-.19-.48-.37-1-.57-1.48a27,27,0,0,0-1.11-2.53,2.17,2.17,0,0,0-1.73.08c-2.28-3.87-4.27-7.93-4.67-12.36a37.15,37.15,0,0,1,.7-8.92c.42-2.58.88-5.24,2.3-7.42a3.09,3.09,0,0,1,.26-.37h.09c2.17.32,4.35.64,6.51.87.52,3.75-.93,8.28-1.66,11.73C177.89,154.68,177.13,160,179.25,164.49Z" transform="translate(-43.76 -3)" fill="url(#linear-gradient-11)"/>
  <path d="M184.75,190.46a5.13,5.13,0,0,1-.27.78,6.63,6.63,0,0,1-1.73,2.31,9.31,9.31,0,0,1-6.23,2.2c-3.46-.1-6.81-1.73-9.86-3.56a23.49,23.49,0,0,1-3.26-2.34c-2.94-2.84-3.76-7.11-4.16-11.18a39.68,39.68,0,0,1-.17-7.39c-.49-.54-1-1.09-1.46-1.65l17.65-6a9.1,9.1,0,0,1,1.87,2.57,27,27,0,0,1,1.11,2.53c1.83,4.78,3.56,9.45,5.39,14.23a23.09,23.09,0,0,1,1.18,3.85A7.59,7.59,0,0,1,184.75,190.46Z" transform="translate(-43.76 -3)" fill="#2c81db"/>
  <path d="M184.75,190.46a5.13,5.13,0,0,1-.27.78,6.63,6.63,0,0,1-1.73,2.31,9.31,9.31,0,0,1-6.23,2.2c-3.46-.1-6.81-1.73-9.86-3.56a23.49,23.49,0,0,1-3.26-2.34c-2.94-2.84-3.76-7.11-4.16-11.18a39.68,39.68,0,0,1-.17-7.39c-.49-.54-1-1.09-1.46-1.65l17.65-6a9.1,9.1,0,0,1,1.87,2.57,27,27,0,0,1,1.11,2.53c1.83,4.78,3.56,9.45,5.39,14.23a23.09,23.09,0,0,1,1.18,3.85A7.59,7.59,0,0,1,184.75,190.46Z" transform="translate(-43.76 -3)" fill="url(#linear-gradient-12)"/>
  <path d="M232,98c-1.32,2-6.81,2.54-9,4.48-2.84,2.54-4.88,6.3-6.3,10.06-2.44,6.3-3.76,13.32-8.34,18.3-4.06,4.57-10.16,6.91-16.16,7.52a55.06,55.06,0,0,1-11.68-.25c-2.16-.23-4.34-.55-6.51-.87H174a6.55,6.55,0,0,1-3.78-1.41c-1-1-1.32-2.75-.2-3.56a3.33,3.33,0,0,1,2.24-.51c11.59,0,24.49-.41,32.42-8.74,4.78-5,6.81-12,10.37-18,2.14-3.66,5.29-7.22,9.25-9C226.43,95,235.17,93.19,232,98Z" transform="translate(-43.76 -3)" fill="url(#linear-gradient-13)"/>
  <path d="M159.24,170c0,.16-.05.33-.07.5" transform="translate(-43.76 -3)" fill="none" stroke="#000" stroke-miterlimit="10" stroke-width="1.03"/>
  <path d="M184.81,186.79c-.05,1.3-.14,2.6-.26,3.88,0,.19-.05.37-.07.57a3.51,3.51,0,0,1-.64,1.66,1.61,1.61,0,0,1-1.09.65,1.24,1.24,0,0,1-.95-.24,3.49,3.49,0,0,1-.51-.71,115.46,115.46,0,0,1-5.69-12.4c-1.22-3.15-3.86-8.14-2.23-11.49a5,5,0,0,1,2-2.45,2.17,2.17,0,0,1,1.73-.08,27,27,0,0,1,1.11,2.53c.2.5.38,1,.57,1.48,1.62,4.27,3.19,8.47,4.82,12.75A23.09,23.09,0,0,1,184.81,186.79Z" transform="translate(-43.76 -3)" fill="url(#linear-gradient-14)"/>
  <path d="M199.59,166.58c0,.16-.05.32-.07.49" transform="translate(-43.76 -3)" fill="none" stroke="#000" stroke-miterlimit="10" stroke-width="1.03"/>
  <path d="M215.61,160.15a13.48,13.48,0,0,1,3,5.1c1.83,4.78,3.56,9.46,5.39,14.24.91,2.43,1.83,5.08,1.11,7.52-.91,3.35-4.77,5.38-8.23,5.28s-6.81-1.73-9.86-3.55a24.51,24.51,0,0,1-3.25-2.34c-2.95-2.85-3.76-7.12-4.17-11.18a39.81,39.81,0,0,1-.16-7.39c-.5-.54-1-1.09-1.47-1.66" transform="translate(-43.76 -3)" fill="url(#linear-gradient-15)"/>
  <path d="M221.65,189.14a2.86,2.86,0,0,0,.51.71,1.47,1.47,0,0,0,2-.4,4.16,4.16,0,0,0,.71-2.24,43.63,43.63,0,0,0-.3-12.6c-.61-3.26-6.71-18-10.88-9.36-1.63,3.36,1,8.34,2.24,11.49A121.51,121.51,0,0,0,221.65,189.14Z" transform="translate(-43.76 -3)" fill="#2c81db"/>
  <path d="M221.65,189.14a2.86,2.86,0,0,0,.51.71,1.47,1.47,0,0,0,2-.4,4.16,4.16,0,0,0,.71-2.24,43.63,43.63,0,0,0-.3-12.6c-.61-3.26-6.71-18-10.88-9.36-1.63,3.36,1,8.34,2.24,11.49A121.51,121.51,0,0,0,221.65,189.14Z" transform="translate(-43.76 -3)" fill="url(#linear-gradient-16)"/>
  <path d="M193.09,138.22a55.43,55.43,0,0,0-1.63,10.87c-.61,11.18,2,22.26,4.67,33.14,1,4.07,1.94,8.13,4.17,11.69a2.78,2.78,0,0,1,.51,1.93c-.3.61-1.12.71-1.83.71-1.63,0-3-1.32-4.67-1.73-.21.41-.31.72-.51,1.12a116.56,116.56,0,0,1-7.32-53.06,23.37,23.37,0,0,1,.61-3.76" transform="translate(-43.76 -3)" fill="url(#linear-gradient-17)"/>
  <path d="M230.19,123.48a3.35,3.35,0,0,0-1.43.1,3.17,3.17,0,0,0-1,1,22.9,22.9,0,0,0-2.85,8.53,88.44,88.44,0,0,0-1.32,12.61,9.8,9.8,0,0,0,.41,3.86c1.11,3.46,5.08,5,8.64,5.69,3.76.82,8.13.92,11-1.73s3.05-7,3.05-10.87c0-4.27,1.73-13.72-1.83-17.08C241.77,122.87,234,123.78,230.19,123.48Z" transform="translate(-43.76 -3)" fill="url(#linear-gradient-18)"/>
  <path d="M244,133.44c-1.32,1.12-2.74,2.23-4.06,3.35a1.78,1.78,0,0,1-1.12.61,2.09,2.09,0,0,1-1.32-.51,40.53,40.53,0,0,1-6.92-5.69c-.81-.81-1.62-1.93-1.42-3-.41,6.41-1.12,12.81-1,19.32a6.39,6.39,0,0,0,.61,3.35c1.12,2,3.76,2.44,6.1,2.44a7.54,7.54,0,0,0,3.66-.61c1.73-1,2.34-3.05,2.95-4.88.61-2,1.12-4,1.73-6a31.46,31.46,0,0,0,1-4.16A9.5,9.5,0,0,0,244,133.44Z" transform="translate(-43.76 -3)" fill="url(#linear-gradient-19)"/>
  <path d="M168,58.49c7.63.92,14.44-4.47,21.76-6.81a29,29,0,0,1,23.68,3,10.43,10.43,0,0,1,4.47,4.68c2.34,5.79-4.27,11.18-10.16,13.52a95.85,95.85,0,0,1-30.09,6.7c-4.68.31-9.35.21-13.82,1.53-7.42,2.13-13.42,7.72-20.74,10-7.83,2.44-16.16.92-24.19-.61C104.47,87.77,90,85,75.5,82.38c-1.52-.31-3.15-.61-4.16-1.73-1.22-1.22-1.43-3.25-1.63-5-.61-7.12-1-14.94,3-20.94,9-13.72,31.92-10.16,45.94-10.88,8.34-.4,15.76-.81,24,1.94C151.44,48.94,158.86,57.48,168,58.49Z" transform="translate(-43.76 -3)" fill="#2c81db" opacity="0.37"/>
  <path d="M274.81,113.72l11.79.61a34.16,34.16,0,0,1,8,1,143,143,0,0,0-10.77,23.48" transform="translate(-43.76 -3)" fill="url(#linear-gradient-20)"/>
  <path d="M278.16,127.34c1-.41,2-.81,3-1.32a2.51,2.51,0,0,0,.82-.61c.61-1-.71-2.24-.61-3.46s1.32-1.73,2.34-2,2.23-.51,2.84-1.42" transform="translate(-43.76 -3)" fill="none" stroke="#000" stroke-miterlimit="10" stroke-width="1.54"/>
  <path d="M269.52,254.5a201.4,201.4,0,0,0-30.39,1c.1-7.83.1-15.66.21-23.48a5.28,5.28,0,0,0-.51-2.85,6.47,6.47,0,0,0-1.93-1.73c-5.9-3.76-12.3-8.54-12.71-15.55-.2-2.85.71-5.69,1.63-8.44,1.62-4.88,3.35-10.06,7.31-13.21a22.64,22.64,0,0,1,6.61-3.35,55.4,55.4,0,0,1,23.38-2.75c2.64.31,5.59.92,7,3.25,2.75,4.58,4.38,7.83,5.39,13.22a91,91,0,0,1,1.53,18.19A95.13,95.13,0,0,1,269.52,254.5Z" transform="translate(-43.76 -3)" fill="#525263"/>
  <path d="M261.69,147.27c-.63-.34-1.52-.51-2,0a1.77,1.77,0,0,0-.3.93c-.72,6,0,12.1-.64,18.11s-3,12.33-8.21,15.44c-.63.39-4.16,3.19-4.23,3.93-.12,1.3,4.51-.7,5.81-.79a37.71,37.71,0,0,1,15.51,2.17c1.59.58,3.66,1.15,4.75-.14a4,4,0,0,0,.7-1.93c.64-3.6,1.27-7.32.39-10.86-.64-2.56-2.05-4.87-2.69-7.42a12.74,12.74,0,0,1-.39-3.48c0-.91.84-3,.56-3.73-.39-1.06-2.71-2.5-3.43-3.7C265.82,152.92,264.9,149,261.69,147.27Z" transform="translate(-43.76 -3)" fill="url(#linear-gradient-21)"/>
  <path d="M247.47,120.22s.83-20.17,16.86-21.88c0,0,.28-1.15-.2-1.34s-10.78-.76-11.73.38S241.52,109,244.2,123.9l2.38,3.06Z" transform="translate(-43.76 -3)" fill="#2c81db"/>
  <path d="M247.47,120.22s.83-20.17,16.86-21.88c0,0,.28-1.15-.2-1.34s-10.78-.76-11.73.38S241.52,109,244.2,123.9l2.38,3.06Z" transform="translate(-43.76 -3)" fill="url(#linear-gradient-22)"/>
  <path d="M236.69,102s3.5,15,2.35,19.3,3.44,3.15,3.44,3.15-.29-8.59,2-13.46.86-12.3.86-12.3Z" transform="translate(-43.76 -3)" fill="url(#linear-gradient-23)"/>
  <path d="M223.26,98.77c-.36.28-.73.57-1.09.87a27.23,27.23,0,0,0-5.06,5.28c-4.51,6.41-5.31,15.22-11,20.61-4.22,4-10.29,5.27-16.06,6a126.86,126.86,0,0,1-15.71.89c-1.67,0-3.33,0-5-.12.62-7.53,4.46-14.38,8.21-21,3.24-5.64,6.61-11.47,11.87-15.31,6-4.38,13.7-5.66,21.11-5.66,4.91,0,10.95.47,15,3.56C228.43,96.11,225.29,97.22,223.26,98.77Z" transform="translate(-43.76 -3)" fill="url(#linear-gradient-24)"/>
  <path d="M215.85,163.32c-.3,1.73-1.62,3.15-2.84,4.48-1.83,1.83-3.56,3.65-5.29,5.48a2.36,2.36,0,0,1-1,.72,1.78,1.78,0,0,1-1.53-.61,77.23,77.23,0,0,1-5.75-5.56c0-.26,0-.51.09-.76a2.37,2.37,0,0,1-.13.32,3.8,3.8,0,0,1-1.93-3.36,4.06,4.06,0,0,1,1.62-3.55,7.72,7.72,0,0,1,2.95-1.32,35,35,0,0,1,9.76-1.83,3.75,3.75,0,0,1,3.25,1.22,3.36,3.36,0,0,1,.57,1.6,1.85,1.85,0,0,1,0,.23A7.15,7.15,0,0,1,215.85,163.32Z" transform="translate(-43.76 -3)" fill="#2c81db"/>
  <path d="M215.85,163.32c-.3,1.73-1.62,3.15-2.84,4.48-1.83,1.83-3.56,3.65-5.29,5.48a2.36,2.36,0,0,1-1,.72,1.78,1.78,0,0,1-1.53-.61,77.23,77.23,0,0,1-5.75-5.56c0-.26,0-.51.09-.76a2.37,2.37,0,0,1-.13.32,3.8,3.8,0,0,1-1.93-3.36,4.06,4.06,0,0,1,1.62-3.55,7.72,7.72,0,0,1,2.95-1.32,35,35,0,0,1,9.76-1.83,3.75,3.75,0,0,1,3.25,1.22,3.36,3.36,0,0,1,.57,1.6,1.85,1.85,0,0,1,0,.23A7.15,7.15,0,0,1,215.85,163.32Z" transform="translate(-43.76 -3)" fill="url(#linear-gradient-25)"/>
  <path d="M175.5,166.78c-.3,1.73-1.63,3.15-2.85,4.47-1.83,1.83-3.55,3.66-5.28,5.49a2.29,2.29,0,0,1-1,.71,1.72,1.72,0,0,1-1.52-.61,77.36,77.36,0,0,1-5.76-5.56c0-.25.05-.51.1-.75l-.14.32a3.81,3.81,0,0,1-1.93-3.36,4.13,4.13,0,0,1,1.63-3.56,7.81,7.81,0,0,1,3-1.32,35.4,35.4,0,0,1,9.75-1.83,3.8,3.8,0,0,1,3.26,1.22,3.66,3.66,0,0,1,.57,1.61,2.07,2.07,0,0,1,0,.22A7.38,7.38,0,0,1,175.5,166.78Z" transform="translate(-43.76 -3)" fill="#2c81db"/>
  <path d="M175.45,166.71c-.3,1.73-1.62,3.15-2.84,4.47-1.83,1.83-3.56,3.66-5.29,5.49a2.31,2.31,0,0,1-1,.71,1.74,1.74,0,0,1-1.52-.61,77.23,77.23,0,0,1-5.75-5.56c0-.25.05-.51.09-.75a2.88,2.88,0,0,1-.13.31,3.8,3.8,0,0,1-1.94-3.35,4.11,4.11,0,0,1,1.63-3.56,7.65,7.65,0,0,1,2.95-1.32,35.4,35.4,0,0,1,9.76-1.83,3.75,3.75,0,0,1,3.25,1.22,3.43,3.43,0,0,1,.57,1.61,2.07,2.07,0,0,1,0,.22A7.2,7.2,0,0,1,175.45,166.71Z" transform="translate(-43.76 -3)" fill="url(#linear-gradient-26)"/>
  <path d="M103.23,391.52c8.23-8.84,16.36-17.68,24.6-26.63,1.93-2,4-4.17,6.5-5.29a22.4,22.4,0,0,1,6.41-1.21c8.84-.72,17.79-1.33,26.63-2,17.79-1.32,36.29-2.64,53.06,3.56,9.55,3.46,18,9.25,27,13.82,9.45,4.78,19.41,8.44,29.37,12,12,4.27,24.09,8.64,36.39,12.09,10.68,3.05,21.65,5.39,31.72,10.07,8.64,4,16.46,9.65,24.29,15.14q-90.11.92-180,6.31c-48.48,2.94-97.58,6.7-145.46-1.22,9.66-9.86,14-24.2,24.81-32.84,13.52-10.87,32.73-9.75,50-8" transform="translate(-43.76 -3)" fill="#2c81db"/>
  <path d="M103.23,391.52c8.23-8.84,16.36-17.68,24.6-26.63,1.93-2,4-4.17,6.5-5.29a22.4,22.4,0,0,1,6.41-1.21c8.84-.72,17.79-1.33,26.63-2,17.79-1.32,36.29-2.64,53.06,3.56,9.55,3.46,18,9.25,27,13.82,9.45,4.78,19.41,8.44,29.37,12,12,4.27,24.09,8.64,36.39,12.09,10.68,3.05,21.65,5.39,31.72,10.07,8.64,4,16.46,9.65,24.29,15.14q-90.11.92-180,6.31c-48.48,2.94-97.58,6.7-145.46-1.22,9.66-9.86,14-24.2,24.81-32.84,13.52-10.87,32.73-9.75,50-8" transform="translate(-43.76 -3)" fill="url(#linear-gradient-27)"/>
  <path d="M227,344.51a6.41,6.41,0,0,1,.86,3.46,49.46,49.46,0,0,1-.27,8.07c-.07.57-.1,1.25.35,1.6a1.81,1.81,0,0,0,1,.24,13.88,13.88,0,0,1,8.62,3.81,6.71,6.71,0,0,0,2.37,1.82,6.39,6.39,0,0,0,2.39.11,15.77,15.77,0,0,1,5.11.6,2.52,2.52,0,0,1,1.16.59c.75.77.35,2.11-.4,2.88a6,6,0,0,1-5.06,1.54,17.22,17.22,0,0,1-5.18-1.74q-9.39-4.31-18.61-9a3.54,3.54,0,0,1-1.19-.81,3.45,3.45,0,0,1-.67-1.88,14.3,14.3,0,0,1,.67-7.57C219.2,345.74,224.6,341,227,344.51Z" transform="translate(-43.76 -3)" fill="url(#linear-gradient-28)"/>
  <path d="M287.29,279.59c-2.26.08-4.81.06-6.42-1.53-1.4-1.37-1.67-3.49-2.41-5.3s-2.67-3.57-4.47-2.79a4.08,4.08,0,0,0-1.93,2.68,16.86,16.86,0,0,0-.69,7,3.36,3.36,0,0,0,.45,1.52,3.2,3.2,0,0,0,1.15.94c3.1,1.72,6.79,1.86,10.33,2,8.8.26,17.67.52,26.36-.88a5.5,5.5,0,0,0,3.61-1.61c3.35-4.29-7.86-2.59-9.36-2.54Z" transform="translate(-43.76 -3)" fill="url(#linear-gradient-29)"/>
</svg>
