<svg id="Layer_1" data-name="Layer 1" xmlns="http://www.w3.org/2000/svg" xmlns:xlink="http://www.w3.org/1999/xlink" viewBox="0 0 472.65 371.91"><defs><linearGradient id="linear-gradient" x1="249.68" y1="78.37" x2="236.6" y2="91.81" gradientUnits="userSpaceOnUse"><stop offset="0" stop-opacity="0"/><stop offset="0.99"/></linearGradient><linearGradient id="linear-gradient-2" x1="215.28" y1="94.87" x2="214.56" y2="120.1" xlink:href="#linear-gradient"/><linearGradient id="linear-gradient-3" x1="208.47" y1="85.31" x2="192.19" y2="106.56" xlink:href="#linear-gradient"/><linearGradient id="linear-gradient-4" x1="215.34" y1="98.29" x2="225.65" y2="98.29" gradientUnits="userSpaceOnUse"><stop offset="0" stop-color="#e5c5d5"/><stop offset="0.42" stop-color="#ead4d1"/><stop offset="1" stop-color="#f0e9cb"/></linearGradient><linearGradient id="linear-gradient-5" x1="216.68" y1="307.4" x2="176.65" y2="161.27" xlink:href="#linear-gradient"/><linearGradient id="linear-gradient-6" x1="113.76" y1="126.92" x2="286.66" y2="319.35" xlink:href="#linear-gradient"/><linearGradient id="linear-gradient-7" x1="193.26" y1="115.36" x2="189.88" y2="175.4" xlink:href="#linear-gradient"/><linearGradient id="linear-gradient-8" x1="140.09" y1="122.88" x2="275.37" y2="358" xlink:href="#linear-gradient"/><linearGradient id="linear-gradient-9" x1="193.71" y1="112.65" x2="202.87" y2="138.45" xlink:href="#linear-gradient"/><linearGradient id="linear-gradient-10" x1="189.52" y1="105.53" x2="150.09" y2="89.25" xlink:href="#linear-gradient"/><linearGradient id="linear-gradient-11" x1="188.64" y1="71.63" x2="197.58" y2="71.63" xlink:href="#linear-gradient-4"/><linearGradient id="linear-gradient-12" x1="192.21" y1="71.87" x2="212.1" y2="58.36" xlink:href="#linear-gradient-4"/><linearGradient id="linear-gradient-13" x1="207.87" y1="102.9" x2="222.56" y2="102.9" xlink:href="#linear-gradient-4"/><linearGradient id="linear-gradient-14" x1="204.92" y1="55.54" x2="200.53" y2="72.35" xlink:href="#linear-gradient-4"/><linearGradient id="linear-gradient-15" x1="191.93" y1="56.46" x2="219.35" y2="56.46" xlink:href="#linear-gradient"/><linearGradient id="linear-gradient-16" x1="24.67" y1="264.8" x2="284.12" y2="153.94" gradientUnits="userSpaceOnUse"><stop offset="0.02" stop-color="#fff" stop-opacity="0"/><stop offset="0.58" stop-color="#fff" stop-opacity="0.39"/><stop offset="0.68" stop-color="#fff" stop-opacity="0.68"/><stop offset="1" stop-color="#fff"/></linearGradient><linearGradient id="linear-gradient-17" x1="115.64" y1="206.26" x2="322.54" y2="224.35" xlink:href="#linear-gradient-16"/><linearGradient id="linear-gradient-18" x1="244.35" y1="166.63" x2="342.01" y2="316.02" xlink:href="#linear-gradient-16"/><linearGradient id="linear-gradient-19" x1="262.34" y1="135.16" x2="231.6" y2="220.17" xlink:href="#linear-gradient-16"/><linearGradient id="linear-gradient-20" x1="390.9" y1="177.83" x2="426.25" y2="178.68" xlink:href="#linear-gradient"/><linearGradient id="linear-gradient-21" x1="235.73" y1="258.87" x2="250.56" y2="331.57" xlink:href="#linear-gradient-16"/><linearGradient id="linear-gradient-22" x1="197.79" y1="61.48" x2="213.46" y2="74.92" xlink:href="#linear-gradient-4"/></defs><title>Slow Working</title><path d="M399.92,325.46c18.46-6.81,36.76-14.86,52.14-27.14s27.71-29.29,31.05-48.68c3.95-22.87-4.74-45.76-8.29-68.69-2.42-15.66-2.44-31.61-4.48-47.32-4.83-37.28-22-73.89-51.6-97.1C390.82,14.61,354.11,6.17,318.62,7c-18.23.4-36.34,3.06-54.55,4.05-27.46,1.51-55.17-.76-82.38,3.18S126.72,29.46,111,52c-28.9,41.4-8.82,105.82-43.35,142.65-12.59,13.43-31,21.07-41.2,36.4-6.78,10.19-9.1,22.63-10.88,34.74-3.35,22.69-5.07,47,5.39,67.44,9.57,18.67,28.31,31.37,48.27,37.85s41.24,7.42,62.22,7.66c28.37.34,57.24-.59,84.2-9.44C232,364,247.5,355.72,264.5,353.2c22.39-3.32,42.77-1.85,64.82-7.83C353.05,338.94,376.69,334,399.92,325.46Z" transform="translate(-11.46 -6.9)" fill="#2c81db" opacity="0.18" style="isolation:isolate"/><path d="M240.35,80.57l3.92-3.07s1.45-.61,1.09,1.14-14,26-14,26Z" transform="translate(-11.46 -6.9)" fill="#2c81db"/><path d="M240.35,80.57l3.92-3.07s1.45-.61,1.09,1.14-14,26-14,26Z" transform="translate(-11.46 -6.9)" fill="url(#linear-gradient)"/><path d="M210,100.65a5.54,5.54,0,0,1,1.28-.6,7.09,7.09,0,0,1,2-.22,142.22,142.22,0,0,0,17.49-1.32q-1.44,3.49-3.06,6.92a5.28,5.28,0,0,1-1.36,2,5.16,5.16,0,0,1-3.07.79c-4.93.18-10.73.91-15.65,1.13-1.25,0-2.5.14-3.74.28-1,.11-3.33.75-4.25.55-1.17-.26.87-1.83,1.6-2.59s1.64-1.59,2.5-2.34A37.85,37.85,0,0,1,210,100.65Z" transform="translate(-11.46 -6.9)" fill="#2c81db"/><path d="M210,100.65a5.54,5.54,0,0,1,1.28-.6,7.09,7.09,0,0,1,2-.22,142.22,142.22,0,0,0,17.49-1.32q-1.44,3.49-3.06,6.92a5.28,5.28,0,0,1-1.36,2,5.16,5.16,0,0,1-3.07.79c-4.93.18-10.73.91-15.65,1.13-1.25,0-2.5.14-3.74.28-1,.11-3.33.75-4.25.55-1.17-.26.87-1.83,1.6-2.59s1.64-1.59,2.5-2.34A37.85,37.85,0,0,1,210,100.65Z" transform="translate(-11.46 -6.9)" fill="url(#linear-gradient-2)"/><path d="M196.39,86.05c.36,2.42,1.07,5,3.05,6.47C201,93.66,203,93.85,205,94l8.29.66c1.87.15,4.1.55,4.81,2.29a3.36,3.36,0,0,1-1.11,3.65,7.73,7.73,0,0,1-3.72,1.53c-5.12.93-10.42.07-15.4-1.44-2.92-.89-6.07-2.27-7.27-5.08a9.91,9.91,0,0,1-.61-3.9,31.58,31.58,0,0,1,1.59-9.88c.49-1.5,1.9-3.87,3.43-2C196.17,81.32,196.13,84.26,196.39,86.05Z" transform="translate(-11.46 -6.9)" fill="#2c81db"/><path d="M196.33,86c.36,2.42,1.07,5,3,6.47,1.55,1.14,3.59,1.33,5.51,1.48l8.29.66c1.87.15,4.1.55,4.81,2.29a3.36,3.36,0,0,1-1.11,3.65,7.62,7.62,0,0,1-3.72,1.52c-5.12.94-10.42.08-15.4-1.43-2.92-.89-6.07-2.27-7.27-5.08a9.91,9.91,0,0,1-.61-3.9,31.58,31.58,0,0,1,1.59-9.88c.49-1.5,1.9-3.87,3.43-2C196.1,81.26,196.07,84.19,196.33,86Z" transform="translate(-11.46 -6.9)" fill="url(#linear-gradient-3)"/><path d="M223.54,96.84a3.27,3.27,0,0,1,2,1.76,1.13,1.13,0,0,1-.11,1,1.58,1.58,0,0,1-1.14.44l-4,.43a5.63,5.63,0,0,1-1.69,0,4.15,4.15,0,0,1-1.26-.5,4,4,0,0,1-1.65-1.43C213.43,94.67,222,96.21,223.54,96.84Z" transform="translate(-11.46 -6.9)" fill="url(#linear-gradient-4)"/><path d="M35.32,316.32c71.94-.5,143.61,8.45,215.53,10.27s145.55-3.91,211.68-32.21a136.64,136.64,0,0,0-40.1-7.51c-135.17-5.06-271.06-10.08-405.27,6.85-2.5.31-5.69,1.36-5.7,3.89a5.14,5.14,0,0,0,1.7,3.23A65.72,65.72,0,0,0,35.32,316.32Z" transform="translate(-11.46 -6.9)" fill="#2c81db" opacity="0.18" style="isolation:isolate"/><path d="M439.1,147.93a6.13,6.13,0,0,1-3.14,5.35Q426,173.86,417,194.93c-1.31,3.07-2.62,6.34-2.1,9.63.54,3.45,3,6.22,4.68,9.27,5.36,9.54,3.21,21.95-2.85,31.06a43.26,43.26,0,0,1-3,4c-5.91,7-13.86,12.32-21.93,16.91-55.24,31.35-120.91,36.87-184.24,41.71-22.41,1.71-45.06,3.41-67.31.09C116.92,304.1,94.78,295.21,73,286.05c-4.67-1.95-9.48-4-13-7.66l-.45-.47c-3.25-3.64-5-9-3-13.4,2.17-4.89,7.78-7.07,12.84-8.76,10.1-3.37,20.37-6.45,30.35-10.12,7.62-2.82,13.55-8.61,21-12.3,18.74-9.24,37.71-18.18,57.66-24.52a238.33,238.33,0,0,1,83.11-10.95,86.55,86.55,0,0,1,18.37,2.43c6.88,1.82,13.31,5,20,7.55a103.62,103.62,0,0,0,74.9-1.13c4.07-1.67,8.13-3.67,11.21-6.82a35.21,35.21,0,0,0,5.68-8.49,176.57,176.57,0,0,0,12.47-30.53,37.28,37.28,0,0,1,3-6.7,6.08,6.08,0,1,1,5,1.49l-.43.05c-1.47,5.88-2.82,12.23-4.18,18.58s-2.73,12.69-4.2,18.53v0c-.42,1.63-.84,3.21-1.28,4.75-.24.87-.48,1.74-.74,2.58,12.32-12.21,18.19-28.05,24.55-44.2a32.93,32.93,0,0,1,2.11-4.69,6.09,6.09,0,1,1,11.17-3.36Z" transform="translate(-11.46 -6.9)" fill="#2c81db"/><path d="M281.53,200.48a151.45,151.45,0,0,0,34.65,15c-1.48,5-10.15,5.91-13.88,9.33-5.12,4.69-6.53,12.29-10.14,18.1-7.48,12-16.5,16.18-29.94,18.42-5,.83-10.54.91-15.34,2.64-6.75,2.45-12.81,8.2-18.41,12.49-15.14,11.59-34.13,15.35-52.4,19.49-17.6,4-33.9-.49-49.35-8.7-7.7-4.09-10.15-7.83-14.8-14.73s-12.72-6.81-20.27-7.4c-4-.31-12.49-.08-12.7-6-.2-5.33,7.54-5.85,11.41-6.91,4.82-1.33,8.65-4.36,13.14-6.41,16.4-7.5,34.77-9.43,52.28-13.93,16.49-4.24,32.41-10.24,49.07-13.89,11.76-2.57,23.43-3.41,34.75-7.56,6.38-2.33,12.72-5.07,19.21-6.23C266.62,202.88,274.39,202.17,281.53,200.48Z" transform="translate(-11.46 -6.9)" fill="url(#linear-gradient-5)"/><path d="M102,225.45c-3.64-30.95,15.42-62.06,42.78-77s61.25-15,90.65-4.67c10.42,3.65,20.66,8.71,28.08,16.88,6.54,7.21,10.49,16.4,13.3,25.72a133.43,133.43,0,0,1,5.68,39.4c0,3.26-.19,6.61-1.47,9.61-2,4.63-6.31,7.76-10.59,10.41a138.29,138.29,0,0,1-20,10.25c-2.48,1-5.16,2-7.78,1.41s-4.89-3.38-3.92-5.88c-9.76,17.79-30.05,26.73-49.29,33.18s-42.16,10.81-57.68-5.14C117.2,264.65,104.49,246.72,102,225.45Z" transform="translate(-11.46 -6.9)" fill="#2c81db"/><path d="M282.47,225.8c0,3.26-.18,6.62-1.46,9.61-2,4.62-6.31,7.76-10.59,10.41a138.29,138.29,0,0,1-20,10.25c-2.47,1-5.17,2-7.78,1.41s-4.89-3.38-3.91-5.88c-9.77,17.79-30,26.73-49.3,33.18-17.73,5.94-38.69,10.12-54-1.85a37.13,37.13,0,0,1-3.65-3.29c-14.58-15-27.29-32.93-29.79-54.19-3.64-30.95,15.43-62.06,42.78-77a94.08,94.08,0,0,1,13.47-6c24.53-8.68,52.45-7.34,77.19,1.33,10.4,3.65,20.66,8.71,28.07,16.88,6.54,7.21,10.49,16.4,13.31,25.72A133.79,133.79,0,0,1,282.47,225.8Z" transform="translate(-11.46 -6.9)" fill="url(#linear-gradient-6)"/><path d="M153.14,146c-.51.45-1,1.08-.84,1.72s1.21.86,2,.85q23.5-.33,47-1.52,13.07-.65,26.14-1.52c1.34-.09,3-.41,3.39-1.7a2.35,2.35,0,0,0-.2-1.68c-1.06-2.23-3.86-2.91-6.31-3.26-15.06-2.15-30.35-2-45.56-1.89C169.94,137.06,159.86,140,153.14,146Z" transform="translate(-11.46 -6.9)" fill="url(#linear-gradient-7)"/><path d="M226.05,188.54a56.48,56.48,0,0,0-13.68-14.28A67.43,67.43,0,0,0,196,166.4c-4.52-1.6-9.2-3-14-3-5.25,0-10.36,1.73-15.14,3.91-10.18,4.64-19.57,11.78-24.94,21.6-3.14,5.74-4.8,12.18-6,18.63-1.95,10.85-2.34,22.89,3.87,32A25.25,25.25,0,0,0,184.38,234a15.19,15.19,0,0,0,1-5.14c0-3.86-2-7.47-4.51-10.41-2.63-3.1-6-5.77-10-6.55s-8.6.73-10.58,4.28-.22,8.92,3.73,9.87a10.23,10.23,0,0,1-6.84-17.91c3.9-3.44,9.76-3.42,14.85-2.36,10.93,2.28,21.77,9.71,23.88,20.67,1.56,8.1-2,16.57-7.74,22.54a35.85,35.85,0,0,1-51.47.4,51.63,51.63,0,0,1-8.42-11.92A52.61,52.61,0,0,1,122.74,223a39.93,39.93,0,0,1,4.53-27c4.54-8.12,25.09-65.66,106.73-31,4,1.69,8.06,3.53,11.09,6.64a30.18,30.18,0,0,1,5.14,7.79,82.57,82.57,0,0,1,7.57,48.23c-.89,6.07-2.52,12.18-6,17.21s-9.13,4.76-10.11-1.57c-.92-6-.12-12.42-1.14-18.56A89,89,0,0,0,226.05,188.54Z" transform="translate(-11.46 -6.9)" fill="url(#linear-gradient-8)"/><path d="M226.58,111.14a20,20,0,0,1,7.86,1.9,8.35,8.35,0,0,1,4.6,6.45c.24,3.46-2.23,6.44-4.76,8.72-8.49,7.67-19.33,12.21-30.43,14.35s-22.5,2-33.76,1.05a16.75,16.75,0,0,1-6.38-1.41c-5.25-2.72-7.4-11.62-3.83-16.59,3.33-4.63,12.5-5.91,17.45-7.45C193.25,113.2,209.88,109.74,226.58,111.14Z" transform="translate(-11.46 -6.9)" fill="#3e3e54"/><path d="M226.58,111.14a20,20,0,0,1,7.86,1.9,8.35,8.35,0,0,1,4.6,6.45c.24,3.46-2.23,6.44-4.76,8.72-8.49,7.67-19.33,12.21-30.43,14.35s-22.5,2-33.76,1.05a16.75,16.75,0,0,1-6.38-1.41c-5.25-2.72-7.4-11.62-3.83-16.59,3.33-4.63,12.5-5.91,17.45-7.45C193.25,113.2,209.88,109.74,226.58,111.14Z" transform="translate(-11.46 -6.9)" fill="url(#linear-gradient-9)"/><path d="M226,131a8.59,8.59,0,0,1,4.26.59,4.25,4.25,0,0,1,2.51,3.31,4.45,4.45,0,0,1-1.64,3.55,13.1,13.1,0,0,1-3.5,2c-3.73,1.64-7.58,3.27-11.66,3.43-2.18.08-4.61-.4-5.93-2.15-2.82-3.75.61-5.66,3.5-6.56C217.79,133.87,221.38,131.37,226,131Z" transform="translate(-11.46 -6.9)" fill="#3e3e54"/><path d="M197.11,80.85c.1-3,.07-6.3-2-8.42a7.56,7.56,0,0,0-5.34-2c-6.25-.08-11.39,4.76-15.41,9.56-8.27,9.84-15.27,21.57-15.79,34.42a6.34,6.34,0,0,0,.92,4.21c.8,1-1.53,9.65-.27,9.93,5.66,1.25,15.13-8.72,20.65-10.52,4.22-1.38,8.56-2.58,12.72-4.15,3.74-1.41,3.54-2.9,3.67-6.82C196.53,98.33,196.68,89.58,197.11,80.85Z" transform="translate(-11.46 -6.9)" fill="#2c81db"/><path d="M197.11,81c.1-3,.07-6.3-2-8.42a7.56,7.56,0,0,0-5.34-2c-6.25-.08-11.39,4.76-15.41,9.56-8.27,9.84-15.27,21.57-15.79,34.42a6.34,6.34,0,0,0,.92,4.21c.8,1-1.53,9.65-.27,9.93,5.66,1.25,15.13-8.72,20.65-10.52,4.22-1.38,8.56-2.58,12.72-4.15,3.74-1.41,3.54-2.9,3.67-6.82C196.53,98.51,196.68,89.76,197.11,81Z" transform="translate(-11.46 -6.9)" fill="url(#linear-gradient-10)"/><path d="M197.21,72.19c-.78,1.22-1.62,2.26-2.27,3.47a9.33,9.33,0,0,0-.79,1.81,3.44,3.44,0,0,1-.38,1c-.21.28-4.8-3.66-5.08-5.81a2.83,2.83,0,0,1,0-.82,2.93,2.93,0,0,1,.22-.65c.7-1.6,3.06-3.67,4-5.1a2.63,2.63,0,0,1,1.28-1.15.69.69,0,0,1,.17,0,1.63,1.63,0,0,1,1.35.52,3.93,3.93,0,0,1,.77,1.27C197.08,68.07,198.15,70.73,197.21,72.19Z" transform="translate(-11.46 -6.9)" fill="url(#linear-gradient-11)"/><path d="M197.21,72.19c-.78,1.22-1.62,2.26-2.27,3.47a1.62,1.62,0,0,1-.85-.62,3.72,3.72,0,0,1-.47-1.75,34,34,0,0,1,0-5.43,12,12,0,0,1,.59-3,.69.69,0,0,1,.17,0,1.63,1.63,0,0,1,1.35.52,3.93,3.93,0,0,1,.77,1.27C197.08,68.07,198.15,70.73,197.21,72.19Z" transform="translate(-11.46 -6.9)" fill="url(#linear-gradient-12)"/><path d="M211.93,105.73a11.92,11.92,0,0,1-5.11,1.6l-.25,0a70,70,0,0,1-25.06-1.18,15.08,15.08,0,0,1-4.92-1.84c-3.07-2-4.48-6-4.29-9.62s1.77-7.13,3.63-10.3A18.51,18.51,0,0,1,179,80.54c3-2.94,7.21-5.05,10.32-.91a6.13,6.13,0,0,1,.93,3.69,21.13,21.13,0,0,1-1.13,6.92c-.37,1.09-.81,2.4-.1,3.31a3.2,3.2,0,0,0,2.17,1l16.52,2.74c2.61.44,5.73,1.32,6.36,3.89A4.59,4.59,0,0,1,211.93,105.73Z" transform="translate(-11.46 -6.9)" fill="#2c81db"/><path d="M212.09,99.5a5.09,5.09,0,0,0-2.1.6,5.19,5.19,0,0,0-1.34,1.42,3.08,3.08,0,0,0-.77,2,3.24,3.24,0,0,0,1.22,1.86,4.83,4.83,0,0,0,2.24,1.42,4.07,4.07,0,0,0,2.29-.38,52,52,0,0,1,5.26-2.29,13.39,13.39,0,0,0,2.24-.66,2.29,2.29,0,0,0,1.41-1.72C223,97.64,214,99.24,212.09,99.5Z" transform="translate(-11.46 -6.9)" fill="url(#linear-gradient-13)"/><path d="M196.77,72.14a9.88,9.88,0,0,0,2.41,3.14,5,5,0,0,0,3.69,1.18c2.34-.29,3.89-2.51,5-4.56,1-1.81,2-3.66,2.84-5.55,1.07-2.31,2.05-4.8,1.79-7.33a5.38,5.38,0,0,0-3.18-4.63,8,8,0,0,0-2.59-.31,22.94,22.94,0,0,0-7,.65,8.71,8.71,0,0,0-3.92,2.42c-1.15,1.29-1.11,2.54-1.26,4.18A19.5,19.5,0,0,0,196.77,72.14Z" transform="translate(-11.46 -6.9)" fill="url(#linear-gradient-14)"/><path d="M193.29,52.93a12.59,12.59,0,0,1,5-4.78,9.71,9.71,0,0,1,3.55-1.31c3.79-.48,7.33,2.32,11.15,2.21,1,0,2-.27,3.07-.28a3.52,3.52,0,0,1,2.79,1.07,2.37,2.37,0,0,1,.35,2.36,4.61,4.61,0,0,0-.42,1,4.3,4.3,0,0,0,.22,1.32,3.3,3.3,0,0,1-1.68,3.3,6.36,6.36,0,0,1-3.82.69,3.64,3.64,0,0,1-3.67,1.73,9.64,9.64,0,0,1-3.2-1.57,4,4,0,0,0-3.41-.62c-1.27.51-1.8,2-2.4,3.21a1,1,0,0,1-.46.52c-.48.17-.86-.47-.85-1s.17-1.07-.12-1.49a1.78,1.78,0,0,0-2.08.64,2.93,2.93,0,0,0-.44,2.24,2.54,2.54,0,0,1,0,1.54,1.92,1.92,0,0,1-.88.76L193.23,66a.63.63,0,0,1-.32.1c-.29,0-.41-.38-.39-.67.15-2-.59-4.26-.59-6.34A13,13,0,0,1,193.29,52.93Z" transform="translate(-11.46 -6.9)" fill="#3e3e54"/><path d="M193.29,52.93a12.59,12.59,0,0,1,5-4.78,9.71,9.71,0,0,1,3.55-1.31c3.79-.48,7.33,2.32,11.15,2.21,1,0,2-.27,3.07-.28a3.52,3.52,0,0,1,2.79,1.07,2.37,2.37,0,0,1,.35,2.36,4.61,4.61,0,0,0-.42,1,4.3,4.3,0,0,0,.22,1.32,3.3,3.3,0,0,1-1.68,3.3,6.36,6.36,0,0,1-3.82.69,3.64,3.64,0,0,1-3.67,1.73,9.64,9.64,0,0,1-3.2-1.57,4,4,0,0,0-3.41-.62c-1.27.51-1.8,2-2.4,3.21a1,1,0,0,1-.46.52c-.48.17-.86-.47-.85-1s.17-1.07-.12-1.49a1.78,1.78,0,0,0-2.08.64,2.93,2.93,0,0,0-.44,2.24,2.54,2.54,0,0,1,0,1.54,1.92,1.92,0,0,1-.88.76L193.23,66a.63.63,0,0,1-.32.1c-.29,0-.41-.38-.39-.67.15-2-.59-4.26-.59-6.34A13,13,0,0,1,193.29,52.93Z" transform="translate(-11.46 -6.9)" fill="url(#linear-gradient-15)"/><path d="M158.24,142.47a5.32,5.32,0,0,1-1.2,3.11c-2.57,3.45-8.67,6.23-12,9.14a110.31,110.31,0,0,0-20.23,23.56,130.31,130.31,0,0,0-10.37,20.14,65.88,65.88,0,0,0-4,12.14c-2.5,12.34.81,25.22,6.22,36.59s12.85,21.62,19.26,32.47a2.94,2.94,0,0,1,.6,2.23,1.57,1.57,0,0,1-1.1,1.08,37.13,37.13,0,0,1-3.65-3.29c-14.58-15-27.29-32.93-29.79-54.19-3.64-30.95,15.43-62.06,42.78-77A94.08,94.08,0,0,1,158.24,142.47Z" transform="translate(-11.46 -6.9)" fill="url(#linear-gradient-16)"/><path d="M154.88,235.32a26.4,26.4,0,0,1-4.41-7.49,36,36,0,0,1,15.13-44.4c7-4.1,15.09-5.73,22.56-8.83a97.31,97.31,0,0,0-22.45-5.86,8,8,0,0,0-6.58,1.31,60.1,60.1,0,0,0-10.38,7.35c-12.12,11.06-16.53,28.57-15.83,45,.29,6.65,1.4,13.51,5.06,19.08,5.84,8.86,18.2,12.76,28.06,8.84a42.61,42.61,0,0,0,6.17-3.23c1.09-.66,6.94-3.33,4.6-5.11-.92-.71-6.36.58-7.87.43A21.24,21.24,0,0,1,154.88,235.32Z" transform="translate(-11.46 -6.9)" fill="url(#linear-gradient-17)"/><path d="M268.46,235.22a4.76,4.76,0,0,0,.6,2,3.65,3.65,0,0,0,2.7,1.39c3.87.47,7.58-2.25,9.4-5.7s2.1-7.48,2.12-11.38a99.55,99.55,0,0,0-7-37c-1.55-3.89-6.13-14.71-12.05-11.76-4.93,2.44,0,13.32.64,17.47C267.08,205.16,266.36,220.31,268.46,235.22Z" transform="translate(-11.46 -6.9)" fill="url(#linear-gradient-18)"/><path d="M247.9,153.37a2.16,2.16,0,0,0-1.41.58,1.75,1.75,0,0,0-.36,1.05,5.2,5.2,0,0,0,1.6,3.42c1.31,1.52,2.76,2.91,4.2,4.29l4.54,4.34a2.1,2.1,0,0,0,1,.66,1.64,1.64,0,0,0,1-.18c2.33-1.08,3.07-4.22,2.23-6.64C259.09,156.19,252.74,152.78,247.9,153.37Z" transform="translate(-11.46 -6.9)" fill="url(#linear-gradient-19)"/><path d="M412.1,155.67l-.43.05c-1.47,5.88-2.82,12.23-4.18,18.58-1.8,5.41-3.54,10.75-4,15.64-.09,1-.14,1.93-.23,2.89v0a12.53,12.53,0,0,1-1.2,4.62.66.66,0,0,1-.08.13c-1.23,2.17-6.83,7.17-9.25,4.83s2.64-10.82,3.56-13.08c4.47-11,11.65-25,15.79-36.14A22.44,22.44,0,0,1,412.1,155.67Z" transform="translate(-11.46 -6.9)" fill="url(#linear-gradient-20)"/><path d="M413.73,248.87c-5.91,7-13.86,12.32-21.93,16.91-55.24,31.35-120.91,36.87-184.24,41.71-22.41,1.71-45.06,3.41-67.31.09C116.92,304.1,94.78,295.21,73,286.05c-4.67-1.95-9.48-4-13-7.66l-.45-.47a5.37,5.37,0,0,1,1.55-2.61c1.62-1.5,4-1.85,6.16-2.11,9.07-1.09,18.36-2,27.3-.15,14.18,3,26,12.62,39.52,17.78,31.64,12.05,66.81-1.81,100.65-1,11.11.29,22.43,2.14,33.2-.61,7.19-1.85,13.82-5.69,21.14-6.9,8.71-1.44,17.69,1,26.43-.27,11.77-1.67,21.77-9.73,33.43-12.15,5.37-1.12,11-1,16.25-2.52,8.35-2.39,15-8.56,22.21-13.36C394.07,249.63,405.71,244.8,413.73,248.87Z" transform="translate(-11.46 -6.9)" fill="url(#linear-gradient-21)"/><path d="M198.56,62.05a1.24,1.24,0,0,1,.05-.63,4.1,4.1,0,0,0,.06-.49.57.57,0,0,0,0-.26.3.3,0,0,0-.33-.13.55.55,0,0,0-.32.19,1.81,1.81,0,0,0-.38,1.41,1.78,1.78,0,0,0,.36,1,.41.41,0,0,0,.2.14.51.51,0,0,0,.21,0c.19-.08.64-.36.65-.61S198.64,62.3,198.56,62.05Z" transform="translate(-11.46 -6.9)" fill="url(#linear-gradient-22)"/><path d="M200,112.62l28.26-1.88,13.51-27.06a3.21,3.21,0,0,0,.09-2.85c-.37-.74-1-1.18-2.16,0-2.29,2.43-14.13,25.71-14.13,25.71l-26.11,2.82S196.54,111.81,200,112.62Z" transform="translate(-11.46 -6.9)" fill="#2c81db"/></svg>