<svg id="Layer_1" data-name="Layer 1" xmlns="http://www.w3.org/2000/svg" xmlns:xlink="http://www.w3.org/1999/xlink" viewBox="0 0 394.08 329.91"><defs><linearGradient id="linear-gradient" x1="157.63" y1="70.42" x2="179.16" y2="274.11" gradientUnits="userSpaceOnUse"><stop offset="0" stop-opacity="0"/><stop offset="0.99"/></linearGradient><linearGradient id="linear-gradient-2" x1="120.85" y1="136.33" x2="139.87" y2="136.33" gradientUnits="userSpaceOnUse"><stop offset="0" stop-color="#e5c5d5"/><stop offset="0.42" stop-color="#ead4d1"/><stop offset="1" stop-color="#f0e9cb"/></linearGradient><linearGradient id="linear-gradient-3" x1="124.54" y1="125.54" x2="175.65" y2="164.69" xlink:href="#linear-gradient-2"/><linearGradient id="linear-gradient-4" x1="152.61" y1="109.61" x2="155.09" y2="129.8" xlink:href="#linear-gradient"/><linearGradient id="linear-gradient-5" x1="141.14" y1="227.11" x2="198.01" y2="190.43" xlink:href="#linear-gradient"/><linearGradient id="linear-gradient-6" x1="144.54" y1="81.29" x2="161.99" y2="81.29" xlink:href="#linear-gradient-2"/><linearGradient id="linear-gradient-7" x1="151.04" y1="75.67" x2="127.76" y2="119.05" xlink:href="#linear-gradient-2"/><linearGradient id="linear-gradient-8" x1="136.77" y1="64.74" x2="163.05" y2="64.74" xlink:href="#linear-gradient-2"/><linearGradient id="linear-gradient-9" x1="174.12" y1="91.21" x2="151.09" y2="153.92" xlink:href="#linear-gradient"/><linearGradient id="linear-gradient-10" x1="161.18" y1="141.77" x2="211.4" y2="107.22" xlink:href="#linear-gradient"/><linearGradient id="linear-gradient-11" x1="171.33" y1="133.5" x2="163.72" y2="137.58" gradientUnits="userSpaceOnUse"><stop offset="0.02" stop-color="#fff" stop-opacity="0"/><stop offset="0.58" stop-color="#fff" stop-opacity="0.39"/><stop offset="0.68" stop-color="#fff" stop-opacity="0.68"/><stop offset="1" stop-color="#fff"/></linearGradient><linearGradient id="linear-gradient-12" x1="112.99" y1="142.6" x2="163.48" y2="120.02" xlink:href="#linear-gradient"/><linearGradient id="linear-gradient-13" x1="126.59" y1="136.54" x2="121.28" y2="137.95" xlink:href="#linear-gradient-11"/><linearGradient id="linear-gradient-14" x1="115.7" y1="134.65" x2="129.57" y2="134.65" xlink:href="#linear-gradient-2"/><linearGradient id="linear-gradient-15" x1="155.43" y1="123.07" x2="209.72" y2="123.07" xlink:href="#linear-gradient-2"/><linearGradient id="linear-gradient-16" x1="161.16" y1="65.52" x2="155.31" y2="76.41" xlink:href="#linear-gradient-2"/><linearGradient id="linear-gradient-17" x1="157.23" y1="102.03" x2="92.57" y2="145.08" xlink:href="#linear-gradient"/><linearGradient id="linear-gradient-18" x1="185.91" y1="119.92" x2="207.17" y2="117.27" xlink:href="#linear-gradient-2"/></defs><title>Start up</title><path d="M162.67,370.14C164.08,362.2,158,360,153,353.7S142,341.56,139.12,334c-1.65-4.37-2.33-9.45-5.83-12.55-2.36-2.09-5.65-2.9-7.95-5.06-4.83-4.54-3.23-12.4-1.55-18.81s2.42-14.66-3.13-18.28c-3.68-2.39-8.61-1.54-12.66-3.22-5.35-2.24-8-8.49-8.17-14.28s1.56-11.46,2.38-17.2c4.25-29.5-15.38-58.51-11.35-88-2.54-.15-5.81-.4-8.34-.54.27,21,.53,42.17-3.47,62.79s-12.63,40.9-27.78,55.45c-5.81,5.57-13.15,11.81-12,19.78.68,4.9,4.63,9.6,3,14.26-.76,2.15-2.58,3.72-4.25,5.28a55.4,55.4,0,0,0-12.38,16.83c-5.72,12.18-9.7,32-21,39.33C55.39,372.7,111.89,367.2,162.67,370.14Z" transform="translate(-4.61 -44.61)" fill="#2c81db" opacity="0.18" style="isolation:isolate"/><path d="M73.12,110.6a17.23,17.23,0,0,1,3.42-8.35,2.91,2.91,0,0,1,1.31-1c1.31-.39,2.5.85,3.25,2,4.34,6.69,6.18,14.64,7.88,22.43C91,135,93,144.4,93,153.93a3.25,3.25,0,0,1-.25,1.58,3.22,3.22,0,0,1-2,1.34c-3.13,1-9.24,2.24-11.69-.75-2.17-2.65-2.11-8.85-2.79-12C73.93,133.11,71.15,121.83,73.12,110.6Z" transform="translate(-4.61 -44.61)" fill="#2c81db"/><path d="M183.46,84.4c1.21.2,61.65,25.76,61.65,25.76s1.41,24.46,1.21,23.85S83.62,149.17,83.83,147.76,81.6,117,81.6,117l52.85-26.68Z" transform="translate(-4.61 -44.61)" fill="#2c81db"/><path d="M179.83,90.27c1.21.21,62.71,26.58,62.71,26.58s4,17.77,3.78,17.16S83.62,149.17,83.83,147.76,82,123.67,82,123.67l53-27.28Z" transform="translate(-4.61 -44.61)" fill="url(#linear-gradient)"/><path d="M126.89,146.32c1.85,1.44,3.53,3.49,5.88,3.63a8.1,8.1,0,0,0,3.25-.74,5.55,5.55,0,0,0,3.17-2.18,5.15,5.15,0,0,0,.45-1.7,28.51,28.51,0,0,0-2.2-15.17c-.74-1.68-.33-6.53-2-7.33s-5,2.58-6.85,2.85a1.74,1.74,0,0,0-.54.15c-.6.33-.55,1.19-.43,1.86a65.35,65.35,0,0,1,1.08,12.48c-.11-1.38-1.7-2.18-3.08-2.17-2.16,0-5.53,2.1-4.63,4.72.31.88,1.25,1.11,2,1.44A17.42,17.42,0,0,1,126.89,146.32Z" transform="translate(-4.61 -44.61)" fill="url(#linear-gradient-2)"/><path d="M132.26,137.06a2,2,0,0,0,1.12,0c.77-.27,1-1.23,1.06-2a17.48,17.48,0,0,0-.3-3.14L133.2,126a.69.69,0,0,0-.13-.38.73.73,0,0,0-.58-.18,13.79,13.79,0,0,0-5,1l.54,4.33a2,2,0,0,0,.13.58,5.33,5.33,0,0,0,.31.51c.7,1.1,0,2.41.62,3.44S131.27,136.82,132.26,137.06Z" transform="translate(-4.61 -44.61)" fill="url(#linear-gradient-3)"/><path d="M148.45,45.46a16.87,16.87,0,0,1,11.4.3A10.34,10.34,0,0,1,162.27,47c2.87,1.93,5.51,4.5,6.48,7.81.41,1.39.5,2.87.95,4.25a4.51,4.51,0,0,0,2.78,3.12,3.78,3.78,0,0,1-3.38,1.57A28.28,28.28,0,0,0,172.4,68a7.7,7.7,0,0,1-4.45-.4,7.86,7.86,0,0,1,.61,3.25,8.58,8.58,0,0,1-3.48-1.08,1.69,1.69,0,0,1-1.8,1.19,5.09,5.09,0,0,1-2.18-.84l-3.42-2a29.53,29.53,0,0,1-7.1-5.15,22.83,22.83,0,0,1-3.19-4.71c-.81-1.5-5.17-3.05-5.3-4.79C141.82,49.9,145.43,46.05,148.45,45.46Z" transform="translate(-4.61 -44.61)" fill="#3e3e54"/><path d="M135.15,124.52l1.45,5.85a31.62,31.62,0,0,0,1.1,3.71c1.43,3.65,4.28,6.74,5,10.59.13.65.27,1.42.88,1.68a1.92,1.92,0,0,0,1.16,0c3.6-.8,7.35-.36,11-.7a61.13,61.13,0,0,0,8.13-1.59,177.09,177.09,0,0,1,25.17-4c.86-.08,1.89-.26,2.21-1.06a2.21,2.21,0,0,0,.09-1c-.49-7.69-4-14.79-6.43-22.1a1.38,1.38,0,0,1,.88-2,93.56,93.56,0,0,0,15.52-9.8l-6.14-9.36c-3.55-5.42-7.42-11.12-13.33-13.8-3.69-1.66-7.84-2-11.88-2-4.35,0-8.69.41-13,.8a46.39,46.39,0,0,0-8.15,1.06c-7.31,2-18.38,7.83-21,13.62-7,15.37-3.61,29.94-4.24,30.83a3,3,0,0,0-.63,1c-.21.82.67,1.59,1.51,1.63a5,5,0,0,0,2.39-.77,21.56,21.56,0,0,1,8.29-2.18C135.09,125.12,135.09,124.29,135.15,124.52Z" transform="translate(-4.61 -44.61)" fill="#fff"/><path d="M165.74,112a44.32,44.32,0,0,1-.31,5.87,1.89,1.89,0,0,1-.31,1,2.45,2.45,0,0,1-1.62.64c-6.82.87-13.74.65-20.63.44a2.14,2.14,0,0,1-.87-.16,1.6,1.6,0,0,1-.66-.79c-.63-1.34-1.42-4,.14-5.09s5.22-.62,7-.74Z" transform="translate(-4.61 -44.61)" fill="#2c81db"/><path d="M165.74,112a44.32,44.32,0,0,1-.31,5.87,1.89,1.89,0,0,1-.31,1,2.45,2.45,0,0,1-1.62.64c-6.82.87-13.74.65-20.63.44a2.14,2.14,0,0,1-.87-.16,1.6,1.6,0,0,1-.66-.79c-.63-1.34-1.42-4,.14-5.09s5.22-.62,7-.74Z" transform="translate(-4.61 -44.61)" fill="url(#linear-gradient-4)"/><path d="M146,144.34c0-.47-.73-.38-1.12-.13-12,7.64-23.48,16-35,24.26a47.92,47.92,0,0,0-7.47,6.21c-2.2,2.41-4,5.43-4,8.69a14.43,14.43,0,0,0,1.1,5.21c4.44,11.88,15.2,20,22.89,30.12,3.84,5,7.07,10.75,12.25,14.39,1,.71,2.15,1.42,2.54,2.59-.12.12,1.17-.31,1.05-.19a54.55,54.55,0,0,0,11.17-9,82.14,82.14,0,0,1-10-10.16c-1.64-1.86-3.28-3.72-4.74-5.72a84.74,84.74,0,0,1-6.56-11.16c-1.45-2.78-3.64-5-2.75-8,1.27-4.29,12.65-10.17,19.2-14,6.34-3.72,17-9.46,16.73-9.34,0,0-5.91,26.12,8.15,47s33.09,52.47,34.17,52.11,10.82-14.07,10.82-14.07l-26.69-45.45s7.66-56.21,1.3-67.78Z" transform="translate(-4.61 -44.61)" fill="#3e3e54"/><path d="M146,144.34c0-.47-.73-.38-1.12-.13-12,7.64-23.48,16-35,24.26a47.92,47.92,0,0,0-7.47,6.21c-2.2,2.41-4,5.43-4,8.69a14.43,14.43,0,0,0,1.1,5.21c4.44,11.88,15.2,20,22.89,30.12,3.84,5,7.07,10.75,12.25,14.39,1,.71,2.15,1.42,2.54,2.59-.12.12,1.17-.31,1.05-.19a54.55,54.55,0,0,0,11.17-9,82.14,82.14,0,0,1-10-10.16c-1.64-1.86-3.28-3.72-4.74-5.72a84.74,84.74,0,0,1-6.56-11.16c-1.45-2.78-3.64-5-2.75-8,1.27-4.29,12.65-10.17,19.2-14,6.34-3.72,17-9.46,16.73-9.34,0,0-5.91,26.12,8.15,47s33.09,52.47,34.17,52.11,10.82-14.07,10.82-14.07l-26.69-45.45s7.66-56.21,1.3-67.78Z" transform="translate(-4.61 -44.61)" fill="url(#linear-gradient-5)"/><path d="M144.33,240.05q.55,7.32,1.54,14.6c.14,1,.38,2.17,1.27,2.65a2.74,2.74,0,0,0,2.68-.4,10,10,0,0,0,3.81-5.14,29.22,29.22,0,0,0,1.26-6.37l1.08-8.67c.15-1.26.25-2.7-.63-3.61s-2.36-.86-3.6-1.19c-1.9-.51-3.34-2-4.68-3.44-1.08,1.25-4.5,3.71-4.43,5.37,0,.89.94,1.93,1.19,2.8A17,17,0,0,1,144.33,240.05Z" transform="translate(-4.61 -44.61)" fill="#3e3e54"/><path d="M208.88,267.27a10.13,10.13,0,0,1,.72,2.84,90.31,90.31,0,0,0,2.21,9.33,9.11,9.11,0,0,0,1.11,2.8,3.09,3.09,0,0,0,2.51,1.47c1.68,0,2.73-1.8,3.38-3.34a30.91,30.91,0,0,0,2.58-9,14.74,14.74,0,0,0-1.78-9,3.12,3.12,0,0,0-1.08-1.17,7.72,7.72,0,0,0-1.94-.44c-1.78-.44-2.86-2.25-4.45-3.15a.92.92,0,0,0-.52-.17,1.14,1.14,0,0,0-.73.45,32.16,32.16,0,0,0-3.8,5c-.73,1.19-.94,1.35.09,2.29A7.21,7.21,0,0,1,208.88,267.27Z" transform="translate(-4.61 -44.61)" fill="#3e3e54"/><path d="M234.46,97.62a17.35,17.35,0,0,1,3.41-8.35,2.93,2.93,0,0,1,1.32-1c1.31-.4,2.5.85,3.25,2,4.34,6.68,6.18,14.64,7.88,22.43,2,9.31,4,18.72,4.06,28.25a3.31,3.31,0,0,1-.25,1.57,3.17,3.17,0,0,1-2,1.34c-3.13,1-9.25,2.24-11.69-.74-2.17-2.66-2.11-8.85-2.8-12C235.26,120.13,232.48,108.85,234.46,97.62Z" transform="translate(-4.61 -44.61)" fill="#2c81db"/><path d="M398.69,374.38c-18.18-3.36-30.37-20.21-39.52-36.27-2.29-4-4.65-8.21-8.46-10.82s-9.55-3.06-12.71.31a90.86,90.86,0,0,0-11.13-25.33c-4.46-7-10.36-13.69-18.33-16s-18.1,1.51-20.11,9.55c-6.82.4-12-6.45-13.48-13.11s-.69-13.71-2.51-20.29c-1.21-4.41-3.58-8.57-3.79-13.13-.43-9.72,9-18.83,5.86-28-1.87-5.5-7.62-8.69-10.65-13.64-2-3.31-2.74-7.24-3.42-11.07l-9.63-54.75c-2.34.55-5.52,3.06-7.86,3.61,4.14,44.87,7.91,92.13-10.78,133.13-3.86,8.46-8.88,16.79-16.61,22-4.81,3.22-10.4,5-15.78,7.18-8.66,3.43-17.22,8-22.95,15.34s-8,18-3.45,26.13c3.29,5.89-.69,14.6-.3,21.33C244.71,369.34,327.06,375.5,398.69,374.38Z" transform="translate(-4.61 -44.61)" fill="#2c81db" opacity="0.18" style="isolation:isolate"/><path d="M162,80.34a17.76,17.76,0,0,1-6.22,10.79,10,10,0,0,1-4.1,2.17,5.43,5.43,0,0,1-4.44-.82A7.42,7.42,0,0,1,145,89c-.09-.25-.18-.51-.26-.76a4.79,4.79,0,0,1,1.52-5,3,3,0,0,0,.51-.6,2.1,2.1,0,0,0,.2-.49c.62-2.2-.45-3.89-.66-5.8a3.61,3.61,0,0,1,1.22-2.7,13.56,13.56,0,0,1,6.82-4.37,3.52,3.52,0,0,1,1.07-.12c2.18.1,2.58,2,2.82,3.58.18,1.18.36,2.35.53,3.53a7.56,7.56,0,0,0,.8,2.78A2.52,2.52,0,0,0,162,80.34Z" transform="translate(-4.61 -44.61)" fill="url(#linear-gradient-6)"/><path d="M156.51,69.74a22.12,22.12,0,0,1-1.66,6.91c-2.73,5.92-8.06,6-8.06,6a2.1,2.1,0,0,0,.2-.49c.62-2.2-.45-3.89-.66-5.8Z" transform="translate(-4.61 -44.61)" fill="url(#linear-gradient-7)"/><path d="M138.1,65.86a14.2,14.2,0,0,0-1.3,4,7.17,7.17,0,0,0,1.75,5.43,7.07,7.07,0,0,0,5.2,2.35,10.52,10.52,0,0,0,3.78-.79,21.32,21.32,0,0,0,8.69-6.12,2.75,2.75,0,0,0,2.72,1.06,5.29,5.29,0,0,0,2.66-1.47,2.88,2.88,0,0,0,1.14-2.24c-.13-1.33-1.68-1.95-3-2.29a10.83,10.83,0,0,0,2.7-3.26,7.23,7.23,0,0,0-1.42-7.74,10.34,10.34,0,0,0-7.53-3.06c-1.53,0-3.05.25-4.58.38a16.1,16.1,0,0,0-4,.6c-1.69.6-1.92,1.85-2.59,3.4Z" transform="translate(-4.61 -44.61)" fill="url(#linear-gradient-8)"/><path d="M173.54,141.38h-4.61a5.46,5.46,0,0,1-1.21-1.5c-6.13-10.6-5.23-58.86-3.39-61,1.63-1.94,7.41-1.75,9.2-1.64l.54,0,2.75,1.69C170.62,92.05,173.54,141.38,173.54,141.38Z" transform="translate(-4.61 -44.61)" fill="#2c81db"/><path d="M170.62,139.88h-2.9c-6.13-10.6-5.23-58.86-3.39-61,1.63-1.94,7.41-1.75,9.2-1.64l.36.22C167.69,90.54,170.62,139.88,170.62,139.88Z" transform="translate(-4.61 -44.61)" fill="url(#linear-gradient-9)"/><path d="M179,149.86a8.57,8.57,0,0,1-7.35-4.19l-17.46-29.31a1.65,1.65,0,0,1,2.83-1.69L174.53,144a5.23,5.23,0,0,0,5.23,2.52c11.93-1.61,17.88-2.77,19.72-3.37,0-1.36,0-3.46,0-4.3a1.65,1.65,0,1,1,3.3-.12c0,.41.13,4,0,5.52s-.92,2.1-9.2,3.54c-4.38.76-9.67,1.51-13.33,2A9,9,0,0,1,179,149.86Z" transform="translate(-4.61 -44.61)" fill="#2c81db"/><path d="M129.39,155.22a3.26,3.26,0,0,1-1.6-.43,6.48,6.48,0,0,1-2.73-4.16l-8.1-29.3a1.65,1.65,0,1,1,3.19-.88l8.09,29.3c.42,1.52,1,2.07,1.17,2.16,5.34-1.56,7.78-2.61,8.58-3.09.17-2.42.83-9.64.86-10a1.65,1.65,0,0,1,3.29.3c-.28,3.1-.83,9.26-.88,10.38-.06,1.36-1.2,2.22-4.7,3.54-2.07.77-4.55,1.53-6.27,2A3.11,3.11,0,0,1,129.39,155.22Z" transform="translate(-4.61 -44.61)" fill="#2c81db"/><path d="M179,150a8.54,8.54,0,0,1-7.35-4.18l-17.47-29.31A1.65,1.65,0,0,1,157,114.8l17.47,29.31a5.26,5.26,0,0,0,5.22,2.52c11.94-1.61,17.89-2.77,19.73-3.37,0-1.36,0-3.46,0-4.31a1.65,1.65,0,0,1,3.3-.11c0,.41.14,4,0,5.52s-.92,2.1-9.2,3.54c-4.39.76-9.67,1.51-13.33,2A7.63,7.63,0,0,1,179,150Z" transform="translate(-4.61 -44.61)" fill="url(#linear-gradient-10)"/><path d="M179,149.73a8.56,8.56,0,0,1-7.35-4.18l-17.46-29.31a1.65,1.65,0,1,1,2.83-1.69l17.47,29.3a5.26,5.26,0,0,0,5.23,2.53c11.93-1.62,17.88-2.78,19.72-3.38,0-1.36,0-3.45,0-4.3A1.65,1.65,0,0,1,201,137a1.67,1.67,0,0,1,1.71,1.6c0,.4.13,4,0,5.52s-.92,2.09-9.2,3.53c-4.38.76-9.67,1.51-13.33,2A9,9,0,0,1,179,149.73Z" transform="translate(-4.61 -44.61)" fill="url(#linear-gradient-11)"/><path d="M129.36,155.22a3.23,3.23,0,0,1-1.6-.43,6.53,6.53,0,0,1-2.74-4.16l-8.09-29.3a1.65,1.65,0,1,1,3.18-.88l8.1,29.3a3.73,3.73,0,0,0,1.16,2.16c5.35-1.56,7.79-2.61,8.59-3.09.17-2.42.83-9.64.86-10a1.65,1.65,0,0,1,3.29.3c-.28,3.1-.84,9.26-.88,10.38-.06,1.36-1.2,2.22-4.71,3.54-2.06.77-4.54,1.53-6.26,2A3.11,3.11,0,0,1,129.36,155.22Z" transform="translate(-4.61 -44.61)" fill="url(#linear-gradient-12)"/><g opacity="0.69" style="isolation:isolate"><path d="M129.55,155.16a3.26,3.26,0,0,1-1.6-.43,6.56,6.56,0,0,1-2.74-4.16l-8.09-29.31a1.65,1.65,0,0,1,3.18-.88l8.1,29.31a3.78,3.78,0,0,0,1.16,2.16c5.35-1.57,7.79-2.61,8.59-3.1.17-2.42.83-9.64.86-10a1.65,1.65,0,1,1,3.29.3c-.28,3.1-.84,9.26-.88,10.38-.06,1.36-1.2,2.22-4.7,3.53-2.07.78-4.55,1.54-6.27,2A3.11,3.11,0,0,1,129.55,155.16Z" transform="translate(-4.61 -44.61)" fill="url(#linear-gradient-13)"/></g><path d="M124.41,126.94a6.05,6.05,0,0,1,2.27.46,2.53,2.53,0,0,1,1.46,1.7c.14.71-.12,1.47.13,2.15s.72,1,.9,1.54c.34,1-.54,2.16-.25,3.21.13.47.48.86.6,1.34a2.18,2.18,0,0,1-.16,1.35c-1,2.6-4.14,3.8-6.94,3.72a6.45,6.45,0,0,1-4.46-1.63,7.32,7.32,0,0,1-1.68-3.74,26.13,26.13,0,0,1-.58-5.29C115.66,126.85,120.44,126.75,124.41,126.94Z" transform="translate(-4.61 -44.61)" fill="url(#linear-gradient-14)"/><path d="M199.16,105.84s13.78,26.28,9.86,30.52-35.29,1.16-35.29,1.16c-2.85-.14-5.09,2.33-7.91,2.72a5.6,5.6,0,0,1-5.34-2.41,4.36,4.36,0,0,0-1.29-1.58c-.3-.17-.66-.23-1-.38-1.28-.6-1.5-2.32-1.46-3.74a1.25,1.25,0,0,0-.14-.79,1.59,1.59,0,0,0-.39-.34,2.58,2.58,0,0,1-.49-3.08,4.82,4.82,0,0,1,2.55-2.12c1-.43,2.15-.65,3.21-1a12.7,12.7,0,0,0,3.89-2.16c.76-.62,1.69-1.38,2.61-1a2.55,2.55,0,0,1,.87.67l3,3.08a3.4,3.4,0,0,0,3,1.35l10.51.38a18.2,18.2,0,0,0,6.79-.62l-7.44-10.36c-.27-.38-.55-.85-.36-1.28a1.36,1.36,0,0,1,.58-.53C189.73,111.4,194.41,108.72,199.16,105.84Z" transform="translate(-4.61 -44.61)" fill="url(#linear-gradient-15)"/><path d="M159.65,67.24a1.09,1.09,0,0,1,.84.11,1.52,1.52,0,0,1,.84.77,1.66,1.66,0,0,1-.5,1.51,2.8,2.8,0,0,1-1.94,1.18,1.58,1.58,0,0,1-1.5-1,1.26,1.26,0,0,1,.72-1.57c.29-.08.54,0,.81-.22S159.31,67.38,159.65,67.24Z" transform="translate(-4.61 -44.61)" fill="url(#linear-gradient-16)"/><path d="M146,144.34l-2.23.41-1.38.25-5.89-19.7c-10.81-18.38-6.47-38-4.76-40,.7-.83,2.64-1.47,4.66-1.93a53.63,53.63,0,0,1,5.81-1C136.8,94.29,146,144.34,146,144.34Z" transform="translate(-4.61 -44.61)" fill="#2c81db"/><path d="M143.79,144.75l-1.38.25-5.89-19.7c-10.81-18.38-6.47-38-4.76-40,.7-.83,2.64-1.47,4.66-1.93s3.59-.52,3.59-.52C134.66,94.56,143.53,143.34,143.79,144.75Z" transform="translate(-4.61 -44.61)" fill="url(#linear-gradient-17)"/><path d="M189,111.62s9.39,12.4,7.8,14-5.67,1.41-5.67,1.41a2.31,2.31,0,0,0-.27-2.39c-.89-1.33-7.09-10-7.09-10Z" transform="translate(-4.61 -44.61)" fill="url(#linear-gradient-18)"/></svg>