<svg id="Layer_1" data-name="Layer 1" xmlns="http://www.w3.org/2000/svg" xmlns:xlink="http://www.w3.org/1999/xlink" viewBox="0 0 434.55 477.08"><defs><linearGradient id="linear-gradient" x1="331.91" y1="133.55" x2="335.31" y2="165.81" gradientUnits="userSpaceOnUse"><stop offset="0" stop-opacity="0"/><stop offset="0.91" stop-opacity="0.8"/><stop offset="1"/></linearGradient><linearGradient id="linear-gradient-2" x1="286.73" y1="187.77" x2="288.06" y2="200.39" xlink:href="#linear-gradient"/><linearGradient id="linear-gradient-3" x1="180.16" y1="122.36" x2="338.69" y2="122.36" gradientUnits="userSpaceOnUse"><stop offset="0" stop-color="#ecc4d7"/><stop offset="0.42" stop-color="#efd4d1"/><stop offset="1" stop-color="#f2eac9"/></linearGradient><linearGradient id="linear-gradient-4" x1="241.42" y1="132.56" x2="375.68" y2="169.81" xlink:href="#linear-gradient-3"/><linearGradient id="linear-gradient-5" x1="270.85" y1="89.62" x2="311.15" y2="100.8" xlink:href="#linear-gradient-3"/><linearGradient id="linear-gradient-6" x1="283.32" y1="95.58" x2="283.58" y2="95.58" xlink:href="#linear-gradient-3"/><linearGradient id="linear-gradient-7" x1="279.34" y1="65.77" x2="289.64" y2="81.38" xlink:href="#linear-gradient-3"/><linearGradient id="linear-gradient-8" x1="280.98" y1="95.49" x2="283.32" y2="95.49" xlink:href="#linear-gradient-3"/><linearGradient id="linear-gradient-9" x1="282.68" y1="154.92" x2="284.42" y2="163.72" xlink:href="#linear-gradient"/><linearGradient id="linear-gradient-10" x1="260.97" y1="191.64" x2="369.15" y2="191.64" xlink:href="#linear-gradient-3"/><linearGradient id="linear-gradient-11" x1="324" y1="175.91" x2="284.38" y2="204.73" xlink:href="#linear-gradient-3"/><linearGradient id="linear-gradient-12" x1="145.53" y1="249.58" x2="456.57" y2="245.74" gradientUnits="userSpaceOnUse"><stop offset="0" stop-opacity="0"/><stop offset="0.88" stop-opacity="0.8"/><stop offset="0.97"/></linearGradient><linearGradient id="linear-gradient-13" x1="156.98" y1="256.45" x2="44.63" y2="264.06" xlink:href="#linear-gradient-12"/><linearGradient id="linear-gradient-14" x1="-5.27" y1="146.01" x2="459.03" y2="47.04" xlink:href="#linear-gradient-12"/><linearGradient id="linear-gradient-15" x1="202.36" y1="226.4" x2="142.58" y2="351.28" xlink:href="#linear-gradient-12"/><linearGradient id="linear-gradient-16" x1="400.59" y1="181.44" x2="156.59" y2="300.12" xlink:href="#linear-gradient-12"/><linearGradient id="linear-gradient-17" x1="141.2" y1="106.68" x2="334.27" y2="20.77" gradientUnits="userSpaceOnUse"><stop offset="0" stop-color="#fff" stop-opacity="0"/><stop offset="0.84" stop-color="#fff" stop-opacity="0.84"/><stop offset="0.97" stop-color="#fff"/></linearGradient><linearGradient id="linear-gradient-18" x1="136.07" y1="344.56" x2="365.51" y2="344.56" xlink:href="#linear-gradient-17"/><linearGradient id="linear-gradient-19" x1="253.98" y1="411.18" x2="305.84" y2="196.29" xlink:href="#linear-gradient-12"/><linearGradient id="linear-gradient-20" x1="323.29" y1="199.91" x2="360.49" y2="279.61" xlink:href="#linear-gradient-12"/><linearGradient id="linear-gradient-21" x1="415.89" y1="144.57" x2="28.31" y2="426.54" xlink:href="#linear-gradient-17"/><linearGradient id="linear-gradient-22" x1="258.31" y1="297.08" x2="194.54" y2="281.8" xlink:href="#linear-gradient-12"/><linearGradient id="linear-gradient-23" x1="422.45" y1="207.75" x2="208.12" y2="284.36" xlink:href="#linear-gradient"/><linearGradient id="linear-gradient-24" x1="241.27" y1="169.94" x2="239.94" y2="240.69" xlink:href="#linear-gradient"/><linearGradient id="linear-gradient-25" x1="320.3" y1="152.02" x2="314.65" y2="207.48" xlink:href="#linear-gradient"/><linearGradient id="linear-gradient-26" x1="270.57" y1="156.81" x2="265.37" y2="195.84" xlink:href="#linear-gradient-17"/><linearGradient id="linear-gradient-27" x1="278.42" y1="170.51" x2="273.22" y2="209.54" gradientTransform="translate(58.32 -64.15) rotate(14.54)" xlink:href="#linear-gradient-17"/><linearGradient id="linear-gradient-28" x1="291.71" y1="163.52" x2="286.5" y2="202.54" gradientTransform="translate(58.32 -64.15) rotate(14.54)" xlink:href="#linear-gradient-17"/><linearGradient id="linear-gradient-29" x1="306.52" y1="130.8" x2="301.32" y2="169.83" gradientTransform="translate(58.32 -64.15) rotate(14.54)" xlink:href="#linear-gradient-17"/><linearGradient id="linear-gradient-30" x1="289.27" y1="154.41" x2="284.85" y2="187.57" gradientTransform="translate(-47.27 241.74) rotate(-43.12)" xlink:href="#linear-gradient-17"/><linearGradient id="linear-gradient-31" x1="303.64" y1="160.3" x2="299.22" y2="193.46" gradientTransform="translate(-47.27 241.74) rotate(-43.12)" xlink:href="#linear-gradient-17"/><linearGradient id="linear-gradient-32" x1="331.6" y1="181.78" x2="327.18" y2="214.94" gradientTransform="translate(-47.27 241.74) rotate(-43.12)" xlink:href="#linear-gradient-17"/><linearGradient id="linear-gradient-33" x1="292.3" y1="173.93" x2="290.08" y2="190.57" gradientTransform="translate(-47.27 241.74) rotate(-43.12)" xlink:href="#linear-gradient-17"/><linearGradient id="linear-gradient-34" x1="312.7" y1="172.86" x2="310.48" y2="189.49" gradientTransform="translate(-47.27 241.74) rotate(-43.12)" xlink:href="#linear-gradient-17"/><linearGradient id="linear-gradient-35" x1="315.58" y1="189.85" x2="313.36" y2="206.49" gradientTransform="translate(-47.27 241.74) rotate(-43.12)" xlink:href="#linear-gradient-17"/><linearGradient id="linear-gradient-36" x1="209.47" y1="294.2" x2="-10.73" y2="407.78" xlink:href="#linear-gradient-17"/><linearGradient id="linear-gradient-37" x1="198.01" y1="50.69" x2="287.95" y2="50.69" xlink:href="#linear-gradient-17"/><linearGradient id="linear-gradient-38" x1="422.51" y1="156.59" x2="426.16" y2="247.92" xlink:href="#linear-gradient-17"/><linearGradient id="linear-gradient-39" x1="198.33" y1="300.72" x2="350.52" y2="300.72" xlink:href="#linear-gradient-17"/><linearGradient id="linear-gradient-40" x1="68.91" y1="278.28" x2="197.25" y2="278.28" xlink:href="#linear-gradient-17"/><linearGradient id="linear-gradient-41" x1="243.2" y1="281.1" x2="200.12" y2="289.83" xlink:href="#linear-gradient-17"/><linearGradient id="linear-gradient-42" x1="141.26" y1="264.1" x2="133.66" y2="265.64" xlink:href="#linear-gradient-17"/><linearGradient id="linear-gradient-43" x1="127.72" y1="358.69" x2="120.12" y2="360.23" xlink:href="#linear-gradient-17"/><linearGradient id="linear-gradient-44" x1="142.73" y1="246.32" x2="137.26" y2="247.43" xlink:href="#linear-gradient-17"/><linearGradient id="linear-gradient-45" x1="307.75" y1="319.15" x2="304.24" y2="319.87" gradientTransform="translate(30.67 -58.8) rotate(12.17)" xlink:href="#linear-gradient-17"/><linearGradient id="linear-gradient-46" x1="275.12" y1="323.96" x2="266.53" y2="342.26" xlink:href="#linear-gradient-17"/><linearGradient id="linear-gradient-47" x1="276.75" y1="310.91" x2="268.17" y2="329.21" xlink:href="#linear-gradient-17"/><linearGradient id="linear-gradient-48" x1="285.22" y1="288.89" x2="279.75" y2="290" xlink:href="#linear-gradient-17"/><linearGradient id="linear-gradient-49" x1="100.26" y1="280.39" x2="94.79" y2="281.5" xlink:href="#linear-gradient-17"/><linearGradient id="linear-gradient-50" x1="67.88" y1="252.23" x2="62.41" y2="253.34" xlink:href="#linear-gradient-17"/><linearGradient id="linear-gradient-51" x1="88.54" y1="147.52" x2="83.07" y2="148.63" xlink:href="#linear-gradient-17"/><linearGradient id="linear-gradient-52" x1="163.45" y1="239.14" x2="157.98" y2="240.25" xlink:href="#linear-gradient-17"/><linearGradient id="linear-gradient-53" x1="167.77" y1="198.29" x2="97.38" y2="204.48" xlink:href="#linear-gradient-17"/><linearGradient id="linear-gradient-54" x1="76.56" y1="237.74" x2="127.61" y2="237.74" xlink:href="#linear-gradient-17"/></defs><title>57. Surfing</title><path d="M396.79,299.06c8.93-15.05,26.25-25.49,29.65-42.67,3.95-20-13-38.61-13-59,0-12.92,6.8-24.75,10-37.27,4.68-18.5.89-39.17-10.87-54.19s-31.47-23.73-50.4-21.32c-10.48,1.34-20.3,5.81-30.63,8a72.32,72.32,0,0,1-42.57-4c-12.4-5.18-23.48-13.87-36.68-16.39-13.58-2.59-27.56,1.77-40,7.8-60.66,29.45-95.79,103.61-80.15,169.2S212.55,365.2,280,364.11c17-.27,33.73-3.42,50.4-6.57,14.48-2.72,44.79-2.2,55.45-13.54C396.06,333.12,388.77,312.58,396.79,299.06Z" transform="translate(-43.27 -1.25)" fill="#2c81db" opacity="0.19" style="isolation:isolate"/><path d="M330.46,179.8l4-3.11s8.1-15.58,5.75-22.43" transform="translate(-43.27 -1.25)" fill="url(#linear-gradient)"/><path d="M304,194.4s-.71,6.59-11.45,9.61a77.7,77.7,0,0,1-19.18,3l-1.81-6.33Z" transform="translate(-43.27 -1.25)" fill="#2c81db"/><path d="M304,194.4s-.71,6.59-11.45,9.61a77.7,77.7,0,0,1-19.18,3l-1.81-6.33Z" transform="translate(-43.27 -1.25)" fill="url(#linear-gradient-2)"/><path d="M338.2,113.62c-3,5.31-11.94,4.23-27.89-.42-2.47-.72-4.56-1.3-6.31-1.78a4.61,4.61,0,0,0-5.79,4.69c.12,2.57.23,5.17.5,7.77a93.33,93.33,0,0,0,9.44,32,6.82,6.82,0,0,1,1,3.24c-.08,2.34-2.48,3.85-4.67,4.74-9.82,4-20.82,4.15-31.31,2.7-3.47-.48-7.14-1.24-9.64-3.68a13,13,0,0,1-3-5.16c-.33-.92-.62-1.85-.88-2.78,0-.14-.08-.27-.1-.41a187.94,187.94,0,0,1-6-31.68,4.38,4.38,0,0,0-5-3.93,4.21,4.21,0,0,0-2.12.92c-9.18,7.4-18.28,14.93-26.81,23.09-4.14,4-8.16,8.09-13.1,11.08a28.59,28.59,0,0,0-5.66,4.41,12.63,12.63,0,0,0-1.77,2c-1,1.54-1.36,3.47-2.37,5-.3.47-.85,1-1.35.69a1.23,1.23,0,0,1-.48-.91,5.42,5.42,0,0,1,.23-2.93c.13-.35.2-.53.2-.54s-.54,1-.46.14c0-.43-.13-1-.57-1.05a1,1,0,0,0-.65.3,49.81,49.81,0,0,0-7,7.31c-.53,1.06-1.77-.85,2.3-6.36,0,0-.18-.41-.45-.15-1.06,1-4,4.52-5,5.3-.74.57-1.19-.3-.86-1s2.43-3.09,4.29-5.53c-.86-.12-5.28,6-6.32,5.49-.2-.09-.19-.42-.16-.64a3.26,3.26,0,0,1,.92-1.73l4-4.87c-.85.12-4.31,3.07-4.95,2.51-1.48-1.28,3.63-4.4,4.42-4.69s4.84-2.93,5.59-3.43c1.71-1.17,3.49-2.22,5.26-3.31,18.47-11.37,30.82-30.23,46.42-45.28,6.58-6.35,16.56-8.43,19.46-8.8,1.05-.13,2.1-.25,3.16-.35a13.2,13.2,0,0,0,3.57-7c.57-2.48,1.33-12.73,4.85-12.73,2.89,0,5.37,9.17,5.92,11.57a17.17,17.17,0,0,1,.28,4.11c0,1.48-.41,3.21,1.62,3.77a6.88,6.88,0,0,0,2.34.18l.26,0c3.15.29,6.29.72,9.4,1.3,0,0,9.88,3.36,15.25,4.93,6.81,2,20.54,6.12,20.1,3.14-.57-3.89-1.69-9.31-5.19-12.13-.79-.63-9.29-5-9.29-5s.35-2,2.1-1.13a6.09,6.09,0,0,0,4.4.41c.59-.24-3.84-3.58-8.73-4.08s-2.48-2.32.4-3.38c3.16-1.17,8.08-1.19,11.49,1,1.57,1,2.71,5.55,4.23,6.93C329.51,89.14,341.19,108.3,338.2,113.62Z" transform="translate(-43.27 -1.25)" fill="url(#linear-gradient-3)"/><path d="M275.6,157.17l-14.53,2-1.54-4.63a187.94,187.94,0,0,1-6-31.68,4.38,4.38,0,0,0-5-3.93s8.54-5.46,12.42-1.48S275.6,157.17,275.6,157.17Z" transform="translate(-43.27 -1.25)" fill="url(#linear-gradient-4)"/><path d="M274.27,94.94c.8,2,2.61,3.84,4.77,3.77.93,0,2-.62,2-1.55a4.23,4.23,0,0,0-.42-1.35,5.05,5.05,0,0,1-.15-1.86l.21-5.63a4,4,0,0,0-.36-2.27A2.93,2.93,0,0,0,279,85c-1.84-.87-5.41-.81-6.22,1.46C272.06,88.34,273.54,93.11,274.27,94.94Z" transform="translate(-43.27 -1.25)" fill="url(#linear-gradient-5)"/><path d="M283.58,95.59l-.26,0a.86.86,0,0,0,.16,0A.15.15,0,0,1,283.58,95.59Z" transform="translate(-43.27 -1.25)" fill="url(#linear-gradient-6)"/><path d="M296.65,75.66a22.19,22.19,0,0,1-11.27,14.71,9.38,9.38,0,0,1-6.08,1.27,8.21,8.21,0,0,1-2.79-1.23c-4.91-3.25-6.84-9.59-7-15.47-.17-5.66,1.22-11.82,5.62-15.37a15.86,15.86,0,0,1,5.69-2.8c5.92-1.67,11.78-.39,15.79,4.42C299.68,64.9,297.67,71.05,296.65,75.66Z" transform="translate(-43.27 -1.25)" fill="url(#linear-gradient-7)"/><path d="M297.68,59.75a2.61,2.61,0,0,1-.64,2.36,2.73,2.73,0,0,1-1.8.44c-3-.09-5.86-1.35-8.79-2.08s-6.32-.82-8.64,1.11a8,8,0,0,0-2.48,4.24,23.36,23.36,0,0,0-.54,4.94c-1.11-.08-1-2.18-2.09-2.38-.59-.11-1.08.46-1.36,1a7.47,7.47,0,0,0,0,6.94A3.52,3.52,0,0,1,272,78c0,.87-.82,1.5-1.53,2a1.14,1.14,0,0,1-.66.28c-.43,0-.7-.45-.89-.84a21.41,21.41,0,0,0-4-6.36c-1.54-1.51-3.61-2.59-4.54-4.53a2.43,2.43,0,0,1-.26-1.6,1.22,1.22,0,0,1,1.19-1,8,8,0,0,1,.91.29c.31.07.73-.07.76-.39a.73.73,0,0,0-.26-.53,13.83,13.83,0,0,0-3-2.48,3,3,0,0,1-1.12-1,2.5,2.5,0,0,1-.28-1c-.14-1.23.22-2.82,1.44-3A3.64,3.64,0,0,1,261,58a6.69,6.69,0,0,0,4.37-.9,1,1,0,0,0,.48-.49c.21-.58-.56-1-.95-1.48-.71-.86-.1-2.27.89-2.78a5.69,5.69,0,0,1,3.28-.27,5.65,5.65,0,0,0,3.29-.28c-.75-1.14-2.75-1.45-2.79-2.81a1.61,1.61,0,0,1,1.35-1.47,3.75,3.75,0,0,1,2.1.37c1.3.57,2.47,1.41,3.76,2a5.75,5.75,0,0,0,4.13.52c.76-.25,1.42-.73,2.17-1a4.24,4.24,0,0,1,3.7.42A14,14,0,0,1,289,52a3.84,3.84,0,0,0,2.74,1.42,10.09,10.09,0,0,1,1.09-.06c1.34.12,1.93,1.67,2.77,2.49A5.64,5.64,0,0,1,297.68,59.75Z" transform="translate(-43.27 -1.25)" fill="#25233a"/><path d="M283.32,95.57a6.88,6.88,0,0,1-2.34-.18Q282.15,95.47,283.32,95.57Z" transform="translate(-43.27 -1.25)" fill="url(#linear-gradient-8)"/><path d="M307,152.49v-3s-16.47,7.19-28.54,7.41a99.46,99.46,0,0,0-20.37,2.31l2.87,4.89S300.78,161.84,307,152.49Z" transform="translate(-43.27 -1.25)" fill="#2c81db"/><path d="M307,152.49v-3s-16.47,7.19-28.54,7.41a99.46,99.46,0,0,0-20.37,2.31l2.87,4.89S300.78,161.84,307,152.49Z" transform="translate(-43.27 -1.25)" fill="url(#linear-gradient-9)"/><path d="M278.75,162.19c-4.87.23-9.77-.09-14.61.44a3.87,3.87,0,0,0-2.19.72A3.71,3.71,0,0,0,261,166c-.57,10.16,6.8,18.75,12.13,27.41a13.33,13.33,0,0,1,2.26,5.47c.25,2.32-.6,4.61-1.49,6.77a166.74,166.74,0,0,1-11.3,22.56,24.63,24.63,0,0,0,21.46-8.77,44.52,44.52,0,0,0,4.61-7.36c2.42-4.53,4.77-9.19,5.62-14.25.9-5.35,4.78-16.36,3.95-21.72,14.69-.94,37.71-4.5,47.72,7.61,3.25,3.94,4.46,9.22,5.51,14.21a83.21,83.21,0,0,0,15.9-4.71c.75-.31,1.61-.75,1.76-1.56a2.54,2.54,0,0,0-.56-1.74l-9.94-15.79a14.28,14.28,0,0,0-2.77-3.53c-2.64-2.2-4.05-6.53-17.42-9.21-7.49-1.49-31.11-7.77-34.37-6.21C295.79,159.14,288.1,161.77,278.75,162.19Z" transform="translate(-43.27 -1.25)" fill="url(#linear-gradient-10)"/><polygon points="316.41 188.54 300.37 179.38 307.21 194.98 325.29 188.68 316.41 188.54" fill="url(#linear-gradient-11)"/><path d="M270.56,199a2.47,2.47,0,0,0,1,1.65,2.35,2.35,0,0,0,1.55,0L304,194.4a35.49,35.49,0,0,0-2.71-14.46,132.5,132.5,0,0,1,29.19-.14q5.49-12.53,9.77-25.54a207.55,207.55,0,0,0-24.46-3,21.45,21.45,0,0,0-5.49.15c-2.69.52-5.08,2-7.53,3.22a61.22,61.22,0,0,1-21.19,5.8c-5.65.6-14.44-1.18-19.1,2.77C252.58,171.59,268.11,190.32,270.56,199Z" transform="translate(-43.27 -1.25)" fill="#2c81db"/><path d="M281.75,291.28c-28.3-8.92-56.37-20.07-80-38.08s-42.46-43.65-47.25-72.93c-5.17-31.57,6.65-64.33,26.7-89.27s47.61-42.84,76.43-56.72c4.24-2,9.2-5.09,8.92-9.78-.42-7-10.63-7.31-17.26-5.13-27,8.9-52.05,22.76-76.45,37.32-22.1,13.2-44.08,27.25-61.62,46.09-19.37,20.81-32.51,46.61-43.6,72.79-15.57,36.75-27.75,76.36-23.55,116.05,2.42,22.86,10.21,44.86,19.77,65.77,11.5,25.16,25.93,49.47,46.21,68.3,14.59,13.55,31.89,23.94,50,32.2,27.54,12.55,57.49,20.36,87.75,20.44a180.42,180.42,0,0,0,110-37.5c19.86-15.4,36.81-35.76,43.5-60s-2.58-52.09-24.14-65a48.43,48.43,0,0,0-14.08-5.64c-4.8-1.09-9.75-1.44-14.54-2.6" transform="translate(-43.27 -1.25)" fill="#2c81db"/><path d="M281.75,291.28c-28.3-8.92-56.37-20.07-80-38.08s-42.46-43.65-47.25-72.93c-5.17-31.57,6.65-64.33,26.7-89.27s47.61-42.84,76.43-56.72c4.24-2,9.2-5.09,8.92-9.78-.42-7-10.63-7.31-17.26-5.13-27,8.9-52.05,22.76-76.45,37.32-22.1,13.2-44.08,27.25-61.62,46.09-19.37,20.81-32.51,46.61-43.6,72.79-15.57,36.75-27.75,76.36-23.55,116.05,2.42,22.86,10.21,44.86,19.77,65.77,11.5,25.16,25.93,49.47,46.21,68.3,14.59,13.55,31.89,23.94,50,32.2,27.54,12.55,57.49,20.36,87.75,20.44a180.42,180.42,0,0,0,110-37.5c19.86-15.4,36.81-35.76,43.5-60s-2.58-52.09-24.14-65a48.43,48.43,0,0,0-14.08-5.64c-4.8-1.09-9.75-1.44-14.54-2.6" transform="translate(-43.27 -1.25)" fill="url(#linear-gradient-12)"/><path d="M192.24,94.67S73.83,178,94,281.1C136.07,495.48,272.57,384,272.57,384s-50.07,18.41-85.94-11C126.62,323.83,81.18,203.18,192.24,94.67Z" transform="translate(-43.27 -1.25)" fill="url(#linear-gradient-13)"/><path d="M170.62,65.59c-6.59,5.27-10.31,13.9-17.82,17.74-1.94,1-4.05,1.61-5.92,2.72a17.2,17.2,0,0,0-7.18,9.72c-.67,2.06-1,4.22-1.84,6.24-1.54,4-4.5,7.23-7.42,10.36C119.16,124.5,107.57,136.61,99.37,151c-4.52,7.92-7.93,16.4-11.34,24.85,8-12.61,19.23-22.73,30.34-32.67l18.75-16.77q25.17-22.5,50.34-45a113.24,113.24,0,0,1,11.35-9.29c4.06-2.78,8.62-5.16,11.35-9.25,2-2.94,3.24-9-.53-11.08-3.51-2-8.24,1.18-11.33,2.56C189.24,58.43,178.56,59.23,170.62,65.59Z" transform="translate(-43.27 -1.25)" fill="url(#linear-gradient-14)"/><path d="M163.65,236.66,151,214.08c-2.32,6.51-1.52,13.66-.69,20.52l3.6,29.64c1.93,15.88,4.11,32.46,13.2,45.62s27.42,21.44,41.58,14a18.14,18.14,0,0,0,7.49-6.9,21,21,0,0,0,2.3-7.64c2.23-16.82-7.17-32.3-21.14-41-5.81-3.61-12.43-5.8-17.76-10.18C172.69,252.49,168,244.37,163.65,236.66Z" transform="translate(-43.27 -1.25)" fill="url(#linear-gradient-15)"/><path d="M477.82,172.69s.26-1.22-7.71-3.09-60.95-4.09-212.34,57c0,0-50.81,17.38-56.46,24.13a31.83,31.83,0,0,0-6.64,14.84Z" transform="translate(-43.27 -1.25)" fill="#2c81db"/><path d="M477.82,172.69s.26-1.22-7.71-3.09-60.95-4.09-212.34,57c0,0-50.81,17.38-56.46,24.13a31.83,31.83,0,0,0-6.64,14.84Z" transform="translate(-43.27 -1.25)" fill="url(#linear-gradient-16)"/><path d="M237.11,27C228.59,24.36,219,28.16,213,34.8s-8.7,15.62-9.61,24.49c-15.89-3.45-33.3,9.49-34.58,25.71a24.14,24.14,0,0,0-21.49,36c-8.54,8.23-5.92,24.78,4.73,30a5,5,0,0,0,2.79.66c2.16-.29,3.2-2.74,3.89-4.81,11-33.2,36.62-59.2,65.73-77.53,15.21-9.57,97.83-38.08,58.27-63.81C264.45-6.4,242.88,8.58,237.11,27Z" transform="translate(-43.27 -1.25)" fill="#2c81db"/><path d="M287.46,32.65h0c-14.82,16.23-53.1,30.44-63,36.65-16.7,10.52-32.25,23.57-44.54,39.06a125.56,125.56,0,0,0-21.2,38.48c-.68,2.06-1.72,4.51-3.88,4.8a5,5,0,0,1-2.79-.66c-10.65-5.21-13.26-21.76-4.73-30a24.14,24.14,0,0,1,21.49-36c1.28-16.22,18.68-29.16,34.58-25.71.91-8.87,3.65-17.86,9.61-24.49S228.59,24.36,237.1,27c5.77-18.42,27.35-33.4,45.64-21.5C296.61,14.52,295.47,23.88,287.46,32.65Z" transform="translate(-43.27 -1.25)" fill="url(#linear-gradient-17)"/><path d="M278.85,236.59,277,233.9" transform="translate(-43.27 -1.25)" fill="none" stroke="#000" stroke-miterlimit="10" stroke-width="0.41"/><path d="M137.65,345.51c4.94-22.87,21.61-41.36,39.47-56.47a292.17,292.17,0,0,1,182.57-68.45c1.74,0,3.69,0,4.9,1.31,2.53,2.63-.68,6.76-3.68,8.85-14.3,9.95-29.8,18.32-42.68,30.05S295.07,288.6,295.35,306c.55,33.78,39,58.15,38.78,91.92-.13,16.16-9.66,31.16-22.28,41.24s-28.09,15.89-43.55,20.56c-25.55,7.72-53.22,12.7-78.72,4.83-20-6.17-38.49-22.34-43.86-43-2.83-10.92-3.73-22.53-6.24-33.7C136.36,374,134.62,359.54,137.65,345.51Z" transform="translate(-43.27 -1.25)" fill="#2c81db"/><path d="M137.65,345.51c4.94-22.87,21.61-41.36,39.47-56.47a292.17,292.17,0,0,1,182.57-68.45c1.74,0,3.69,0,4.9,1.31,2.53,2.63-.68,6.76-3.68,8.85-14.3,9.95-29.8,18.32-42.68,30.05S295.07,288.6,295.35,306c.55,33.78,39,58.15,38.78,91.92-.13,16.16-9.66,31.16-22.28,41.24s-28.09,15.89-43.55,20.56c-25.55,7.72-53.22,12.7-78.72,4.83-20-6.17-38.49-22.34-43.86-43-2.83-10.92-3.73-22.53-6.24-33.7C136.36,374,134.62,359.54,137.65,345.51Z" transform="translate(-43.27 -1.25)" fill="url(#linear-gradient-18)"/><path d="M209.71,390.23c7.36-27.28,35.64-44.59,44.51-71.42,4-12,4-25.56,11.19-35.89,11.46-16.33,34.76-17,53.64-23.46-13.64,16.28-26.5,34.82-28.08,56-1.28,17.06,4.94,33.66,8.33,50.42s3.81,34.94-3.93,50.19a51.68,51.68,0,0,1-31.89,26.1C228.15,452,199.68,427.39,209.71,390.23Z" transform="translate(-43.27 -1.25)" fill="#2c81db"/><path d="M225.36,388.21c6.28-23.29,30.43-38.06,38-61,3.38-10.22,3.73-38.95,9.91-47.76C283,265.55,309,260.6,325.08,255.1c-11.64,13.89-37.17,38.13-38.52,56.21-1.09,14.56,4.21,28.72,7.11,43s3.8,27.3-2.8,40.32c-5.45,10.76-7.62,17.52-19.25,20.74C241.46,423.76,216.81,419.93,225.36,388.21Z" transform="translate(-43.27 -1.25)" fill="#2c81db"/><path d="M225.36,388.21c6.28-23.29,30.43-38.06,38-61,3.38-10.22,3.73-38.95,9.91-47.76,9.77-13.94,30.64-16.82,46.75-22.32-11.65,13.9-32.11,36.06-33.46,54.14-1.09,14.56,4.21,28.72,7.11,43s3.8,27.3-2.8,40.32c-5.45,10.76-7.62,17.52-19.25,20.74C241.46,423.76,216.81,419.93,225.36,388.21Z" transform="translate(-43.27 -1.25)" fill="url(#linear-gradient-19)"/><path d="M212.07,248.35c29.65-12.54,60-23.45,90.26-34.35,33.54-12.08,67.12-24.17,101.58-33.31,24.11-6.4,49.19-11.37,73.91-8,.26,6.23-5.56,10.8-10.82,14.15C415.91,219.3,359.33,242,303.13,264.5c-29.2,11.69-58.58,23.44-89.36,29.92-3.16.66-6.49,1.26-9.56.27-9.28-3-10.8-18.39-9.92-26.52C195.43,257.68,202.47,252.41,212.07,248.35Z" transform="translate(-43.27 -1.25)" fill="#2c81db"/><path d="M477.82,172.69c.26,6.23-5.56,10.8-10.82,14.14-2.74,1.74-5.48,3.45-8.26,5.13-48.89,29.78-102.42,51.23-155.62,72.54-19.65,7.87-39.38,15.77-59.56,22.06-9.82,3.06-19.73,5.75-29.79,7.86-3.16.66-6.5,1.26-9.56.26-9.28-3-10.8-18.38-9.91-26.5,1.13-10.49,8.17-15.76,17.77-19.83,29.66-12.54,60-23.45,90.25-34.35,33.55-12.08,67.13-24.16,101.59-33.31C428,174.29,453.09,169.33,477.82,172.69Z" transform="translate(-43.27 -1.25)" fill="url(#linear-gradient-20)"/><path d="M305.26,218.44c-4,.77-8.13.34-12,1.43-5.43,1.54-9.62,5.83-14.71,8.27-7.44,3.59-16.47,3.08-23.59,7.27-2.75,1.61-5.09,3.86-7.92,5.34a42.25,42.25,0,0,1-8.58,2.81c-10.46,2.84-20.19,7.79-29.84,12.7-2.48,1.27-4.66,3.2-5.18,5.94-5.3,27.8,180.93-52.76,180-54.75a3.92,3.92,0,0,0-1.53-1.49c-13.16-8.46-26.75.92-40.31,1.86-6.18.42-11.91-.24-17.82,2.14C317.44,212.5,312.06,217.11,305.26,218.44Z" transform="translate(-43.27 -1.25)" fill="url(#linear-gradient-21)"/><path d="M221.24,273.56,198.9,322.19l4.63,2.29s34.73-20.37,57.44-53.14l4.55-11.88-4.63-2.29Z" transform="translate(-43.27 -1.25)" fill="#2c81db"/><path d="M221.24,273.56,198.9,322.19l4.63,2.29s34.73-20.37,57.44-53.14l4.55-11.88-4.63-2.29Z" transform="translate(-43.27 -1.25)" fill="url(#linear-gradient-22)"/><path d="M216.61,271.27,198.9,322.19s34.73-20.37,57.44-53.14l4.55-11.88Z" transform="translate(-43.27 -1.25)" fill="#2c81db"/><path d="M477.81,172.7c-.39.4-8.26,8.33-19.07,19.26-48.89,29.78-102.42,51.23-155.62,72.54-19.65,7.87-39.38,15.77-59.56,22.06l22-27.1Z" transform="translate(-43.27 -1.25)" fill="url(#linear-gradient-23)"/><polygon points="230.07 205.74 238.13 203.12 250.09 198.8 251.33 194.98 232.14 198.98 230.07 205.74" fill="url(#linear-gradient-24)"/><path d="M301.27,179.94s.4-4.39,5.88-8.33,27.55-2,27.55-2l-4.24,10.2Z" transform="translate(-43.27 -1.25)" fill="url(#linear-gradient-25)"/><path d="M269.49,172.41a.78.78,0,0,1,.52,0,.72.72,0,0,1,.34.42,3.21,3.21,0,0,1-1.41,4,4.16,4.16,0,0,1,1.73,1.3,2.35,2.35,0,0,1,.73,2.31,1.81,1.81,0,0,1-2.56.57,4.9,4.9,0,0,1-1.7-2.39c-.66.44-.59,1.6-1.33,1.91a1.06,1.06,0,0,1-1-.21,2.32,2.32,0,0,1-.59-.93,5.78,5.78,0,0,1-.35-1.7c0-.35.05-.78.37-.92s.93.12,1.14-.22a2.55,2.55,0,0,1-1-1,1.3,1.3,0,0,1,.33-1.66c.74-.47,1.07.25,1.73.36C267.72,174.39,268.25,172.82,269.49,172.41Z" transform="translate(-43.27 -1.25)" fill="url(#linear-gradient-26)"/><path d="M280.05,185.64a.6.6,0,0,1,.73.6,3.22,3.22,0,0,1-2.37,3.5,4.15,4.15,0,0,1,1.35,1.69,2.38,2.38,0,0,1,.13,2.42,1.81,1.81,0,0,1-2.62-.09,4.78,4.78,0,0,1-1-2.73c-.75.26-1,1.39-1.77,1.51a1.06,1.06,0,0,1-.95-.47,2.2,2.2,0,0,1-.33-1,5.35,5.35,0,0,1,.08-1.74c.07-.34.25-.74.59-.79s.87.35,1.16.07a2.58,2.58,0,0,1-.74-1.26,1.3,1.3,0,0,1,.74-1.52c.83-.27,1,.51,1.58.78C277.84,187.12,278.75,185.73,280.05,185.64Z" transform="translate(-43.27 -1.25)" fill="url(#linear-gradient-27)"/><path d="M294.66,182.21a.74.74,0,0,1,.51.11.76.76,0,0,1,.23.49,3.22,3.22,0,0,1-2.37,3.5,4.16,4.16,0,0,1,1.35,1.69,2.35,2.35,0,0,1,.12,2.42,1.8,1.8,0,0,1-2.61-.09,4.89,4.89,0,0,1-1.05-2.74c-.75.26-1,1.4-1.76,1.51a1,1,0,0,1-.95-.46,2.25,2.25,0,0,1-.34-1,5.65,5.65,0,0,1,.09-1.74c.07-.35.24-.74.59-.8s.87.36,1.16.08a2.51,2.51,0,0,1-.74-1.26,1.3,1.3,0,0,1,.73-1.52c.84-.27,1,.51,1.59.78C292.45,183.68,293.36,182.3,294.66,182.21Z" transform="translate(-43.27 -1.25)" fill="url(#linear-gradient-28)"/><path d="M317.22,154.26a.6.6,0,0,1,.73.6,3.22,3.22,0,0,1-2.37,3.5,4.08,4.08,0,0,1,1.35,1.69,2.38,2.38,0,0,1,.13,2.42,1.81,1.81,0,0,1-2.62-.09,4.89,4.89,0,0,1-1.05-2.73c-.74.25-1,1.39-1.76,1.5a1,1,0,0,1-.95-.46,2.24,2.24,0,0,1-.33-1,5.35,5.35,0,0,1,.08-1.74c.07-.34.24-.74.59-.8s.87.36,1.16.08a2.58,2.58,0,0,1-.74-1.26,1.3,1.3,0,0,1,.73-1.52c.84-.27,1,.51,1.59.78C315,155.74,315.91,154.35,317.22,154.26Z" transform="translate(-43.27 -1.25)" fill="url(#linear-gradient-29)"/><path d="M277.81,167a.67.67,0,0,1,.31-.31.62.62,0,0,1,.46.05,2.72,2.72,0,0,1,1.43,3.29,3.66,3.66,0,0,1,1.83-.2,2,2,0,0,1,1.8,1,1.53,1.53,0,0,1-1.26,1.83,4.14,4.14,0,0,1-2.44-.49c-.15.66.56,1.34.28,1.95a.84.84,0,0,1-.76.47,1.8,1.8,0,0,1-.9-.23,4.48,4.48,0,0,1-1.21-.85c-.21-.21-.42-.51-.3-.79s.65-.46.58-.79a2.1,2.1,0,0,1-1.24,0,1.09,1.09,0,0,1-.76-1.21c.18-.73.81-.47,1.28-.79C277.87,169.29,277.28,168,277.81,167Z" transform="translate(-43.27 -1.25)" fill="url(#linear-gradient-30)"/><path d="M292.32,161.51a.67.67,0,0,1,.31-.31.62.62,0,0,1,.46.05,2.72,2.72,0,0,1,1.43,3.29,3.66,3.66,0,0,1,1.83-.2,2,2,0,0,1,1.8,1,1.53,1.53,0,0,1-1.26,1.83,4.14,4.14,0,0,1-2.44-.49c-.15.66.56,1.34.28,2a.85.85,0,0,1-.76.47,1.8,1.8,0,0,1-.9-.23,4.48,4.48,0,0,1-1.21-.85c-.21-.21-.42-.51-.3-.79s.65-.46.58-.79a2.1,2.1,0,0,1-1.24-.05,1.09,1.09,0,0,1-.76-1.21c.18-.73.81-.47,1.28-.79C292.38,163.77,291.79,162.48,292.32,161.51Z" transform="translate(-43.27 -1.25)" fill="url(#linear-gradient-31)"/><path d="M327.42,158.08a.49.49,0,0,1,.76-.26,2.74,2.74,0,0,1,1.44,3.29,3.62,3.62,0,0,1,1.82-.2c.72.08,1.55.33,1.8,1a1.53,1.53,0,0,1-1.26,1.84,4.11,4.11,0,0,1-2.43-.49c-.16.65.55,1.34.28,1.95a.88.88,0,0,1-.77.47,1.8,1.8,0,0,1-.9-.23,5.08,5.08,0,0,1-1.21-.85c-.21-.21-.42-.51-.3-.79s.65-.46.58-.79A2.18,2.18,0,0,1,326,163a1.12,1.12,0,0,1-.76-1.22c.19-.72.81-.46,1.28-.78C327.47,160.33,326.89,159.05,327.42,158.08Z" transform="translate(-43.27 -1.25)" fill="url(#linear-gradient-32)"/><path d="M289.19,174.08c0-.07.08-.14.15-.16a.31.31,0,0,1,.23,0,1.36,1.36,0,0,1,.72,1.65,1.8,1.8,0,0,1,.92-.1,1,1,0,0,1,.9.51c.15.39-.22.83-.63.92a2.11,2.11,0,0,1-1.22-.25c-.08.33.28.67.14,1a.44.44,0,0,1-.38.23.92.92,0,0,1-.46-.11,2.13,2.13,0,0,1-.6-.43.37.37,0,0,1-.15-.39c.06-.16.32-.23.28-.4a1.19,1.19,0,0,1-.62,0,.56.56,0,0,1-.38-.61c.1-.37.41-.24.65-.4C289.22,175.21,288.92,174.56,289.19,174.08Z" transform="translate(-43.27 -1.25)" fill="url(#linear-gradient-33)"/><path d="M303.34,159.35a.33.33,0,0,1,.15-.16.31.31,0,0,1,.23,0,1.36,1.36,0,0,1,.72,1.65,1.8,1.8,0,0,1,.92-.1,1,1,0,0,1,.9.51c.15.39-.21.83-.63.92a2.12,2.12,0,0,1-1.22-.25c-.08.33.28.67.14,1a.44.44,0,0,1-.38.24,1.09,1.09,0,0,1-.46-.12,2.28,2.28,0,0,1-.6-.43.37.37,0,0,1-.15-.39c.06-.16.32-.23.29-.4a1.22,1.22,0,0,1-.63,0,.58.58,0,0,1-.38-.61c.1-.37.41-.24.65-.4C303.37,160.48,303.07,159.84,303.34,159.35Z" transform="translate(-43.27 -1.25)" fill="url(#linear-gradient-34)"/><path d="M317.06,169.78a.39.39,0,0,1,.15-.16.36.36,0,0,1,.23,0,1.37,1.37,0,0,1,.72,1.65,1.92,1.92,0,0,1,.92-.1,1,1,0,0,1,.9.51c.15.4-.22.83-.63.92a2,2,0,0,1-1.22-.25c-.08.33.28.68.14,1a.45.45,0,0,1-.38.24,1,1,0,0,1-.46-.12,2.31,2.31,0,0,1-.6-.42c-.11-.11-.21-.26-.15-.4s.32-.23.29-.4a1,1,0,0,1-.63,0,.57.57,0,0,1-.38-.61c.1-.36.41-.23.65-.39C317.09,170.91,316.79,170.27,317.06,169.78Z" transform="translate(-43.27 -1.25)" fill="url(#linear-gradient-35)"/><path d="M209.19,313.36c-19.5,19.47-45.91,36.07-73.05,31.29-16.62-2.93-31.08-13.69-41.63-26.87s-17.66-28.73-24.32-44.24c-.78-1.82-1.69-3.78-3.44-4.68-2.67-1.36-6.09.55-7.39,3.25S58.29,278,58.63,281a178.76,178.76,0,0,0,49.94,104.18c9.36,9.48,20,18,32.53,22.69,20.81,7.74,45.71,3.17,62.41-11.46,16-14,23.63-35,29.73-55.31,3.07-10.26,6.18-21.07,13.75-28.65,4.57-4.58,10.66-7.85,13.75-13.53,8.87-16.32-11.88-14.89-20.52-11.11C227.92,293.16,218.5,304.06,209.19,313.36Z" transform="translate(-43.27 -1.25)" fill="url(#linear-gradient-36)"/><path d="M287.57,28.49h0C276,41.14,246.2,52.2,238.5,57c-13,8.2-25.12,18.36-34.69,30.42a4.57,4.57,0,0,1-4.29-1.16c-1.25-1.33-1.42-3.3-1.47-5.11a28.36,28.36,0,0,1,.67-8.38,16.5,16.5,0,0,1,14-11.79,5.41,5.41,0,0,0,3-.8,4.42,4.42,0,0,0,1.07-1.6c1.23-2.64,2.33-5.41,4.14-7.7s4.56-4.08,7.48-3.88c1.18.08,2.49.45,3.46-.25A4.22,4.22,0,0,0,233.05,45a15,15,0,0,1,18-7.46c1.23-5.79,3.2-11.58,6.9-16.21,5.48-6.84,14-9.42,22.17-6.09C286.14,17.69,289.06,23.06,287.57,28.49Z" transform="translate(-43.27 -1.25)" fill="url(#linear-gradient-37)"/><path d="M473.21,171.61s-65.39,3-101.28,18.4c0,0,84-12,88.66-12.11l-29.13,13.74s36.05-8.54,41.2-13.74S473.21,171.61,473.21,171.61Z" transform="translate(-43.27 -1.25)" fill="url(#linear-gradient-38)"/><path d="M268.68,278.44c11.15-12.75,29.34-17.15,46.26-16.52,12.14.44,24.94,3.53,33.29,12.34a8.66,8.66,0,0,1,2,2.94c1.18,3.3-1.61,7-5,7.85s-7-.6-9.83-2.63-5.23-4.67-8-6.78-7.31-3.12-8.75-.09c-1,2.19.5,5.31-1.26,7-1.09,1-2.83.84-4.28.47-4.15-1.07-8.11-3.05-12.38-3.27-7.66-.4-14.42,4.87-19.66,10.47s-10.06,12-17,15.24c-3.69,1.71-8,2.56-10.64,5.69-3.16,3.79-2.57,9.63-5.43,13.65-1.86,2.62-4.89,4.09-7.83,5.39q-7,3.1-14.17,5.78c-8,3-17.12,5.47-24.83,1.8-1.45-.7-3-1.95-2.78-3.55a3.73,3.73,0,0,1,1.11-2c5.19-5.58,13.53-5.38,20.06-8.39s11.84-8.37,18.51-11.52C253.81,304.91,257.92,290.74,268.68,278.44Z" transform="translate(-43.27 -1.25)" fill="url(#linear-gradient-39)"/><path d="M170.14,286.08c-3.93,4.59-6.31,10.34-10.24,14.93s-10.46,8-16,5.48c-6.06-2.74-8-11.12-14.06-13.8-5.18-2.29-11.64.41-16.7-2.14-8.92-4.49-4.66-18.6-9.71-27.21-3.53-6-11.15-8.42-15.61-13.8-5.55-6.68-5.58-17.13-12.22-22.72a3.61,3.61,0,0,0-2.7-1.08,3.39,3.39,0,0,0-2.05,1.49c-3.93,5.28-1.29,12.8,2,18.5a103.23,103.23,0,0,0,15.08,20c2.1,2.18,4.38,4.39,5.32,7.27.84,2.58.49,5.38.76,8.08,1.28,13,15.31,20.18,22.75,30.87,2.2,3.16,3.86,6.72,6.44,9.58,5.91,6.59,15.43,8.35,24.26,9,11.57.88,24.64-.05,32.46-8.63,2-2.24,4.13-5.17,7.15-5.07,1.58.05,3,1,4.61,1.05,5.13.22,6.14-7.19,5.25-12.24-1-5.86-1.3-25.71-6.46-28.82C185.59,273.9,172.36,281.65,170.14,286.08Z" transform="translate(-43.27 -1.25)" fill="url(#linear-gradient-40)"/><path d="M199.3,283.35a10.78,10.78,0,0,0,7.7-5.63c1.35-2.42,2.18-5.49,4.68-6.69s5.58.14,8.38-.21c4.12-.51,6.8-4.42,10.14-6.89a16.13,16.13,0,0,1,11.39-3,3.33,3.33,0,0,1,1.52.46,2.55,2.55,0,0,1,.66,3.1,5.89,5.89,0,0,1-2.42,2.4,18.12,18.12,0,0,1-8.85,2.69,5.12,5.12,0,0,0-2.07.33c-1.44.72-1.67,2.7-2.79,3.85-1.9,1.93-5.34.78-7.69,2.11a7.33,7.33,0,0,0-2.44,2.68c-1.64,2.64-3.09,5.55-5.6,7.39-2,1.48-4.65,2.18-6.32,4.05-3.73,4.2-.49,11-2.37,16.34a8.46,8.46,0,0,1-5.83,5.34,7.86,7.86,0,0,1-7.53-2.21c-1.94-2.1-2.5-5.09-3-7.91-.7-4.3-1.31-8.91.53-12.87.66-1.41,3.26-6.7,4.89-7.15S197,283.65,199.3,283.35Z" transform="translate(-43.27 -1.25)" fill="url(#linear-gradient-41)"/><circle cx="136.51" cy="265.06" r="5.62" fill="url(#linear-gradient-42)"/><circle cx="122.97" cy="359.65" r="5.62" fill="url(#linear-gradient-43)"/><circle cx="139.31" cy="247.01" r="4.04" fill="url(#linear-gradient-44)"/><circle cx="262.01" cy="318.01" r="2.59" fill="url(#linear-gradient-45)"/><circle cx="271.79" cy="331.06" r="3.32" fill="url(#linear-gradient-46)"/><circle cx="273.42" cy="318.01" r="3.32" fill="url(#linear-gradient-47)"/><circle cx="281.81" cy="289.58" r="4.04" fill="url(#linear-gradient-48)"/><circle cx="96.84" cy="281.08" r="4.04" fill="url(#linear-gradient-49)"/><circle cx="64.46" cy="252.92" r="4.04" fill="url(#linear-gradient-50)"/><circle cx="85.12" cy="148.21" r="4.04" fill="url(#linear-gradient-51)"/><circle cx="160.03" cy="239.83" r="4.04" fill="url(#linear-gradient-52)"/><path d="M152.34,166.69a155.05,155.05,0,0,0-6.71,26.25c-2.3,15.77-.57,31.82,1.16,47.66,1.43,13,2.88,26.18,7.38,38.48,1,2.66,2.1,5.39,1.85,8.21s-2.44,5.71-5.27,5.59c-3-.13-4.86-3.3-5.87-6.14a52.66,52.66,0,0,1-3.07-17c0-2.61.1-5.34-1-7.7s-3.35-4-4.73-6.24c-1.82-2.94-2-6.57-2.07-10A231.81,231.81,0,0,1,135.17,218a14.32,14.32,0,0,1,1.24-5.27c.64-1.24,1.63-2.3,2.18-3.59,1.91-4.47-2.11-9.36-1.85-14.22.17-3.45,2.48-6.4,3.45-9.72,2.09-7.12-2-15.37,1.4-21.95,1-1.84,2.45-3.38,3.28-5.29,2.23-5.09-.78-11.36,1.51-16.42,1.43-3.16,4.65-5.18,6.29-8.23a33.68,33.68,0,0,0,2-5.84c1.86-5.79,6-10.51,10.09-15,2.4-2.67,9.88-12.18,11.67-5.41,1.07,4.06-6.83,15.55-8.57,19.49Q159.1,146.2,152.34,166.69Z" transform="translate(-43.27 -1.25)" fill="url(#linear-gradient-53)"/><path d="M113.27,168.41a14.3,14.3,0,0,1-4,4.15c-1.71,1-3.78,1.25-5.45,2.3-6.38,4-3.32,16.39-10.33,19.15-1.73.67-3.8.56-5.22,1.75-3.07,2.54-.18,7.52-.89,11.44s-4.94,6.26-5.82,10.08c-.57,2.45.35,4.95.91,7.4,1.92,8.49-.63,17.42-4.6,25.17a8.37,8.37,0,0,0-1.3,3.94A8.88,8.88,0,0,0,78,257.72a35.33,35.33,0,0,1,4.21,17.56c-.2,7.84-2.7,16.84,2.48,22.74,1.17,1.34,2.68,2.39,3.71,3.85,2.4,3.34,1.8,7.85,2,11.95s2,9,6.11,9.49c2.64-2.19,2.51-6.2,2.14-9.61l-2.6-24.36c-.87-8.14-1.74-16.3-2-24.49-.44-16,1.57-31.94,3.58-47.81.65-5.12,1.31-10.29,3-15.17,1.93-5.63,5.14-10.72,8.33-15.74l16.7-26.33c1.44-2.27,2.66-5.21,1.42-7.63C121.64,153.05,116.39,164.14,113.27,168.41Z" transform="translate(-43.27 -1.25)" fill="url(#linear-gradient-54)"/></svg>