<svg id="underline" data-name="underline"
    style="fill:#ffa88c"
    xmlns="http://www.w3.org/2000/svg"
    xmlns:xlink="http://www.w3.org/1999/xlink" viewBox="0 0 239.8 23">
    <title>underline</title>
    <path  d="M9.3 3.9c.3-.1.6-.2 1-.3 1.8-.2 3.6-.2 5.3-.8 1.1-.4 2.2-.2 3.3-.3 3.1-.3 6.2-.6 9.3-.7 2.9-.1 5.8.1 8.8.1 2.2 0 4.4-.1 6.6-.1h9.3c.7 0 1.3.2 1.6.7 1.3-.2 2.5-.5 3.9-.7-.3.4-.4.6-.5.8.1 0 .1.1.2.1.7-.1 1.4-.5 2.1-.2h.4c1.1-.7 2.2-.4 3.4-.5 1.1 0 2.2-.2 3.2.2 1.4-.7 2.9-.3 4.4-.4 1.8-.2 3.6-.1 5.4-.1h4.5c3.8.1 7.6.2 11.4.2 3.1.1 6.1.2 9.2.2 6 .1 12 .1 18 .1 4.2 0 8.3-.1 12.5-.1 3.7 0 7.4.1 11.1.1 2.2 0 4.4.2 6.5-.5.7-.2 1.5-.1 2.2-.1 3.1.1 6.3.1 9.4.2 1.7 0 3.3.1 5 .1h.5c1.8.6 3.5.1 5.3-.2.2 0 .4-.1.5 0 2.1.6 4.3.1 6.4.2.7 0 1.4 0 2.1-.1.5 0 .9-.1 1.4-.2.1 0 .3-.1.4-.1 1.7.3 3.5-.1 5.2 0 1.8.1 3.5 0 5.3 0 2 0 4 0 6-.1h8c1.8 0 3.5-.2 5.2-.3.2 0 .4-.1.5 0 1.3.5 2.5 0 3.8 0h4.2c3.1 0 6.2 0 9.3-.1 1.1 0 2.1-.4 3.3-.1 1.7.4 2.8 1.2 3.3 2.9.2.7.2 1.4.4 2 .3.7.7 1.3 1.2 2.1-.1.2-.4.5-.6.7v.3c.7.7.4 1.6.6 2.4.2.8 0 1.7.1 2.6 0 .5.4.9.6 1.4-1 .9-2.1 1.9-3.2 2.9-.1.5-.1 1.1-.2 1.7-1.2.5-2.4 1.1-3.6 1.6-.2.1-.7 0-.8-.1-.3-.7-.9-.5-1.4-.4-2.3.3-4.6.7-6.9.9-1.8.2-3.6.1-5.4.1-.8 0-1.7.1-2.5.1-1.8 0-3.7-.1-5.5 0-2.8 0-5.5.1-8.3.1h-6.8c-3.8 0-7.6.1-11.4.1h-7.9c-.5 0-.9-.1-1.4-.1v-.3c.7-.1 1.3-.1 2.1-.2-1.1-.2-2.1-.4-3.2-.5-.2 0-.4-.1-.5 0-1.1.7-2.2 0-3.3-.3.2-.1.5-.3.7-.3 1.5-.1 3.1-.1 4.6-.1 2.8-.1 5.5-.2 8.3-.3 1 0 2.1-.1 3.1-.1v-.3c-1.1 0-2.2 0-3.3-.1 2.7-.6 5.5-.4 8.2-.5 2.8-.1 5.5-.2 8.3-.4-.6 0-1.1-.1-1.7-.1-6.3.1-12.5.3-18.8.4-3 0-6-.1-9-.1-.1-.8-.7-.8-1.4-.8-.7.1-1.5.1-2.2.2.4 0 .7.1 1.1.1-2.1.4-4.2.6-6.4.3-.1 0-.2-.1-.3 0-.9.1-1.8 0-2.7-.2-.7-.2-1.5-.3-2.5.1-.9.5-2.2.3-3.7-.1.4-.2.5-.2.8-.4-4.2 0-8.2 0-12.3-.1h-15.7c-2.3 0-4.6-.2-6.9-.2h-11.4c-1.1 0-2.2-.1-3.3-.1-3.4 0-6.8.3-10.2.1-5.6-.4-11.2-.3-16.8-.3-1.9 0-3.8 0-5.8-.1-4.5 0-8.9 0-13.4-.1-2 0-3.9-.3-5.9-.4-.9-.1-1.8.1-2.8.1-1.1 0-2.3-.1-3.4-.2-2.3-.1-4.5-.3-6.8-.3-3 0-6 .1-8.9.1-3.5 0-7-.2-10.5-.2-.8 0-1.6 0-2.3.1v-.3c.3-.1.7-.1 1-.2v-.2c-1 0-2 .1-3.1.1-1 0-2 0-3 .1-1.9.2-2.4.2-3.1-.3.9.2 1.4.1 1.9 0v-.2c-.4-.1-.8-.2-1.3-.2-.4 0-.8.1-1.2.1 2.5-.9 5.2-.5 7.7-1.3-.4 0-.8.1-1.2.1-.5 0-1.1.2-1.6-.3-.1-.2-.6-.1-.9-.1-1.5 0-2.9.1-4.4.1v-.3c.5-.1.9-.1 1.4-.2v-.2c-.4-.1-.7-.1-1.1-.2C6.7 13 6 13 5.3 13c-1.1 0-2.3.1-3.4.1-.4 0-.8-.1-1.3-.4.9-.2 1.7-.5 2.6-.6.8-.1 1.4-.3 2-.9-.6-.5-1.3-.2-2-.2s-1.4 0-2.1-.1c2.9-.3 5.9-.6 8.8-1v-.2H8.6c-.4 0-.8 0-1.3-.3 1.1-.2 2.3-.4 3.4-.5 3.5-.4 7-.8 10.4-1.2.9-.1 1.9-.3 2.8-.5v-.3c-.2-.1-.3-.4-.5-.4-.8-.1-1.7-.1-2.5-.1-.4 0-.8.2-1.1-.5.4.2-.4.1-.8.1-1.5 0-3 0-4.5.1-2.6 0-5.2.1-7.8.1-.1 0-.2-.1-.3-.3 1 0 2 0 3-.1 3-.2 5.9-.1 8.9-.1 1.2 0 2.3-.3 3.5-.4V5h-4.2c-.7 0-1.5-.1-2.2-.1-1.4-.1-2.8-.1-4.2-.3-.7-.2-1.3-.5-1.9-.7zm99.8 2.4c-.2-.1-.5-.2-.7-.3h-4.2s-.1.1-.2.4c1.8-.1 3.5.3 5.1-.1 1.3.4 2.7.2 4-.1-1.3 0-2.6 0-4 .1zm-9 3.6c.2.1.4.2.6.2 1.7.1 3.3.1 5 .1.2 0 .4-.1.7-.2-.1-.1-.1-.2-.1-.2-1.9-.1-3.8-.2-5.7-.2-.2.1-.4.3-.5.3-1.1-.6-2.1 0-3.2-.1v.3c1.1 0 2.1-.1 3.2-.2zm-42.2 5.8c-.2.3-.4.5-.6.8.7.4 1.3.8 2 .3.1-.1 0-.5 0-.8h.2c.9.1 2-.5 2.7.7 0 .1.4-.1.6-.1l-.5-1c-1.5.1-3 .1-4.4.1-.4-.1-.8-.1-1.1-.2v.3c.3 0 .7 0 1.1-.1zm32.3-8c-.2-.1-.4-.4-.6-.4-1.7-.1-3.4-.1-5-.1-1.1 0-2.3-.1-3.4 0-.8 0-1.6-.3-2.4.5.7.1 1.5.5 2 .3 1.2-.5 2.3-.4 3.5 0 .5.1 1 .2 1.7.3.3-.2.7-.5 1.3 0 .4.3.7-.3 1.1-.4s1 .1 1.5.1c.1 0 .2-.3.3-.3.8.5.8.5 1.4-.1-.5-.4-.9-.5-1.4.1zm-45.6 7.7c-.2-.4-.5-.3-.9-.3-2.3 0-4.6-.1-6.9-.1-1.8 0-3.7.1-5.5.2.7 0 1.2.2.9 1.3.6-.5.9-.9 1.3-1 .5-.2 1-.1 1.8-.1-.5.3-.6.4-1.1.6 1 .1 1.7.4 2.6.1-.2-.3-.4-.5-.7-.8.6.1 1.1.1 1.4.3.5.5 1 .7 1.8.5.4-.1.8.1 1.1.2.5.2.8 0 1.2-.5-.7-.1-1.3-.1-1.8-.2v-.1c.9 0 1.7-.1 2.6-.1 0 .3-.1.5-.1.7 1.2 0 2.3-.1 3.5-.1v-.1h-2.3c.5-.2.8-.4 1.1-.5.7.2 1.4.2 2.2 0-.5-.1-.9-.2-1.4-.2-.3.1-.6.2-.8.2zm23.8-9.2c-.3-.5-.7-.5-1.2-.5h-7.9c-.4 0-1-.1-1.3.1-.7.4-1.2.2-1.7 0-.5.2-.8.5-1.1.5-.6.1-1.1 0-1.7-.1-.9-.1-1.7-.3-2.4.5-.1.2-.6.2-1.2.3.4-.3.6-.4 1-.7-1.1 0-2 .1-2.9.1-.5 0-1-.2-1.5-.4-.3-.7-1-.5-1.5-.5-1.4.1-2.9.2-4.3-.1-.8-.1-1.6 0-2.1.7h-.3v-.5c-2-.5-13 0-14.9.4 2.2 0 4.4 0 6.6-.2 1.1-.1 2 .1 2.6 1-.5.1-.9.1-1.4.2-.1 0-.2.3-.2.4s.4.2.4.2c.4-.7.8-.2 1.2-.1.5.4 1 .5 1.4.5.8.1 1.6.1 2.4.1v.4c-1.6.1-3.2.3-4.7.4 0 .6.3.7.7.7 1.3 0 2.5.1 3.8.1 4.2 0 8.4-.1 12.7 0 2.7 0 5.4.2 8.1.2 2.4 0 4.7.1 7.1.1 1.5 0 3 0 4.4-.1 1.1 0 2.1-.1 3.3-.2-.3-.8-.9-.7-1.3-.7-2.7.1-5.4 0-8.1-.1-2.5-.1-5.1 0-7.6-.1-1.1 0-2.1-.2-3.1.3-.3.1-.9.1-1.1-.1-.5-.5-1-.4-1.6-.4h-2.3c-.8 0-1.7-.3-2.4.2-.9-.6-2-.2-2.9-.3-1.3-.1-2.6-.1-4.1-.1.8-.6 1.4-.6 2.2-.5 1.4.2 2.9.1 4.4.1.8 0 1.6-.1 2.4-.1 1.6 0 3.3 0 4.9.1.6 0 1.1.1 1.7.1 1.4.1 2.8.2 4.2.2 1.9.1 3.7.2 5.6.2 1.1 0 2.2.3 3.1-.5h.3c.1.2.1.3.2.5.4 0 .9-.2 1.3 0 .6.2.8-.3 1.2-.4.3-.1.7.2 1.1.4.4.1.1-.7.6-.4.4.2.9.4 1.2-.2 0-.1.4-.1.5 0 .7.7 1.7.1 2.5.1.7 0 1.5-.3 2.3-.1.4.1.9 0 1.4-.6-3.7-.3-7.3 0-10.8-.2.2-.6 1.1 0 .8-.9zm24 1.2c0 .1-.1.2-.1.3.3.1.5.3.7.3 1.2.1 2.5.2 3.7.3 2.1.2 4.2.4 6.4.6.9.1 1.7 0 2.6 0 .5 0 1-.1 1.5-.1.3 0 .6.1.9.1 1.6-.1 3.2-.3 4.8-.4 1.2-.1 2.3 0 3.5 0 .5 0 1-.2 1.5-.2-1.6-.2-3.2-.3-4.8-.3-1.7 0-3.3 0-5-.1l-9-.3c-.8 0-1.6.2-2.3.2-1.5-.2-2.9-.3-4.4-.4zm8.4-1.1v-.4c-4.8-.1-9.7-.1-14.5-.2V6l14.5.3zm-28.9-.7c1.2.5 3.1.5 4-.1-1.5 0-2.7.1-4 .1zM197 20.2V20c-1.7.1-3.4.1-5.2.2v.2c1.8-.1 3.5-.2 5.2-.2zM74.3 15.8s0-.1-.1-.1c-1.6 0-3.2.1-4.9.1v.1c1.8 0 3.4-.1 5-.1zm12.1-.1v.2c1.3.1 2.6.1 3.9.2v-.2c-1.4-.1-2.7-.1-3.9-.2zm24.4.6v-.1c-1.5 0-2.9.1-4.4.1v.1c1.4 0 2.9-.1 4.4-.1zM92.4 9.8c-1-.3-2.3-.3-3 .1 1.1 0 2.1 0 3-.1zM183 22v-.2c-1 0-1.9.1-2.9.1v.2c1-.1 1.9-.1 2.9-.1zM53.4 15.6c-1.1-.3-2.2-.3-3.3.1 1.1 0 2.2 0 3.3-.1zm27.5-6.2v.4c.7 0 1.5 0 2.2-.1v-.2c-.7 0-1.4-.1-2.2-.1zm4.8.3v-.3c-.5 0-1-.2-1.5.3.5.1 1 0 1.5 0zm25.1.4v-.2c-.8 0-1.7.1-2.5.1v.2c.8 0 1.7 0 2.5-.1zm-61.6 5.3c-.5 0-.9-.1-1.5-.1.5.4.8.6 1.1.8.1-.2.2-.4.4-.7zm28.9-6v.3c.6 0 1.2.1 1.8.1v-.2c-.6-.1-1.2-.2-1.8-.2zm-26.4 6.8l.1-.1c-.7 0-1.4 0-2 .1v.1c.6-.1 1.2-.1 1.9-.1zM50.5 5.7c.7.1 1.4.1 2 0v-.1c-.7 0-1.4.1-2 .1zM65.6 16c0-.1.1-.1.1-.2h-1.5v.2h1.4zM207 20s-.1 0 0 0c-.5-.1-.9 0-1.4 0v.1c.5-.1.9-.1 1.4-.1zm-107-3.7v-.1h-1.5v.2c.5-.1 1-.1 1.5-.1zm87.9 3.9v.1h1.5v-.1h-1.5zm-85.1-3.9v-.1h-1.6v.1h1.6zm2.4.1v-.2c-.3 0-.7 0-1-.1v.2c.3 0 .6 0 1 .1zm-38.4-.5v.1h1.3v-.1c-.4-.1-.8-.1-1.3 0zm132.3 4.3c0-.1 0-.2-.1-.3-.3 0-.5.1-.8.1v.2h.9zM155.8 19v-.3c-.3 0-.5.1-.8.1v.2c.2-.1.5 0 .8 0zm-77.4-3.3v.1h1.3v-.1h-1.3zm99.6 6.2v.2c.3-.1.6-.1.9-.2v-.2c-.3.1-.6.2-.9.2zM73.5 9.5v-.3c-.3.1-.6.1-.8.2v.2c.3 0 .6 0 .8-.1zm20.2 6.6s0 .1 0 0c.4.1.7.1 1.1.1v-.1h-1.1zm-40.1 0v.3c.2 0 .5-.1.7-.1v-.2h-.7zM47.3 2.6v.2h.5v-.1c-.2 0-.4 0-.5-.1zm34.8 13.1v.1h.7v-.2c-.3.1-.5.1-.7.1zm10.2.3s0-.1 0 0c-.2-.1-.5-.1-.7-.1v.1h.7zm3.2-5.9l.1-.1-.1-.1h-.7v.1c.3 0 .5 0 .7.1zm-11.1 5.7v.1h.6v-.2c-.2.1-.4.1-.6.1zM40.8 2.7c0 .1 0 .1 0 0 .2.1.4.1.6 0v-.1c-.2.1-.4.1-.6.1zm76.7 3.7c-.2-.1-.3-.1-.5-.1v.1h.5zm-61.2 9.9c0-.1 0-.1 0 0-.2-.1-.4-.1-.6-.1v.1h.6zM161 20.9c-4.8.1-9.5-.1-14.3.5 4.8 0 9.5.1 14.3.1v-.6zm-146-.4c-2.5-.7-4.9-.3-7.3.2 2.4-.1 4.9-.1 7.3-.2zM0 15c.2 0 .5 0 .7.1s.2.4.4.4c.3.1.6 0 .8 0v-.9c-.7.1-1.3.1-1.9.2v.2zm19.5 4.6c-1-.2-1.7.6-2.6.5 1.4.4 1.9.3 2.6-.5zm159 .4c-1.1 0-2.1.1-3.2.1v.1c1.1 0 2.1-.1 3.2-.1V20zM9 2.7c-.7 0-1.3-.1-1.9-.1v.3c.6 0 1.2.1 1.8.3 0-.2 0-.3.1-.5zm152.8 18.6c.3.1.6.1.9.2.1 0 .1-.2.3-.4-.4-.1-.7-.1-1-.2-.1.1-.2.2-.2.4zm-14.4.8c-.1-.1-.4-.1-.4 0-.3.3-.2.6.2.9.3-.3.5-.5.2-.9zM9.3 3.9c-.3.1-.6.1-1.1.3.7.2.7.2 1.1-.3zm172.2 16.2c.3.1.5.1.8.2v-.2c-.3 0-.5-.1-.8-.1v.1zm-9.1.2h.9v-.1c-.3 0-.6 0-.9.1 0-.1 0-.1 0 0zM231.7.4c.3 0 .5-.1.8-.1V0c-.3 0-.5 0-.8.1v.3zM21.4 19.9h.7v-.2c-.2 0-.5 0-.7.1v.1zm136.8 2.5h-.5v.1h.5v-.1zm10.1-1.1c.2 0 .4 0 .5.1v-.2c-.2 0-.4-.1-.5-.1v.2zm-45.5 0c.1 0 .3-.1.4-.1v-.1h-.5c.1.1.1.1.1.2zm49 1.1c-.1 0-.1-.1-.2-.1s-.1.1-.2.1c.1.1.2.1.3.2 0-.1.1-.1.1-.2zM68.4 6.2c-.8-.1-1.5-.2-2.3-.2-1.7 0-1.7 0-2.2.6.6 0 1.1 0 1.7-.1.1.3.1.5.1.7.3-.1.7-.1.8-.2.1-.5.5-.4.8-.5.3-.1.7-.2 1.1-.3zM46.5 6c-.5-.3-1-.4-1.7.1.7.1 1.2.4 1.7-.1zm14.8.5c.1 0 .1-.2.2-.3-.1 0-.2-.1-.2-.1-.1 0-.2.1-.4.2.2.1.3.2.4.2zm-7.3.4c.1 0 .2.1.3.1 0 0 .1-.1.1-.2-.1 0-.1-.1-.2-.1 0 .1-.1.1-.2.2z"></path>
</svg>